<svg xmlns="http://www.w3.org/2000/svg" viewBox="0 0 399.63 96.67">
  <title>
    Colony Developer Portal
  </title>
  <path fill="#fff" d="M290.33 63.18h6.08v20.87h10.93v5.22h-17zm-15.86 21.95h-10.93l-1.65 4.14h-6.43l10.69-26.11h5.71l10.69 26.11h-6.41zM265.63 80h6.75l-3.16-7.89-.2-.84-.2.84zm-26.57-11.6h-7.29v-5.22h20.65v5.22h-7.29v20.87h-6.07zm-25.3 12.37h-3.87v8.5h-6.08V63.18h11.43a10.71 10.71 0 0 1 3.78.64 8.93 8.93 0 0 1 3 1.8 8.24 8.24 0 0 1 2 2.79 8.91 8.91 0 0 1 .7 3.59 9.5 9.5 0 0 1-.34 2.6 8.42 8.42 0 0 1-1 2.22 7.83 7.83 0 0 1-1.54 1.76 8.74 8.74 0 0 1-2 1.29l5.5 9.4h-7zm1.24-5.22a3.6 3.6 0 0 0 1.4-.26 3.35 3.35 0 0 0 1.14-.72 3 3 0 0 0 .77-1.11 3.89 3.89 0 0 0 0-2.9 3.28 3.28 0 0 0-.77-1.15 3.4 3.4 0 0 0-1.14-.74 3.6 3.6 0 0 0-1.4-.27h-5.1v7.15zm-49 .64a12.93 12.93 0 0 1 .51-3.65 13.67 13.67 0 0 1 1.49-3.27 13.17 13.17 0 0 1 2.23-2.76 14 14 0 0 1 2.87-2.13 14.15 14.15 0 0 1 3.36-1.38 15.2 15.2 0 0 1 7.54 0 14.32 14.32 0 0 1 3.41 1.37 14.17 14.17 0 0 1 2.9 2.13 13.17 13.17 0 0 1 2.23 2.76 13.67 13.67 0 0 1 1.46 3.28 13.28 13.28 0 0 1 0 7.29 13.67 13.67 0 0 1-1.44 3.27 13.49 13.49 0 0 1-2.23 2.77 13.8 13.8 0 0 1-2.9 2.13 14.75 14.75 0 0 1-3.43 1.37 14.9 14.9 0 0 1-7.58 0 14.57 14.57 0 0 1-3.37-1.37 13.74 13.74 0 0 1-6.54-8.17 12.91 12.91 0 0 1-.51-3.64zm6.07 0a8.58 8.58 0 0 0 .64 3.35 8.46 8.46 0 0 0 1.75 2.68 8.15 8.15 0 0 0 2.61 1.78 8.23 8.23 0 0 0 6.41 0 8.1 8.1 0 0 0 2.6-1.77 8.44 8.44 0 0 0 1.74-2.68 8.93 8.93 0 0 0 0-6.69 8.44 8.44 0 0 0-1.74-2.68 8.12 8.12 0 0 0-5.82-2.42 8 8 0 0 0-3.19.65 8.15 8.15 0 0 0-2.61 1.77 8.46 8.46 0 0 0-1.75 2.68 8.57 8.57 0 0 0-.64 3.34zm-28.33 5.08v8h-6.08V63.18h11.26a10.29 10.29 0 0 1 3.78.68 8.82 8.82 0 0 1 3 1.89 8.57 8.57 0 0 1 2 2.87 9.18 9.18 0 0 1 .7 3.63 9.47 9.47 0 0 1-.69 3.66 8.41 8.41 0 0 1-1.93 2.85 8.75 8.75 0 0 1-2.95 1.85 10.41 10.41 0 0 1-3.75.66zm4.93-5.22a3.29 3.29 0 0 0 1.4-.3 3.41 3.41 0 0 0 1.14-.8 3.74 3.74 0 0 0 .77-1.2 4 4 0 0 0-.77-4.21 3.67 3.67 0 0 0-1.14-.84 3.29 3.29 0 0 0-1.4-.3h-4.93v7.65zM388.1 31h-3.87v8.5h-6.08V13.42h11.43a10.71 10.71 0 0 1 3.78.64 8.79 8.79 0 0 1 3 1.81 8.11 8.11 0 0 1 2 2.78 8.91 8.91 0 0 1 .7 3.59 9.5 9.5 0 0 1-.34 2.6 8.42 8.42 0 0 1-1 2.22 7.83 7.83 0 0 1-1.54 1.76 8.74 8.74 0 0 1-2 1.29l5.5 9.4h-7zm1.23-5.22a3.6 3.6 0 0 0 1.4-.26 3.35 3.35 0 0 0 1.14-.72 3 3 0 0 0 .77-1.11 3.89 3.89 0 0 0 0-2.9 3.28 3.28 0 0 0-.77-1.15 3.4 3.4 0 0 0-1.14-.74 3.6 3.6 0 0 0-1.4-.27h-5.1v7.15zM350 13.42h18.4v5.24h-12.3V24h10.55v5.22H356.1v5.08h12.47v5.22H350zm-23.24 18.09v8h-6.08V13.42h11.26a10.29 10.29 0 0 1 3.78.68 8.92 8.92 0 0 1 3 1.89 8.57 8.57 0 0 1 2 2.87 9.18 9.18 0 0 1 .7 3.63 9.47 9.47 0 0 1-.69 3.66 8.41 8.41 0 0 1-1.99 2.85 8.75 8.75 0 0 1-2.95 1.85 10.41 10.41 0 0 1-3.75.66zm4.93-5.22a3.29 3.29 0 0 0 1.4-.3 3.41 3.41 0 0 0 1.14-.8A3.58 3.58 0 0 0 335 24a4.1 4.1 0 0 0 0-3 3.71 3.71 0 0 0-.77-1.23 3.67 3.67 0 0 0-1.14-.84 3.29 3.29 0 0 0-1.4-.3h-4.93v7.65zm-48.82.14a13 13 0 0 1 .51-3.65 13.67 13.67 0 0 1 1.44-3.27 13.17 13.17 0 0 1 2.23-2.76 13.77 13.77 0 0 1 2.88-2.13 13.92 13.92 0 0 1 3.4-1.37 15.2 15.2 0 0 1 7.58 0 14.32 14.32 0 0 1 3.41 1.37 14.17 14.17 0 0 1 2.9 2.13 13.17 13.17 0 0 1 2.23 2.76 13.67 13.67 0 0 1 1.44 3.27 13.28 13.28 0 0 1 0 7.29 13.74 13.74 0 0 1-6.57 8.17 15.23 15.23 0 0 1-3.41 1.38 14.71 14.71 0 0 1-11-1.38 13.1 13.1 0 0 1-2.88-2.13 13.59 13.59 0 0 1-3.67-6 12.91 12.91 0 0 1-.49-3.68zm6.07 0a8.57 8.57 0 0 0 .64 3.34 8.46 8.46 0 0 0 1.75 2.68 8.2 8.2 0 0 0 2.61 1.77 8.23 8.23 0 0 0 6.41 0 7.84 7.84 0 0 0 2.6-1.77 8.46 8.46 0 0 0 1.75-2.68 9.06 9.06 0 0 0 0-6.69 8.46 8.46 0 0 0-1.7-2.66 8.19 8.19 0 0 0-9-1.77 8.37 8.37 0 0 0-2.61 1.77 8.46 8.46 0 0 0-1.75 2.68 8.58 8.58 0 0 0-.7 3.35zm-29.68-13.01h6.08v20.87h10.93v5.22h-17zm-28.92 0h18.38v5.24h-12.3V24H247v5.22h-10.58v5.08h12.47v5.22h-18.55zm-14.25-.02h6.41l-10.8 26.11h-5.49L195.39 13.4h6.43l7.1 17.92h.08zm-46.4.02h18.38v5.24h-12.3V24h10.55v5.22h-10.55v5.08h12.47v5.22h-18.55zm-33.75 0h10.59a17.54 17.54 0 0 1 5.52.84 12.67 12.67 0 0 1 4.43 2.5 11.65 11.65 0 0 1 2.93 4.07 13.88 13.88 0 0 1 1.07 5.62 15.11 15.11 0 0 1-.91 5.32 11.21 11.21 0 0 1-2.69 4.12 12.14 12.14 0 0 1-4.36 2.67 17.28 17.28 0 0 1-5.93.95h-10.65zm10.49 20.87a8.12 8.12 0 0 0 5.92-2 7.74 7.74 0 0 0 2.05-5.77 10.38 10.38 0 0 0-.49-3.26 6.51 6.51 0 0 0-1.48-2.48 6.63 6.63 0 0 0-2.49-1.59 10 10 0 0 0-3.51-.55H142v15.65zm-76.04 36.1h20.99L70.39 91.37zm-44.12 0v20.99L5.29 70.39zm0-44.12H5.29L26.27 5.29zm44.12 0V5.29l20.99 20.98zM28.727943 48.33l19.608071-19.608071L67.944085 48.33 48.336014 67.938071zM24.5 48.330002a12.25 12.25 0 0 1-12.25 12.25 12.25 12.25 0 0 1-12.25-12.25 12.25 12.25 0 0 1 12.25-12.25 12.25 12.25 0 0 1 12.25 12.25zm72.169998 0a12.25 12.25 0 0 1-12.25 12.25 12.25 12.25 0 0 1-12.25-12.25 12.25 12.25 0 0 1 12.25-12.25 12.25 12.25 0 0 1 12.25 12.25zM60.580002 84.419998a12.25 12.25 0 0 1-12.25 12.25 12.25 12.25 0 0 1-12.25-12.25 12.25 12.25 0 0 1 12.25-12.25 12.25 12.25 0 0 1 12.25 12.25zm0-72.169998a12.25 12.25 0 0 1-12.25 12.25 12.25 12.25 0 0 1-12.25-12.25 12.25 12.25 0 0 1 12.25-12.25 12.25 12.25 0 0 1 12.25 12.25z" data-name="Layer 1"/>
</svg>
