<svg
  xmlns="http://www.w3.org/2000/svg" viewBox="0 0 399.63 96.67">
  <title>Colony Developer Portal</title>
  <g id="Layer_1" data-name="Layer 1">
    <circle cx="48.33" cy="12.25" r="12.25" style="fill:#fff"/>
    <circle cx="48.33" cy="84.42" r="12.25" style="fill:#fff"/>
    <circle cx="84.42" cy="48.33" r="12.25" style="fill:#fff"/>
    <circle cx="12.25" cy="48.33" r="12.25" style="fill:#fff"/>
    <rect x="34.47" y="34.47" width="27.73" height="27.73" transform="translate(-20.02 48.33) rotate(-45)" style="fill:#fff"/>
    <polygon points="70.39 26.27 70.39 5.29 91.38 26.27 70.39 26.27" style="fill:#fff"/>
    <polygon points="26.27 26.27 5.29 26.27 26.27 5.29 26.27 26.27" style="fill:#fff"/>
    <polygon points="26.27 70.39 26.27 91.38 5.29 70.39 26.27 70.39" style="fill:#fff"/>
    <polygon points="70.39 70.39 91.38 70.39 70.39 91.37 70.39 70.39" style="fill:#fff"/>
    <path d="M135.94,13.42h10.59a17.54,17.54,0,0,1,5.52.84,12.67,12.67,0,0,1,4.43,2.5,11.65,11.65,0,0,1,2.93,4.07,13.88,13.88,0,0,1,1.07,5.62,15.11,15.11,0,0,1-.91,5.32,11.21,11.21,0,0,1-2.69,4.12,12.14,12.14,0,0,1-4.36,2.67,17.28,17.28,0,0,1-5.93.95H135.94Zm10.49,20.87a8.12,8.12,0,0,0,5.92-2,7.74,7.74,0,0,0,2.05-5.77,10.38,10.38,0,0,0-.49-3.26,6.51,6.51,0,0,0-1.48-2.48,6.63,6.63,0,0,0-2.49-1.59,10,10,0,0,0-3.51-.55H142V34.29Z" style="fill:#fff"/>
    <path d="M169.69,13.42h18.38v5.24h-12.3V24h10.55v5.22H175.77v5.08h12.47v5.22H169.69Z" style="fill:#fff"/>
    <path d="M216.09,13.4h6.41L211.7,39.51h-5.49L195.39,13.4h6.43l7.1,17.92H209Z" style="fill:#fff"/>
    <path d="M230.34,13.42h18.38v5.24h-12.3V24H247v5.22H236.42v5.08h12.47v5.22H230.34Z" style="fill:#fff"/>
    <path d="M259.26,13.42h6.08V34.29h10.93v5.22h-17Z" style="fill:#fff"/>
    <path d="M282.87,26.43a13,13,0,0,1,.51-3.65,13.67,13.67,0,0,1,1.44-3.27,13.17,13.17,0,0,1,2.23-2.76,13.77,13.77,0,0,1,2.88-2.13,13.92,13.92,0,0,1,3.4-1.37,15.2,15.2,0,0,1,7.58,0,14.32,14.32,0,0,1,3.41,1.37,14.17,14.17,0,0,1,2.9,2.13,13.17,13.17,0,0,1,2.23,2.76,13.67,13.67,0,0,1,1.44,3.27,13.28,13.28,0,0,1,0,7.29,13.74,13.74,0,0,1-6.57,8.17,15.23,15.23,0,0,1-3.41,1.38,14.71,14.71,0,0,1-11-1.38,13.1,13.1,0,0,1-2.88-2.13,13.59,13.59,0,0,1-3.67-6A12.91,12.91,0,0,1,282.87,26.43Zm6.07,0a8.57,8.57,0,0,0,.64,3.34,8.46,8.46,0,0,0,1.75,2.68,8.2,8.2,0,0,0,2.61,1.77,8.23,8.23,0,0,0,6.41,0,7.84,7.84,0,0,0,2.6-1.77,8.46,8.46,0,0,0,1.75-2.68,9.06,9.06,0,0,0,0-6.69A8.46,8.46,0,0,0,303,20.42a8.19,8.19,0,0,0-9-1.77,8.37,8.37,0,0,0-2.61,1.77,8.46,8.46,0,0,0-1.75,2.68A8.58,8.58,0,0,0,288.94,26.45Z" style="fill:#fff"/>
    <path d="M326.76,31.51v8h-6.08V13.42h11.26a10.29,10.29,0,0,1,3.78.68,8.92,8.92,0,0,1,3,1.89,8.57,8.57,0,0,1,2,2.87,9.18,9.18,0,0,1,.7,3.63,9.47,9.47,0,0,1-.69,3.66A8.41,8.41,0,0,1,338.74,29a8.75,8.75,0,0,1-2.95,1.85,10.41,10.41,0,0,1-3.75.66Zm4.93-5.22a3.29,3.29,0,0,0,1.4-.3,3.41,3.41,0,0,0,1.14-.8A3.58,3.58,0,0,0,335,24a4.1,4.1,0,0,0,0-3,3.71,3.71,0,0,0-.77-1.23,3.67,3.67,0,0,0-1.14-.84,3.29,3.29,0,0,0-1.4-.3h-4.93v7.65Z" style="fill:#fff"/>
    <path d="M350,13.42H368.4v5.24H356.1V24h10.55v5.22H356.1v5.08h12.47v5.22H350Z" style="fill:#fff"/>
    <path d="M388.1,31h-3.87v8.5h-6.08V13.42h11.43a10.71,10.71,0,0,1,3.78.64,8.79,8.79,0,0,1,3,1.81,8.11,8.11,0,0,1,2,2.78,8.91,8.91,0,0,1,.7,3.59,9.5,9.5,0,0,1-.34,2.6,8.42,8.42,0,0,1-1,2.22,7.83,7.83,0,0,1-1.54,1.76,8.74,8.74,0,0,1-2,1.29l5.5,9.4h-7Zm1.23-5.22a3.6,3.6,0,0,0,1.4-.26,3.35,3.35,0,0,0,1.14-.72,3,3,0,0,0,.77-1.11,3.89,3.89,0,0,0,0-2.9,3.28,3.28,0,0,0-.77-1.15,3.4,3.4,0,0,0-1.14-.74,3.6,3.6,0,0,0-1.4-.27h-5.1v7.15Z" style="fill:#fff"/>
    <path d="M143.74,81.27v8h-6.08V63.18h11.26a10.29,10.29,0,0,1,3.78.68,8.82,8.82,0,0,1,3,1.89,8.57,8.57,0,0,1,2,2.87,9.18,9.18,0,0,1,.7,3.63,9.47,9.47,0,0,1-.69,3.66,8.41,8.41,0,0,1-1.93,2.85,8.75,8.75,0,0,1-2.95,1.85,10.41,10.41,0,0,1-3.75.66Zm4.93-5.22a3.29,3.29,0,0,0,1.4-.3,3.41,3.41,0,0,0,1.14-.8,3.74,3.74,0,0,0,.77-1.2,4,4,0,0,0-.77-4.21,3.67,3.67,0,0,0-1.14-.84,3.29,3.29,0,0,0-1.4-.3h-4.93v7.65Z" style="fill:#fff"/>
    <path d="M166,76.19a12.93,12.93,0,0,1,.51-3.65A13.67,13.67,0,0,1,168,69.27a13.17,13.17,0,0,1,2.23-2.76,14,14,0,0,1,2.87-2.13A14.15,14.15,0,0,1,176.46,63,15.2,15.2,0,0,1,184,63a14.32,14.32,0,0,1,3.41,1.37,14.17,14.17,0,0,1,2.9,2.13,13.17,13.17,0,0,1,2.23,2.76A13.67,13.67,0,0,1,194,72.54a13.28,13.28,0,0,1,0,7.29,13.67,13.67,0,0,1-1.44,3.27,13.49,13.49,0,0,1-2.23,2.77,13.8,13.8,0,0,1-2.9,2.13A14.75,14.75,0,0,1,184,89.37a14.9,14.9,0,0,1-7.58,0A14.57,14.57,0,0,1,173.05,88a13.74,13.74,0,0,1-6.54-8.17A12.91,12.91,0,0,1,166,76.19Zm6.07,0a8.58,8.58,0,0,0,.64,3.35,8.46,8.46,0,0,0,1.75,2.68A8.15,8.15,0,0,0,177.07,84a8.23,8.23,0,0,0,6.41,0,8.1,8.1,0,0,0,2.6-1.77,8.44,8.44,0,0,0,1.74-2.68,8.93,8.93,0,0,0,0-6.69,8.44,8.44,0,0,0-1.74-2.68,8.12,8.12,0,0,0-5.82-2.42,8,8,0,0,0-3.19.65,8.15,8.15,0,0,0-2.61,1.77,8.46,8.46,0,0,0-1.75,2.68A8.57,8.57,0,0,0,172.07,76.2Z" style="fill:#fff"/>
    <path d="M213.76,80.77h-3.87v8.5h-6.08V63.18h11.43a10.71,10.71,0,0,1,3.78.64,8.93,8.93,0,0,1,3,1.8,8.24,8.24,0,0,1,2,2.79,8.91,8.91,0,0,1,.7,3.59,9.5,9.5,0,0,1-.34,2.6,8.42,8.42,0,0,1-1,2.22,7.83,7.83,0,0,1-1.54,1.76,8.74,8.74,0,0,1-2,1.29l5.5,9.4h-7ZM215,75.55a3.6,3.6,0,0,0,1.4-.26,3.35,3.35,0,0,0,1.14-.72,3,3,0,0,0,.77-1.11,3.89,3.89,0,0,0,0-2.9,3.28,3.28,0,0,0-.77-1.15,3.4,3.4,0,0,0-1.14-.74,3.6,3.6,0,0,0-1.4-.27h-5.1v7.15Z" style="fill:#fff"/>
    <path d="M239.06,68.4h-7.29V63.18h20.65V68.4h-7.29V89.27h-6.07Z" style="fill:#fff"/>
    <path d="M274.47,85.13H263.54l-1.65,4.14h-6.43l10.69-26.11h5.71l10.69,26.11h-6.41ZM265.63,80h6.75l-3.16-7.89-.2-.84h0l-.2.84Z" style="fill:#fff"/>
    <path d="M290.33,63.18h6.08V84.05h10.93v5.22h-17Z" style="fill:#fff"/>
  </g>
</svg>