<svg xmlns="http://www.w3.org/2000/svg" viewBox="0 0 108.1 108.1">
  <title>
    Colony
  </title>
  <path fill="#fff" d="M78.7 78.7h23.4l-23.4 23.4zm-49.4 0v23.4L5.9 78.7zm0-49.4H5.9L29.3 5.9zm49.4 0V5.8l23.4 23.5zM32.077222 54l21.92031-21.92031L75.917843 54 53.997532 75.92031zM27.4 54a13.7 13.7 0 0 1-13.7 13.7A13.7 13.7 0 0 1 0 54a13.7 13.7 0 0 1 13.7-13.7A13.7 13.7 0 0 1 27.4 54zm80.7 0a13.7 13.7 0 0 1-13.699998 13.7 13.7 13.7 0 0 1-13.7-13.7 13.7 13.7 0 0 1 13.7-13.7A13.7 13.7 0 0 1 108.1 54zM67.7 94.400002A13.7 13.7 0 0 1 54 108.1a13.7 13.7 0 0 1-13.7-13.699998 13.7 13.7 0 0 1 13.7-13.7 13.7 13.7 0 0 1 13.7 13.7zM67.7 13.7A13.7 13.7 0 0 1 54 27.4a13.7 13.7 0 0 1-13.7-13.7A13.7 13.7 0 0 1 54 0a13.7 13.7 0 0 1 13.7 13.7z"/>
</svg>
