<svg height="589" width="1216" xmlns="http://www.w3.org/2000/svg" viewBox="0 0 1216 589">
  <g fill="#e9f6ff">
    <path d="M426.8 424.14c0-4.42-1.56-18.14-5.6-27.56a59.77 59.77 0 0 1-5.59-25.05 30.64 30.64 0 0 1 .32-5l3.5-24.28a27 27 0 0 0-.85-12.3c-3.16-9.44-11.39-16.18-21.05-16.18l-56.7.15a3 3 0 0 0-3 2.89c-.76 24.71-11.18 25.67-11.18 52.19 0 27.56 11.23 27.56 11.23 55.12s-11.23 27.52-11.23 55.08 11.23 27.55 11.23 55.1c0 26.47-10.37 27.52-11.19 52a3 3 0 0 0 3 3.14h22.34a3 3 0 0 0 3-2.89c.75-24.7 11.18-25.67 11.18-52.23 0-27.55-11.23-27.55-11.23-55.1a27 27 0 0 1 2.36-11h9.48v5.35c0 27.55 31.82 38 31.82 65.51 0 26.47-10.36 23.1-11.17 47.2a3 3 0 0 0 3 3.13h21.61a3 3 0 0 0 3-2.89c.74-24.65 11.16-24.81 11.16-51.35 0-27.56-31.87-43.06-31.87-61.6v-6.16c18.51-3.92 32.43-21.8 32.43-43.27zm-45.49 19.43h-17.67c.13-.48.31-1 .45-1.54a66.44 66.44 0 0 0 2.15-17.89c0-27.56-11.23-27.56-11.23-55.12 0-6.08 2.15-14.23 3-18.23a12.45 12.45 0 0 1 11.87-9.66h14.29c2.17 0 5.4 1.74 7 3.1 3 2.54 4 7 3 11l-1.73 6.77a47.31 47.31 0 0 0-.92 18.88c2.62 16.49 10.38 20.35 10.38 43.26v4.39c-.53 13.05-12.26 15.04-20.59 15.04zM27.19 462.63h9.48s5.39.05 11.6 0z"/>
    <path d="M93.93 523.14a59.83 59.83 0 0 1-5.58-25.05 30.83 30.83 0 0 1 .31-5l3.5-24.27a26.91 26.91 0 0 0-.85-12.31 25.3 25.3 0 0 0-4.89-8.59 46.57 46.57 0 0 0 10.2-29.4c0-4.42-1.57-12.65-5.61-22.07a59.81 59.81 0 0 1-5.59-25 32 32 0 0 1 .32-5l3.5-24.28a26.9 26.9 0 0 0-.85-12.3c-3.16-9.43-11.39-16.17-21-16.17l-56.7.14a3 3 0 0 0-3 2.9c-.78 24.68-11.21 25.64-11.21 52.16 0 27.56 11.23 27.56 11.23 55.12s-11.23 27.52-11.23 55.07S7.71 506.65 7.71 534.2c0 26.47-10.37 27.51-11.18 52a3 3 0 0 0 3 3.14h22.4c12.83 0 39.9-.06 45.23-.82 18.45-3.94 32.38-21.83 32.38-43.29 0-4.45-1.54-12.67-5.61-22.09zM27.81 350.67A12.45 12.45 0 0 1 39.68 341H54c2.16 0 5.39 1.73 7 3.09 3 2.55 4 7 3 11.05l-1.71 6.76a47.3 47.3 0 0 0-.92 18.88c2.62 16.48 10.39 14.85 10.39 37.77v4.39c-.5 13-12.19 17.48-20.53 17.48l-18.43.05c.14-.5 1-3.51 1.19-4 1.24-4.61 2.14-4.68 2.14-12.4 0-27.56-11.23-27.56-11.23-55.12-.08-6.13 2.1-14.29 2.91-18.28zM74.6 544.54c-.5 13-12.22 15-20.55 15H31.32c2.48-6.23 4.73-13.05 4.73-25.38 0-27.55-11.23-27.55-11.23-55.11 0-4.24.81-12.5 2.37-16.46h21.08c11.08 0 15.42 6 17 8.16 2.33 3.16 2.55 7 1.55 11l-1.71 6.76a47.35 47.35 0 0 0-.92 18.89c2.62 16.48 10.4 19.22 10.4 35.27.06.33.05 1.56.01 1.87zM308.24 567c-4.34 8.53-15.24 22.38-40.13 22.38h-23.55c-32.38 0-24.54-31.13-23-37.43 0-.15.08-.29.1-.41a66.33 66.33 0 0 0 2-17.35c0-27.56-11.23-27.56-11.23-55.11s11.23-27.55 11.23-55.08-11.23-27.55-11.23-55.1c0-24.57 8.94-27.22 10.86-47.07.22-2.25.36-4.71.37-7.46a1.47 1.47 0 0 1 1.15-.54H253c0 6.68-7.21 29.09-7.21 29.09-2.59 6.4-5 13.25-5 26 0 18.87 5.26 24.82 8.58 35.54 0 0 2.12 10.61 2.12 29.09-2.22 18.48-10.7 21.61-10.7 45.55 0 27.55 11.22 27.55 11.22 55.11a78.63 78.63 0 0 1-1.01 11.62l-.35 2.52A11.91 11.91 0 0 0 262.4 562h3.85c8.13 0 16.68-6.21 19.31-13.9a32.51 32.51 0 0 0 2-13.92c0-27.56-11.22-27.56-11.22-55.11s11.22-27.55 11.22-55.08-11.22-27.55-11.22-55.1c0-26.53 10.42-27.5 11.18-52.16a3 3 0 0 1 3-2.91h22.33a3 3 0 0 1 3 3.14c-.82 24.44-11.17 25.48-11.17 51.93 0 27.55 11.22 27.55 11.22 55.1s-11.22 27.53-11.22 55.08 11.22 27.55 11.22 55.11a72.44 72.44 0 0 1-7.66 32.82zM124.26 313.84a1.47 1.47 0 0 0-1.14.54c0 2.75-.15 5.21-.37 7.46-1.91 19.85-10.86 22.5-10.86 47.07 0 27.55 11.23 27.55 11.23 55.1s-11.23 27.53-11.23 55.07 11.23 27.56 11.23 55.12c0 26.47-10.35 27.51-11.17 52a3 3 0 0 0 3 3.14h5.32v.08h78.85a1.51 1.51 0 0 0 1.5-1.51l5.68-28a1.5 1.5 0 0 0-1.5-1.51h-57.6c2.29-5.91 4.25-12.61 4.25-24.14 0-27.56-11.22-27.56-11.22-55.12 0-23.93 8.47-27.06 10.7-45.54 0-18.48-2.12-29.09-2.12-29.09-3.32-10.73-8.58-16.67-8.58-35.54 0-12.74 2.39-19.58 5-26 0 0 7.21-22.41 7.21-29.09zM101.67 96.08q0 10.71-4.24 18a33.75 33.75 0 0 1-11.25 11.71 49.1 49.1 0 0 1-16 6.36 86.59 86.59 0 0 1-18.35 1.94h-52V3.5h52a80.21 80.21 0 0 1 15.54 1.57 45.94 45.94 0 0 1 14.38 5.35 30.37 30.37 0 0 1 10.51 10.24q4.06 6.45 4.06 16.41 0 10.89-5.9 18a32.92 32.92 0 0 1-15.49 10.22v.36a35.93 35.93 0 0 1 10.42 3.42 30.29 30.29 0 0 1 8.48 6.36 29.85 29.85 0 0 1 5.72 9 30.37 30.37 0 0 1 2.12 11.65zM65.89 41.31q0-6.64-5.07-9.68t-15-3.05H30.3v26.93h17q8.87 0 13.74-3.59t4.85-10.61zm4.24 51.82q0-8.1-6.08-11.25t-16.23-3.13H30.3v29.88H48a47.82 47.82 0 0 0 7.66-.65 24 24 0 0 0 7.19-2.31 13.08 13.08 0 0 0 7.28-12.54zM258.61 68.24a72.78 72.78 0 0 1-5.35 28.31 64.35 64.35 0 0 1-14.84 21.94 66.07 66.07 0 0 1-22.59 14.11 79.27 79.27 0 0 1-28.41 5 78.44 78.44 0 0 1-28.3-5 66.15 66.15 0 0 1-22.5-14.11 64.38 64.38 0 0 1-14.85-21.94 72.78 72.78 0 0 1-5.35-28.31 71.87 71.87 0 0 1 5.35-28.31 62 62 0 0 1 14.85-21.49 66.19 66.19 0 0 1 22.5-13.65A81.3 81.3 0 0 1 187.42 0a82.17 82.17 0 0 1 28.41 4.79 66.11 66.11 0 0 1 22.59 13.65 61.94 61.94 0 0 1 14.84 21.49 71.87 71.87 0 0 1 5.35 28.31zm-33.75 0a44.84 44.84 0 0 0-2.76-15.86 37.94 37.94 0 0 0-7.66-12.64 35.42 35.42 0 0 0-11.8-8.3 37.51 37.51 0 0 0-15.22-3 36.26 36.26 0 0 0-26.92 11.3 35.91 35.91 0 0 0-7.65 12.64 46 46 0 0 0-2.68 15.86 46.52 46.52 0 0 0 2.77 16.32 38.6 38.6 0 0 0 7.65 12.82 35 35 0 0 0 11.71 8.39 39.15 39.15 0 0 0 30.25 0 36 36 0 0 0 11.8-8.39 38 38 0 0 0 7.75-12.82 46.75 46.75 0 0 0 2.76-16.32zM386.14 106.32a46.58 46.58 0 0 1-11.34 16.6 52.45 52.45 0 0 1-17.8 10.79 71.41 71.41 0 0 1-46.38 0 50.61 50.61 0 0 1-17.52-10.79 46.82 46.82 0 0 1-11.1-16.6 57.18 57.18 0 0 1-3.88-21.49V3.5h31.35v78.75a36.55 36.55 0 0 0 1.43 10.15 26 26 0 0 0 4.24 8.57 20 20 0 0 0 7.56 6 30.2 30.2 0 0 0 22.68 0 20.77 20.77 0 0 0 7.66-6 24 24 0 0 0 4.24-8.57 38.94 38.94 0 0 0 1.29-10.15V3.5h31.54v81.33a56 56 0 0 1-3.97 21.49zM498.55 134.08L446 48.69h-.56l.74 85.39h-30.62V3.5h36l52.34 85.21h.55l-.74-85.21h30.62v130.58zM683.16 68.42q0 17.16-6.37 29.6A59.61 59.61 0 0 1 660 118.49a70 70 0 0 1-23.5 11.81 95.4 95.4 0 0 1-26.56 3.78h-48.69V3.5h47.21a116.85 116.85 0 0 1 27.3 3.23 68.42 68.42 0 0 1 24 10.7 54.72 54.72 0 0 1 17 20q6.39 12.57 6.4 30.99zm-32.83 0q0-11.07-3.6-18.35a30.86 30.86 0 0 0-9.59-11.62 38.43 38.43 0 0 0-13.65-6.18 67.55 67.55 0 0 0-15.76-1.84h-15.68v76.35H607a67.41 67.41 0 0 0 16.32-1.94 38.64 38.64 0 0 0 13.83-6.36 31.47 31.47 0 0 0 9.59-11.8q3.59-7.38 3.59-18.26zM788.09 134.08L778 108.44h-50.58l-9.59 25.64h-34.31L738.3 3.5h30.61l54.22 130.58zm-35-95.72l-16.6 44.81h32.83zM903.91 134.08l-28.35-51.83h-10.75v51.83H834V3.5h49.8a86.59 86.59 0 0 1 18.35 1.94 47.73 47.73 0 0 1 16 6.55 34.26 34.26 0 0 1 11.34 12.17q4.25 7.56 4.25 18.81 0 13.28-7.2 22.32T906.67 78.2l34.12 55.88zm-1.29-90.56a13 13 0 0 0-2-7.47 13.37 13.37 0 0 0-5-4.42 21.77 21.77 0 0 0-6.86-2.12 50.62 50.62 0 0 0-7.32-.56h-16.81v30.43h15a51 51 0 0 0 8-.64 25.49 25.49 0 0 0 7.37-2.31 13.36 13.36 0 0 0 7.6-12.91zM956.28 134.08V3.5H988v130.58zM1014.93 134.08V3.5h87.79v26.56h-57.36v24.71h54.22V80h-54.22v27.11H1106v26.93zM1195.85 37.44a28.58 28.58 0 0 0-10.6-8.21 29.93 29.93 0 0 0-12.64-3 37.44 37.44 0 0 0-6.36.55 16.55 16.55 0 0 0-5.81 2.12 14.34 14.34 0 0 0-4.33 4.06 10.79 10.79 0 0 0-1.76 6.36 10.24 10.24 0 0 0 1.39 5.53 12.24 12.24 0 0 0 4.06 3.88 36.32 36.32 0 0 0 6.36 3c2.46.92 5.22 1.88 8.3 2.86q6.63 2.2 13.83 4.89a51.65 51.65 0 0 1 13.09 7.1 37.22 37.22 0 0 1 9.78 11q3.87 6.56 3.87 16.32 0 11.25-4.15 19.46a38.81 38.81 0 0 1-11.16 13.55 47.7 47.7 0 0 1-16 7.93 67.59 67.59 0 0 1-18.63 2.59 77.12 77.12 0 0 1-27.11-4.89 57.4 57.4 0 0 1-21.76-13.93l20.65-21a38.2 38.2 0 0 0 12.64 9.87 34.3 34.3 0 0 0 15.58 4 31 31 0 0 0 6.83-.74 17.08 17.08 0 0 0 5.8-2.39 12.14 12.14 0 0 0 4-4.43 14 14 0 0 0 1.48-6.64 10.5 10.5 0 0 0-1.85-6.27 17.93 17.93 0 0 0-5.26-4.7 42.53 42.53 0 0 0-8.48-3.88q-5.07-1.74-11.53-3.78a110 110 0 0 1-12.26-4.79 41.21 41.21 0 0 1-10.7-7.1 33 33 0 0 1-7.56-10.51 35.57 35.57 0 0 1-2.86-15q0-10.89 4.43-18.63a38.47 38.47 0 0 1 11.62-12.73 49.87 49.87 0 0 1 16.23-7.28 73.42 73.42 0 0 1 18.19-2.43 68 68 0 0 1 22.59 4.06 58.24 58.24 0 0 1 20.19 12zM138.19 289.57H107l-25.8-88.34h-.55l-25.82 88.34H23.47L-13.6 159h33.94L41 245.86h.56L64.78 159h32.83L121 245.86h.56l21-86.86h32.83zM188.9 289.57V159h31.72v130.57zM247.55 289.57V159h31.72v103.09h50.53v27.48zM344.55 289.57V159h31.72v103.09h50.53v27.48z"/>
  </g>
</svg>
