<svg id="colony_logo_horizontal_white" xmlns="http://www.w3.org/2000/svg" viewBox="0 0 385 76">
  <path fill="#fff" d="M385.24 20.7l-13.35 21.5v13.1h-8.06V42.22L350.54 20.7h9.39l7.91 14.17h.08l7.91-14.17zm0 0l-13.35 21.5v13.1h-8.06V42.22L350.54 20.7h9.39l7.91 14.17h.08l7.91-14.17zM334.1 55.3h-7l-16.5-20.8v20.8h-8.1V20.7h7L326 41.4V20.7h8.1zm-87.8-17.4a15.5 15.5 0 0 1 .7-4.8 16.57 16.57 0 0 1 1.9-4.3 17.4 17.4 0 0 1 3-3.7 18.84 18.84 0 0 1 8.3-4.6 19.23 19.23 0 0 1 10.1 0 17.65 17.65 0 0 1 4.5 1.8 21.39 21.39 0 0 1 3.9 2.8 15.23 15.23 0 0 1 3 3.7 18.21 18.21 0 0 1 1.9 4.3 17.76 17.76 0 0 1 0 9.7 16.57 16.57 0 0 1-1.9 4.3 18.43 18.43 0 0 1-6.8 6.5 19.8 19.8 0 0 1-14.6 1.8 20 20 0 0 1-4.6-1.8 19.26 19.26 0 0 1-6.8-6.5 18.21 18.21 0 0 1-1.9-4.3 13.54 13.54 0 0 1-.7-4.9zm8 0a11.17 11.17 0 0 0 .9 4.4 9.9 9.9 0 0 0 2.4 3.6 10.92 10.92 0 0 0 12 2.4 8.14 8.14 0 0 0 3.4-2.4 9.67 9.67 0 0 0 2.3-3.6 12.41 12.41 0 0 0 0-8.9 10.34 10.34 0 0 0-5.8-5.8 11.36 11.36 0 0 0-8.5 0 10.14 10.14 0 0 0-3.5 2.3 9.67 9.67 0 0 0-2.3 3.6 11.93 11.93 0 0 0-.9 4.4zm-45.4-17.2h8.1v27.7h14.5v6.9h-22.6zm-56.3 17.2a15.5 15.5 0 0 1 .7-4.8 16.57 16.57 0 0 1 1.9-4.3 17.4 17.4 0 0 1 3-3.7 20.69 20.69 0 0 1 3.8-2.8 17.65 17.65 0 0 1 4.5-1.8 19.23 19.23 0 0 1 10.1 0 19 19 0 0 1 8.4 4.7 17.94 17.94 0 0 1 4.9 8 17.76 17.76 0 0 1 0 9.7 16.57 16.57 0 0 1-1.9 4.3 15.23 15.23 0 0 1-3 3.7 15.46 15.46 0 0 1-3.9 2.8 17.65 17.65 0 0 1-4.5 1.8 20 20 0 0 1-14.6-1.8 19.26 19.26 0 0 1-6.8-6.5 18.21 18.21 0 0 1-1.9-4.3 17.25 17.25 0 0 1-.7-5zm8 .1a11.17 11.17 0 0 0 .9 4.4 14.14 14.14 0 0 0 2.4 3.6 10.57 10.57 0 0 0 7.7 3.2 10.7 10.7 0 0 0 4.3-.9 10.42 10.42 0 0 0 3.5-2.4 9.67 9.67 0 0 0 2.3-3.6 12.41 12.41 0 0 0 0-8.9 11.81 11.81 0 0 0-2.3-3.5 11 11 0 0 0-7.7-3.2 11 11 0 0 0-7.7 3.2 9.67 9.67 0 0 0-2.3 3.6 9.34 9.34 0 0 0-1.1 4.5zM137 50.5a27.46 27.46 0 0 1-2.6 2.2 18.42 18.42 0 0 1-6.7 3 13.61 13.61 0 0 1-4 .4 19.23 19.23 0 0 1-16.4-9 18.21 18.21 0 0 1-1.9-4.3 17.76 17.76 0 0 1 0-9.7 16.57 16.57 0 0 1 1.9-4.3 17.4 17.4 0 0 1 3-3.7 20.69 20.69 0 0 1 3.8-2.8 17.65 17.65 0 0 1 4.5-1.8 20.74 20.74 0 0 1 5-.6 17.22 17.22 0 0 1 3.9.4 20.63 20.63 0 0 1 3.5 1.2 19.23 19.23 0 0 1 3.1 1.8 20.41 20.41 0 0 1 2.7 2.3l-4.9 5.2a10.38 10.38 0 0 0-3.7-2.9 10.61 10.61 0 0 0-4.6-1 11 11 0 0 0-7.7 3.2 9.67 9.67 0 0 0-2.3 3.6 12.41 12.41 0 0 0 0 8.9 11.94 11.94 0 0 0 2.4 3.6 10.77 10.77 0 0 0 10.1 3 8.26 8.26 0 0 0 2.2-.8 13.24 13.24 0 0 0 2-1.2 12.88 12.88 0 0 0 1.7-1.6zm-81.7 4.8h16.5L55.3 71.8zm-34.7 0v16.5L4.1 55.3zm0-34.6H4.1L20.6 4.2zm34.7 0V4.2l16.5 16.5zM22.598117 37.978786l15.414927-15.414927 15.414927 15.414927-15.414927 15.414927zM19.200001 38a9.6000004 9.6000004 0 0 1-9.6000006 9.6A9.6000004 9.6000004 0 0 1 0 38a9.6000004 9.6000004 0 0 1 9.6000004-9.6A9.6000004 9.6000004 0 0 1 19.200001 38zm56.700002 0a9.6000004 9.6000004 0 0 1-9.6 9.6 9.6000004 9.6000004 0 0 1-9.6-9.6 9.6000004 9.6000004 0 0 1 9.6-9.6 9.6000004 9.6000004 0 0 1 9.6 9.6zM47.6 66.400002a9.6000004 9.6000004 0 0 1-9.6 9.6 9.6000004 9.6000004 0 0 1-9.6-9.6 9.6000004 9.6000004 0 0 1 9.6-9.600001 9.6000004 9.6000004 0 0 1 9.6 9.600001zm0-56.8000016A9.6000004 9.6000004 0 0 1 38 19.200001a9.6000004 9.6000004 0 0 1-9.6-9.6000006A9.6000004 9.6000004 0 0 1 38 0a9.6000004 9.6000004 0 0 1 9.6 9.6000004z"/>
</svg>
