<svg id="colony_logomark" viewBox="0 0 112 112" version="1.1" title="Colony" xmlns="http://www.w3.org/2000/svg">
  <path d="M 78.627197,78.627197 H 102.00555 L 78.627197,102.00555 Z m -49.354302,0 V 102.00555 L 5.8945421,78.627197 Z m 0,-49.354302 H 5.8945421 L 29.272895,5.8945421 Z m 49.354302,0 V 5.7946346 L 102.00555,29.272895 Z M 32.047548,53.950046 53.947581,32.050014 75.847614,53.950046 53.947581,75.850078 Z m -4.672895,0 A 13.687327,13.687327 0 0 1 13.687327,67.637373 13.687327,13.687327 0 0 1 0,53.950046 13.687327,13.687327 0 0 1 13.687327,40.26272 13.687327,13.687327 0 0 1 27.374653,53.950046 Z m 80.625347,0 A 13.687327,13.687327 0 0 1 94.312675,67.637373 13.687327,13.687327 0 0 1 80.625349,53.950046 13.687327,13.687327 0 0 1 94.312675,40.26272 13.687327,13.687327 0 0 1 108,53.950046 Z M 67.637373,94.312675 A 13.687327,13.687327 0 0 1 53.950046,108 13.687327,13.687327 0 0 1 40.26272,94.312675 13.687327,13.687327 0 0 1 53.950046,80.625349 13.687327,13.687327 0 0 1 67.637373,94.312675 Z m 0,-80.625348 A 13.687327,13.687327 0 0 1 53.950046,27.374653 13.687327,13.687327 0 0 1 40.26272,13.687327 13.687327,13.687327 0 0 1 53.950046,0 13.687327,13.687327 0 0 1 67.637373,13.687327 Z" />
</svg>
