<svg id="colony_logo_vertical_navy" version="1.1" xmlns="http://www.w3.org/2000/svg" xmlns:xlink="http://www.w3.org/1999/xlink" viewBox="0 0 185 175">
  <title>Colony</title>
  <circle cx="92.4" cy="40.47" r="9.63" style="fill:#00284b"/>
  <circle cx="92.4" cy="97.17" r="9.63" style="fill:#00284b"/>
  <circle cx="120.75" cy="68.82" r="9.63" style="fill:#00284b"/>
  <circle cx="64.04" cy="68.82" r="9.63" style="fill:#00284b"/>
  <rect x="81.5" y="57.92" width="21.79" height="21.79" transform="translate(75.72 -45.18) rotate(45)" style="fill:#00284b"/>
  <polygon points="109.73 51.48 109.73 34.99 126.22 51.48 109.73 51.48" style="fill:#00284b"/>
  <polygon points="75.06 51.49 58.57 51.49 75.06 35 75.06 51.49" style="fill:#00284b"/>
  <polygon points="75.06 86.15 75.06 102.64 58.57 86.15 75.06 86.15" style="fill:#00284b"/>
  <polygon points="109.73 86.15 126.22 86.15 109.73 102.64 109.73 86.15" style="fill:#00284b"/>
  <path d="M45.51,139a8.71,8.71,0,0,1-1.11,1,7.43,7.43,0,0,1-1.35.78,8.3,8.3,0,0,1-1.55.52,7.46,7.46,0,0,1-1.73.19,8.3,8.3,0,0,1-2.18-.28,8.21,8.21,0,0,1-2-.79A7.58,7.58,0,0,1,34,139.14a7.77,7.77,0,0,1-1.28-1.59,7.6,7.6,0,0,1-.83-1.89,7.71,7.71,0,0,1,0-4.19,7.53,7.53,0,0,1,.83-1.88A7.77,7.77,0,0,1,34,128a8.39,8.39,0,0,1,5.79-2.29,7.71,7.71,0,0,1,1.7.18,8.33,8.33,0,0,1,1.53.51,7.75,7.75,0,0,1,1.34.77,9.28,9.28,0,0,1,1.17,1l-2.13,2.26a4.35,4.35,0,0,0-1.6-1.25,4.62,4.62,0,0,0-2-.45,4.75,4.75,0,0,0-1.83.37,4.86,4.86,0,0,0-1.5,1,5.08,5.08,0,0,0-1,1.54,5.14,5.14,0,0,0-.37,1.93,5.05,5.05,0,0,0,.37,1.92,4.85,4.85,0,0,0,1,1.54,4.66,4.66,0,0,0,3.33,1.39,5.07,5.07,0,0,0,1-.11,5,5,0,0,0,1-.34,4.81,4.81,0,0,0,.87-.53,4.2,4.2,0,0,0,.74-.72Z" style="fill:#00284b"/>
  <path d="M52.36,133.57a7.66,7.66,0,0,1,.29-2.1,7.91,7.91,0,0,1,.83-1.88A8.12,8.12,0,0,1,54.76,128a8.59,8.59,0,0,1,1.65-1.22,8.21,8.21,0,0,1,2-.79,8.32,8.32,0,0,1,2.19-.28,8.46,8.46,0,0,1,4.13,1.07A8.43,8.43,0,0,1,66.36,128a7.77,7.77,0,0,1,1.28,1.59,7.53,7.53,0,0,1,.83,1.88,7.71,7.71,0,0,1,0,4.19,7.6,7.6,0,0,1-.83,1.89,7.86,7.86,0,0,1-3,2.81,8.46,8.46,0,0,1-4.13,1.07,8.32,8.32,0,0,1-2.19-.28,8.21,8.21,0,0,1-2-.79,7.83,7.83,0,0,1-1.65-1.22,8.12,8.12,0,0,1-1.28-1.59,8,8,0,0,1-.83-1.89A7.59,7.59,0,0,1,52.36,133.57Zm3.49,0a5,5,0,0,0,.36,1.92,4.85,4.85,0,0,0,1,1.54,4.71,4.71,0,0,0,3.34,1.39,4.56,4.56,0,0,0,1.85-.37,4.4,4.4,0,0,0,1.49-1,4.68,4.68,0,0,0,1-1.54,5.05,5.05,0,0,0,.37-1.92,5.14,5.14,0,0,0-.37-1.93,4.9,4.9,0,0,0-1-1.54,4.71,4.71,0,0,0-5.17-1,4.79,4.79,0,0,0-1.51,1,5.08,5.08,0,0,0-1,1.54A5.14,5.14,0,0,0,55.85,133.58Z" style="fill:#00284b"/>
  <path d="M76.81,126.09H80.3v12h6.29v3H76.81Z" style="fill:#00284b"/>
  <path d="M93.1,133.57a7.3,7.3,0,0,1,.29-2.1,7.53,7.53,0,0,1,.83-1.88A7.77,7.77,0,0,1,95.5,128a8,8,0,0,1,1.65-1.22,8.21,8.21,0,0,1,2-.79,8.52,8.52,0,0,1,6.32.79A8.43,8.43,0,0,1,107.1,128a8.12,8.12,0,0,1,1.28,1.59,7.91,7.91,0,0,1,.83,1.88,7.71,7.71,0,0,1,0,4.19,8,8,0,0,1-.83,1.89,8.12,8.12,0,0,1-1.28,1.59,7.7,7.7,0,0,1-1.67,1.22,8.57,8.57,0,0,1-6.32.79,8.21,8.21,0,0,1-2-.79,7.35,7.35,0,0,1-1.65-1.22,7.77,7.77,0,0,1-1.28-1.59,7.6,7.6,0,0,1-.83-1.89A7.23,7.23,0,0,1,93.1,133.57Zm3.48,0A5.05,5.05,0,0,0,97,135.5,4.68,4.68,0,0,0,98,137a4.66,4.66,0,0,0,3.33,1.39,4.64,4.64,0,0,0,1.86-.37,4.4,4.4,0,0,0,1.49-1,4.85,4.85,0,0,0,1-1.54,5,5,0,0,0,.36-1.92,5.14,5.14,0,0,0-.36-1.93,5.08,5.08,0,0,0-1-1.54,4.7,4.7,0,0,0-1.49-1,4.82,4.82,0,0,0-1.86-.37,4.75,4.75,0,0,0-1.83.37A4.68,4.68,0,0,0,97,131.65,5.14,5.14,0,0,0,96.58,133.58Z" style="fill:#00284b"/>
  <path d="M131.22,141.09h-3l-7.16-9v9h-3.5v-15h3l7.15,9v-9h3.48Z" style="fill:#00284b"/>
  <path d="M153.42,126.09l-5.8,9.32,0,5.68h-3.5v-5.67l-5.77-9.33h4.07l3.43,6.14h0l3.43-6.14Z" style="fill:#00284b"/>
</svg>
