<svg xmlns="http://www.w3.org/2000/svg" viewBox="0 0 90 90" version="1.1">
  <circle cx="45" cy="45" r="20.769" fill="#FDE491"/>
  <path d="m70.385 25.385 5.298 14.318 14.318 5.298-14.318 5.2979-5.298 14.318-5.2979-14.318-14.318-5.2979 14.318-5.298 5.2979-14.318z" fill="#DFAC06"/>
  <path d="m19.616 25.385 5.2979 14.318 14.318 5.298-14.318 5.2979-5.2979 14.318-5.298-14.318-14.318-5.2979 14.318-5.298 5.298-14.318z" fill="#DFAC06"/>
  <path d="m45.001 0 5.2979 14.318 14.318 5.298-14.318 5.2979-5.2979 14.318-5.298-14.318-14.318-5.2979 14.318-5.298 5.298-14.318z" fill="#FCD65F"/>
  <path d="m45.001 50.769 5.2979 14.318 14.318 5.298-14.318 5.2979-5.2979 14.318-5.298-14.318-14.318-5.2979 14.318-5.298 5.298-14.318z" fill="#B09026"/>
</svg>
