<svg width="270" height="271" viewBox="0 0 270 271" xmlns="http://www.w3.org/2000/svg">
  <defs>
    <linearGradient id="b" x1="216.83" x2="216.83" y1="19.938" y2="85.731" gradientUnits="userSpaceOnUse">
      <stop stop-color="#E6BE3E" offset="0"/>
      <stop stop-color="#E6BE3E" stop-opacity="0" offset="1"/>
    </linearGradient>
    <linearGradient id="a" x1="52.834" x2="52.834" y1="184.94" y2="250.73" gradientUnits="userSpaceOnUse">
      <stop stop-color="#E6BE3E" offset="0"/>
      <stop stop-color="#E6BE3E" stop-opacity="0" offset="1"/>
    </linearGradient>
  </defs>
  <path d="m217 106c29.271 0 53-23.729 53-53s-23.729-53-53-53-53 23.729-53 53 23.729 53 53 53z" fill="#FAD250"/>
  <circle cx="216.83" cy="52.834" r="32.897" fill="url(#b)"/>
  <path d="m264.68 52.834c0-26.427-21.423-47.85-47.85-47.85v7.9748c22.023 1e-4 39.875 17.852 39.875 39.875h7.975z" clip-rule="evenodd" fill="#FEF0C4" fill-rule="evenodd"/>
  <path d="m206.39 57.3c-0.501 0.576-1.12 1.0346-1.856 1.376-0.736 0.3306-1.584 0.496-2.544 0.496-0.874 0-1.685-0.144-2.432-0.432-0.736-0.288-1.376-0.6934-1.92-1.216-0.544-0.5334-0.97-1.168-1.28-1.904-0.309-0.736-0.464-1.5467-0.464-2.432 0-0.9067 0.155-1.728 0.464-2.464 0.32-0.736 0.758-1.36 1.312-1.872 0.555-0.5227 1.206-0.9227 1.952-1.2 0.747-0.2774 1.552-0.416 2.416-0.416 0.8 0 1.584 0.144 2.352 0.432 0.779 0.2773 1.408 0.688 1.888 1.232l-1.856 1.856c-0.256-0.352-0.592-0.6134-1.008-0.784-0.416-0.1707-0.842-0.256-1.28-0.256-0.48 0-0.922 0.0906-1.328 0.272-0.394 0.1706-0.736 0.4106-1.024 0.72-0.288 0.3093-0.512 0.6773-0.672 1.104-0.16 0.416-0.24 0.8746-0.24 1.376 0 0.512 0.08 0.9813 0.24 1.408 0.16 0.4266 0.379 0.7946 0.656 1.104 0.288 0.2986 0.63 0.5333 1.024 0.704 0.395 0.1706 0.827 0.256 1.296 0.256 0.544 0 1.019-0.1067 1.424-0.32 0.406-0.2134 0.731-0.4907 0.976-0.832l1.904 1.792zm11.749-4.128c0 0.992-0.187 1.8506-0.56 2.576-0.363 0.7146-0.848 1.3066-1.456 1.776-0.598 0.4586-1.275 0.8-2.032 1.024-0.758 0.2133-1.526 0.32-2.304 0.32h-4.224v-11.328h4.096c0.8 0 1.589 0.096 2.368 0.288 0.778 0.1813 1.472 0.4906 2.08 0.928 0.608 0.4266 1.098 1.0026 1.472 1.728 0.373 0.7253 0.56 1.6213 0.56 2.688zm-2.848 0c0-0.64-0.107-1.168-0.32-1.584-0.203-0.4267-0.48-0.7627-0.832-1.008-0.342-0.256-0.736-0.4374-1.184-0.544-0.438-0.1067-0.891-0.16-1.36-0.16h-1.36v6.624h1.296c0.49 0 0.96-0.0534 1.408-0.16 0.458-0.1174 0.858-0.304 1.2-0.56 0.352-0.256 0.629-0.5974 0.832-1.024 0.213-0.4267 0.32-0.9547 0.32-1.584zm4.662 5.696v-11.328h7.616v2.32h-4.976v2.128h4.704v2.192h-4.704v2.352h5.264v2.336h-7.904zm15.335 0h-2.736l-4.288-11.328h3.072l2.624 8.032h0.064l2.608-8.032h3.024l-4.368 11.328z" fill="#D3AF38"/>
  <rect x="39" y="24" width="80" height="8" fill="#D3AF38"/>
  <rect x="60" y="52" width="80" height="8" fill="#D3AF38"/>
  <rect x="39" y="79" width="80" height="8" fill="#D3AF38"/>
  <path d="m53 271c29.271 0 53-23.729 53-53s-23.729-53-53-53-53 23.729-53 53 23.729 53 53 53z" fill="#FAD250"/>
  <circle cx="52.834" cy="217.83" r="32.897" fill="url(#a)"/>
  <path d="m100.68 217.83c0-26.427-21.423-47.85-47.85-47.85v7.975c22.022 0 39.875 17.853 39.875 39.875h7.9749z" clip-rule="evenodd" fill="#FEF0C4" fill-rule="evenodd"/>
  <path d="m41.393 222.3c-0.5013 0.576-1.12 1.035-1.856 1.376-0.736 0.331-1.584 0.496-2.544 0.496-0.8747 0-1.6853-0.144-2.432-0.432-0.736-0.288-1.376-0.693-1.92-1.216-0.544-0.533-0.9707-1.168-1.28-1.904s-0.464-1.547-0.464-2.432c0-0.907 0.1547-1.728 0.464-2.464 0.32-0.736 0.7573-1.36 1.312-1.872 0.5547-0.523 1.2053-0.923 1.952-1.2s1.552-0.416 2.416-0.416c0.8 0 1.584 0.144 2.352 0.432 0.7787 0.277 1.408 0.688 1.888 1.232l-1.856 1.856c-0.256-0.352-0.592-0.613-1.008-0.784s-0.8427-0.256-1.28-0.256c-0.48 0-0.9227 0.091-1.328 0.272-0.3947 0.171-0.736 0.411-1.024 0.72s-0.512 0.677-0.672 1.104c-0.16 0.416-0.24 0.875-0.24 1.376 0 0.512 0.08 0.981 0.24 1.408s0.3787 0.795 0.656 1.104c0.288 0.299 0.6293 0.533 1.024 0.704s0.8267 0.256 1.296 0.256c0.544 0 1.0187-0.107 1.424-0.32s0.7307-0.491 0.976-0.832l1.904 1.792zm11.749-4.128c0 0.992-0.1866 1.851-0.56 2.576-0.3626 0.715-0.848 1.307-1.456 1.776-0.5973 0.459-1.2746 0.8-2.032 1.024-0.7573 0.213-1.5253 0.32-2.304 0.32h-4.224v-11.328h4.096c0.8 0 1.5894 0.096 2.368 0.288 0.7787 0.181 1.472 0.491 2.08 0.928 0.608 0.427 1.0987 1.003 1.472 1.728 0.3734 0.725 0.56 1.621 0.56 2.688zm-2.848 0c0-0.64-0.1066-1.168-0.32-1.584-0.2026-0.427-0.48-0.763-0.832-1.008-0.3413-0.256-0.736-0.437-1.184-0.544-0.4373-0.107-0.8906-0.16-1.36-0.16h-1.36v6.624h1.296c0.4907 0 0.96-0.053 1.408-0.16 0.4587-0.117 0.8587-0.304 1.2-0.56 0.352-0.256 0.6294-0.597 0.832-1.024 0.2134-0.427 0.32-0.955 0.32-1.584zm4.6627 5.696v-11.328h7.616v2.32h-4.976v2.128h4.704v2.192h-4.704v2.352h5.264v2.336h-7.904zm15.335 0h-2.736l-4.288-11.328h3.072l2.624 8.032h0.064l2.608-8.032h3.024l-4.368 11.328z" fill="#D3AF38"/>
  <rect transform="rotate(180 231 250)" x="231" y="250" width="80" height="8" fill="#D3AF38"/>
  <rect transform="rotate(180 210 222)" x="210" y="222" width="80" height="8" fill="#D3AF38"/>
  <rect transform="rotate(180 231 195)" x="231" y="195" width="80" height="8" fill="#D3AF38"/>
</svg>
