<?xml version="1.0" encoding="UTF-8" standalone="no"?>
<svg
   xmlns:dc="http://purl.org/dc/elements/1.1/"
   xmlns:cc="http://creativecommons.org/ns#"
   xmlns:rdf="http://www.w3.org/1999/02/22-rdf-syntax-ns#"
   xmlns:svg="http://www.w3.org/2000/svg"
   xmlns="http://www.w3.org/2000/svg"
   xmlns:sodipodi="http://sodipodi.sourceforge.net/DTD/sodipodi-0.dtd"
   xmlns:inkscape="http://www.inkscape.org/namespaces/inkscape"
   width="765"
   height="640"
   fill="none"
   version="1.1"
   id="svg76"
   sodipodi:docname="cornerShapes.svg"
   inkscape:export-filename="/Users/curtis/Projects/colony/JoinColony.github.io/static/img/cornerShapes.png"
   inkscape:export-xdpi="233.0618"
   inkscape:export-ydpi="233.0618"
   inkscape:version="0.92.2 5c3e80d, 2017-08-06">
  <metadata
     id="metadata82">
    <rdf:RDF>
      <cc:Work
         rdf:about="">
        <dc:format>image/svg+xml</dc:format>
        <dc:type
           rdf:resource="http://purl.org/dc/dcmitype/StillImage" />
      </cc:Work>
    </rdf:RDF>
  </metadata>
  <defs
     id="defs80" />
  <sodipodi:namedview
     pagecolor="#ffffff"
     bordercolor="#666666"
     borderopacity="1"
     objecttolerance="10"
     gridtolerance="10"
     guidetolerance="10"
     inkscape:pageopacity="0"
     inkscape:pageshadow="2"
     inkscape:window-width="1667"
     inkscape:window-height="1103"
     id="namedview78"
     showgrid="false"
     inkscape:zoom="1.2694776"
     inkscape:cx="247.40506"
     inkscape:cy="301.54244"
     inkscape:window-x="0"
     inkscape:window-y="0"
     inkscape:window-maximized="0"
     inkscape:current-layer="svg76" />
  <g
     fill="#E9F6FF"
     id="g74">
    <path
       d="M402.971 542.371h-17.322v17.346h17.322v-17.346zM442.624 580.075h-19.326v19.354h19.326v-19.354zM394.382 518.143c3.162 0 5.726-2.568 5.726-5.735 0-3.167-2.564-5.734-5.726-5.734-3.163 0-5.726 2.567-5.726 5.734s2.563 5.735 5.726 5.735zM442.624 464.095h-19.326v19.354h19.326v-19.354zM432.889 446.749c6.404 0 11.595-5.199 11.595-11.613 0-6.413-5.191-11.612-11.595-11.612-6.404 0-11.595 5.199-11.595 11.612 0 6.414 5.191 11.613 11.595 11.613zM6.26123 81.0006L.0866699 87.1842 6.26122 93.3679l6.17458-6.1837-6.17457-6.1836zM44.7309 119.054l-6.7819 6.792 6.7819 6.792 6.7818-6.792-6.7818-6.792zM394.382 402.163c3.162 0 5.726-2.567 5.726-5.734s-2.564-5.735-5.726-5.735c-3.163 0-5.726 2.568-5.726 5.735 0 3.167 2.563 5.734 5.726 5.734zM432.908 384.097l-12.248 12.266 12.248 12.266 12.248-12.266-12.248-12.266zM355.691 190.886l-12.248 12.266 12.248 12.266 12.248-12.266-12.248-12.266zM44.8062 60.1024c6.4039 0 11.5952-5.199 11.5952-11.6123s-5.1913-11.6123-11.5952-11.6123-11.5953 5.199-11.5953 11.6123 5.1914 11.6123 11.5953 11.6123zM83.315 36.1558L71.0671 48.4217 83.315 60.6876l12.2479-12.2659L83.315 36.1558zM432.889 214.646c6.404 0 11.595-5.199 11.595-11.612s-5.191-11.612-11.595-11.612c-6.404 0-11.595 5.199-11.595 11.612s5.191 11.612 11.595 11.612zM365.465 154.721H346.14v19.354h19.325v-19.354zM355.609 74.7986l-12.247 12.2659 12.247 12.2659 12.248-12.2659-12.248-12.2659zM394.281 112.041l-13.665 13.685 13.665 13.685 13.665-13.685-13.665-13.685zM402.971 78.3093h-17.322v17.3468h17.322V78.3093zM432.947 152.124l-12.248 12.266 12.248 12.265 12.248-12.265-12.248-12.266zM437.756 120.888h-9.591v9.605h9.591v-9.605zM432.889 98.6667c6.404 0 11.595-5.199 11.595-11.6123s-5.191-11.6123-11.595-11.6123c-6.404 0-11.595 5.199-11.595 11.6123s5.191 11.6123 11.595 11.6123zM365.465 38.7415H346.14v19.3538h19.325V38.7415zM394.381 59.959c6.404 0 11.596-5.199 11.596-11.6122 0-6.4133-5.192-11.6123-11.596-11.6123-6.403 0-11.595 5.199-11.595 11.6123 0 6.4132 5.192 11.6122 11.595 11.6122zM432.967 36.1373l-12.248 12.2659 12.248 12.2659 12.248-12.2659-12.248-12.2659zM471.456 538.848l-12.248 12.265 12.248 12.266 12.248-12.266-12.248-12.265zM471.54 595.415c3.162 0 5.726-2.568 5.726-5.735 0-3.167-2.564-5.734-5.726-5.734s-5.726 2.567-5.726 5.734 2.564 5.735 5.726 5.735zM510.128 576.09l-13.665 13.685 13.665 13.685 13.665-13.685-13.665-13.685zM514.485 546.672h-8.732v8.745h8.732v-8.745zM548.794 622.255l-6.175 6.184 6.175 6.183 6.174-6.183-6.174-6.184zM548.698 562.728c6.404 0 11.596-5.199 11.596-11.612s-5.192-11.612-11.596-11.612c-6.403 0-11.595 5.199-11.595 11.612s5.192 11.612 11.595 11.612zM471.54 479.435c3.162 0 5.726-2.567 5.726-5.734 0-3.168-2.564-5.735-5.726-5.735s-5.726 2.567-5.726 5.735c0 3.167 2.564 5.734 5.726 5.734zM510.191 524.02c6.404 0 11.595-5.199 11.595-11.612s-5.191-11.612-11.595-11.612c-6.404 0-11.595 5.199-11.595 11.612s5.191 11.612 11.595 11.612zM514.485 430.692h-8.732v8.745h8.732v-8.745zM548.801 506.274l-6.175 6.183 6.175 6.184 6.175-6.184-6.175-6.183zM558.433 464.095h-19.326v19.354h19.326v-19.354zM548.698 446.749c6.404 0 11.596-5.199 11.596-11.613 0-6.413-5.192-11.612-11.596-11.612-6.403 0-11.595 5.199-11.595 11.612 0 6.414 5.192 11.613 11.595 11.613zM121.971 68.7415L103.548 87.191l18.423 18.45 18.422-18.45-18.422-18.4495zM121.965 137.518c6.404 0 11.595-5.199 11.595-11.613 0-6.413-5.191-11.612-11.595-11.612-6.404 0-11.595 5.199-11.595 11.612 0 6.414 5.191 11.613 11.595 11.613zM160.542 119.061l-6.782 6.791 6.782 6.792 6.782-6.792-6.782-6.791zM510.191 408.041c6.404 0 11.595-5.199 11.595-11.612 0-6.414-5.191-11.613-11.595-11.613-6.404 0-11.595 5.199-11.595 11.613 0 6.413 5.191 11.612 11.595 11.612zM548.719 384.103l-12.248 12.266 12.248 12.266 12.248-12.266-12.248-12.266zM208.858 116.157h-19.326v19.354h19.326v-19.354zM199.123 110.422c12.808 0 23.191-10.398 23.191-23.2242 0-12.8266-10.383-23.2246-23.191-23.2246-12.807 0-23.19 10.398-23.19 23.2246 0 12.8262 10.383 23.2242 23.19 23.2242zM131.699 38.8849h-19.325v19.3538h19.325V38.8849zM471.502 190.893l-12.248 12.266 12.248 12.266 12.248-12.266-12.248-12.266zM510.174 228.135l-13.665 13.685 13.665 13.686 13.665-13.686-13.665-13.685zM160.616 54.2246c3.162 0 5.726-2.5674 5.726-5.7345 0-3.167-2.564-5.7345-5.726-5.7345-3.163 0-5.726 2.5675-5.726 5.7345 0 3.1671 2.563 5.7345 5.726 5.7345zM518.78 194.432h-17.321v17.347h17.321v-17.347zM199.227 42.3462l-6.175 6.1836 6.175 6.1837 6.175-6.1836-6.175-6.1837zM553.566 236.867h-9.591v9.605h9.591v-9.605zM481.274 154.721h-19.325v19.354h19.325v-19.354zM471.42 74.8052l-12.248 12.2659L471.42 99.337l12.248-12.2659-12.248-12.2659zM471.54 143.109c9.566 0 17.321-7.767 17.321-17.347 0-9.58-7.755-17.347-17.321-17.347-9.566 0-17.321 7.767-17.321 17.347 0 9.58 7.755 17.347 17.321 17.347zM510.092 112.047l-13.665 13.686 13.665 13.685 13.665-13.685-13.665-13.686zM510.191 187.694c12.808 0 23.19-10.398 23.19-23.224 0-12.827-10.382-23.225-23.19-23.225-12.808 0-23.191 10.398-23.191 23.225 0 12.826 10.383 23.224 23.191 23.224zM527.512 69.7076h-34.786v34.8374h34.786V69.7076zM548.758 152.13l-12.248 12.266 12.248 12.266 12.248-12.266-12.248-12.266zM548.698 98.6667c6.404 0 11.596-5.199 11.596-11.6123s-5.192-11.6123-11.596-11.6123c-6.403 0-11.595 5.199-11.595 11.6123s5.192 11.6123 11.595 11.6123zM481.274 38.7415h-19.325v19.3538h19.325V38.7415zM510.191 54.0812c3.162 0 5.726-2.5674 5.726-5.7344 0-3.1671-2.564-5.7345-5.726-5.7345-3.163 0-5.726 2.5674-5.726 5.7345 0 3.167 2.563 5.7344 5.726 5.7344zM548.778 36.1441L536.53 48.41l12.248 12.2659L561.026 48.41l-12.248-12.2659zM597.084 618.783h-19.326v19.353h19.326v-19.353zM587.267 538.854l-12.248 12.266 12.248 12.266 12.248-12.266-12.248-12.266zM626 634.122c3.163 0 5.726-2.567 5.726-5.734s-2.563-5.735-5.726-5.735c-3.162 0-5.726 2.568-5.726 5.735 0 3.167 2.564 5.734 5.726 5.734zM634.589 542.371h-17.321v17.346h17.321v-17.346zM664.605 622.262l-6.175 6.183 6.175 6.184 6.174-6.184-6.174-6.183zM674.242 580.075h-19.325v19.354h19.325v-19.354zM664.508 562.728c6.404 0 11.595-5.199 11.595-11.612s-5.191-11.612-11.595-11.612c-6.404 0-11.595 5.199-11.595 11.612s5.191 11.612 11.595 11.612zM597.084 502.803h-19.326v19.354h19.326v-19.354zM587.375 416.689l-18.422 18.45 18.422 18.449 18.423-18.449-18.423-18.45zM587.349 485.313c6.404 0 11.595-5.199 11.595-11.612 0-6.414-5.191-11.613-11.595-11.613-6.404 0-11.595 5.199-11.595 11.613 0 6.413 5.191 11.612 11.595 11.612zM625.946 460.115L612.281 473.8l13.665 13.685 13.665-13.685-13.665-13.685zM626 529.755c9.566 0 17.321-7.766 17.321-17.347 0-9.58-7.755-17.347-17.321-17.347-9.566 0-17.321 7.767-17.321 17.347 0 9.581 7.755 17.347 17.321 17.347zM432.889 330.769c6.404 0 11.595-5.199 11.595-11.612 0-6.414-5.191-11.613-11.595-11.613-6.404 0-11.595 5.199-11.595 11.613 0 6.413 5.191 11.612 11.595 11.612zM432.928 274.192l-6.175 6.184 6.175 6.184 6.175-6.184-6.175-6.184zM442.624 232.136h-19.326v19.354h19.326v-19.354zM471.495 306.874l-12.248 12.266 12.248 12.266 12.248-12.266-12.248-12.266zM518.78 310.412h-17.321v17.346h17.321v-17.346zM481.274 270.701h-19.325v19.353h19.325v-19.353zM471.54 253.354c6.404 0 11.595-5.199 11.595-11.612 0-6.414-5.191-11.613-11.595-11.613-6.404 0-11.595 5.199-11.595 11.613 0 6.413 5.191 11.612 11.595 11.612zM510.102 266.729l-13.665 13.685 13.665 13.686 13.664-13.686-13.664-13.685zM587.349 297.796c9.567 0 17.322-7.766 17.322-17.347 0-9.58-7.755-17.347-17.322-17.347-9.566 0-17.321 7.767-17.321 17.347 0 9.581 7.755 17.347 17.321 17.347zM634.589 426.391h-17.321v17.347h17.321v-17.347zM664.511 500.097l-12.248 12.266 12.248 12.266 12.247-12.266-12.247-12.266zM683.977 454.49h-38.651v38.708h38.651V454.49zM664.508 440.871c3.162 0 5.726-2.568 5.726-5.735 0-3.167-2.564-5.734-5.726-5.734-3.163 0-5.726 2.567-5.726 5.734s2.563 5.735 5.726 5.735z"
       id="path66" />
    <path
       d="M237.883 62.5646l-24.597 24.6332 24.597 24.6332 24.597-24.6332-24.597-24.6332zM237.774 137.518c6.404 0 11.595-5.199 11.595-11.613 0-6.413-5.191-11.612-11.595-11.612-6.404 0-11.595 5.199-11.595 11.612 0 6.414 5.191 11.613 11.595 11.613zM276.353 112.174l-13.665 13.685 13.665 13.685 13.665-13.685-13.665-13.685zM626 408.041c6.404 0 11.595-5.199 11.595-11.612 0-6.414-5.191-11.613-11.595-11.613-6.404 0-11.595 5.199-11.595 11.613 0 6.413 5.191 11.612 11.595 11.612zM285.014 78.4527h-17.321v17.3468h17.321V78.4527zM664.53 384.11l-12.248 12.266 12.248 12.266 12.248-12.266-12.248-12.266zM334.401 106.552H295.75v38.707h38.651v-38.707zM314.933 104.544c9.566 0 17.321-7.7659 17.321-17.3463 0-9.5803-7.755-17.3467-17.321-17.3467-9.567 0-17.322 7.7664-17.322 17.3467 0 9.5804 7.755 17.3463 17.322 17.3463z"
       id="path68" />
    <path
       d="M252.232 34.0106h-28.916v28.959h28.916v-28.959zM587.414 196.881l-6.174 6.183 6.174 6.184 6.175-6.184-6.175-6.183zM587.349 253.354c6.404 0 11.595-5.199 11.595-11.612 0-6.414-5.191-11.613-11.595-11.613-6.404 0-11.595 5.199-11.595 11.613 0 6.413 5.191 11.612 11.595 11.612zM276.425 60.1024c6.404 0 11.595-5.199 11.595-11.6123s-5.191-11.6123-11.595-11.6123c-6.404 0-11.595 5.199-11.595 11.6123s5.191 11.6123 11.595 11.6123zM634.589 194.432h-17.321v17.347h17.321v-17.347zM314.937 36.1693l-12.248 12.2659 12.248 12.2659 12.248-12.2659-12.248-12.2659zM674.242 232.136h-19.325v19.354h19.325v-19.354zM664.508 220.381c9.566 0 17.321-7.767 17.321-17.347 0-9.58-7.755-17.347-17.321-17.347-9.566 0-17.321 7.767-17.321 17.347 0 9.58 7.755 17.347 17.321 17.347zM597.084 154.721h-19.326v19.354h19.326v-19.354zM587.434 80.8942l-6.175 6.1837 6.175 6.1836 6.174-6.1836-6.174-6.1837zM587.349 148.987c12.808 0 23.191-10.398 23.191-23.225 0-12.827-10.383-23.225-23.191-23.225s-23.19 10.398-23.19 23.225c0 12.827 10.382 23.225 23.19 23.225zM625.903 112.054l-13.665 13.685 13.665 13.685 13.665-13.685-13.665-13.685zM626 173.215c4.823 0 8.732-3.916 8.732-8.745 0-4.83-3.909-8.745-8.732-8.745-4.823 0-8.732 3.915-8.732 8.745 0 4.829 3.909 8.745 8.732 8.745zM634.589 78.3093h-17.321v17.3468h17.321V78.3093zM664.569 152.137l-12.247 12.266 12.247 12.266 12.248-12.266-12.248-12.266zM664.55 268.124l-12.248 12.266 12.248 12.265 12.248-12.265-12.248-12.266zM678.966 111.282H650.05v28.96h28.916v-28.96zM664.508 92.7888c3.162 0 5.726-2.5674 5.726-5.7344 0-3.1671-2.564-5.7345-5.726-5.7345-3.163 0-5.726 2.5674-5.726 5.7345 0 3.167 2.563 5.7344 5.726 5.7344zM597.084 38.7415h-19.326v19.3538h19.326V38.7415zM626 65.6935c9.566 0 17.321-7.7664 17.321-17.3467C643.321 38.7664 635.566 31 626 31c-9.566 0-17.321 7.7664-17.321 17.3468 0 9.5803 7.755 17.3467 17.321 17.3467zM664.589 36.1507l-12.248 12.2658 12.248 12.2659 12.248-12.2658-12.248-12.2659zM712.893 618.783h-19.326v19.353h19.326v-19.353zM703.179 538.76l-12.248 12.266 12.248 12.265 12.248-12.265-12.248-12.266zM703.159 601.292c6.404 0 11.595-5.199 11.595-11.612s-5.191-11.612-11.595-11.612c-6.404 0-11.596 5.199-11.596 11.612s5.192 11.612 11.596 11.612zM741.75 576.103l-13.665 13.685 13.665 13.685 13.665-13.685-13.665-13.685zM741.81 640c6.404 0 11.595-5.199 11.595-11.612 0-6.414-5.191-11.613-11.595-11.613-6.404 0-11.596 5.199-11.596 11.613 0 6.413 5.192 11.612 11.596 11.612zM750.399 542.371h-17.322v17.346h17.322v-17.346zM707.883 507.534h-9.591v9.605h9.591v-9.605zM703.186 422.778l-12.248 12.266 12.248 12.266 12.248-12.266-12.248-12.266zM703.159 485.313c6.404 0 11.595-5.199 11.595-11.612 0-6.414-5.191-11.613-11.595-11.613-6.404 0-11.596 5.199-11.596 11.613 0 6.413 5.192 11.612 11.596 11.612zM741.757 453.229l-20.447 20.477 20.447 20.476 20.447-20.476-20.447-20.477zM741.81 524.02c6.404 0 11.595-5.199 11.595-11.612s-5.191-11.612-11.595-11.612c-6.404 0-11.596 5.199-11.596 11.612s5.192 11.612 11.596 11.612zM754.836 422.09h-26.053v26.092h26.053V422.09zM712.893 386.68h-19.326v19.354h19.326V386.68zM703.159 369.333c6.404 0 11.595-5.199 11.595-11.612s-5.191-11.612-11.595-11.612c-6.404 0-11.596 5.199-11.596 11.612s5.192 11.612 11.596 11.612zM741.777 344.135l-13.665 13.685 13.665 13.685 13.665-13.685-13.665-13.685zM741.809 419.653c12.808 0 23.191-10.398 23.191-23.224 0-12.827-10.383-23.225-23.191-23.225-12.807 0-23.19 10.398-23.19 23.225 0 12.826 10.383 23.224 23.19 23.224zM746.247 314.713h-8.732v8.745h8.732v-8.745zM717.617 265.97H688.7v28.959h28.917V265.97zM703.124 184.622l-18.422 18.449 18.422 18.45 18.423-18.45-18.423-18.449z"
       id="path70" />
    <path
       d="M703.159 264.966c12.807 0 23.19-10.398 23.19-23.224 0-12.827-10.383-23.225-23.19-23.225-12.808 0-23.191 10.398-23.191 23.225 0 12.826 10.383 23.224 23.191 23.224zM741.796 228.149l-13.665 13.685 13.665 13.685 13.665-13.685-13.665-13.685zM741.81 297.796c9.566 0 17.321-7.766 17.321-17.347 0-9.58-7.755-17.347-17.321-17.347-9.567 0-17.322 7.767-17.322 17.347 0 9.581 7.755 17.347 17.322 17.347zM750.399 194.432h-17.322v17.347h17.322v-17.347zM707.883 159.595h-9.591v9.606h9.591v-9.606zM703.144 74.7174l-12.248 12.2658 12.248 12.2659 12.248-12.2658-12.248-12.2659zM703.159 137.374c6.404 0 11.595-5.199 11.595-11.612s-5.191-11.612-11.595-11.612c-6.404 0-11.596 5.199-11.596 11.612s5.192 11.612 11.596 11.612zM741.715 112.061l-13.665 13.685 13.665 13.685 13.665-13.685-13.665-13.685zM741.81 176.082c6.404 0 11.595-5.199 11.595-11.612 0-6.414-5.191-11.613-11.595-11.613-6.404 0-11.596 5.199-11.596 11.613 0 6.413 5.192 11.612 11.596 11.612zM750.399 78.3093h-17.322v17.3468h17.322V78.3093zM712.893 38.7415h-19.326v19.3538h19.326V38.7415zM741.81 54.0812c3.162 0 5.726-2.5674 5.726-5.7344 0-3.1671-2.564-5.7345-5.726-5.7345-3.163 0-5.727 2.5674-5.727 5.7345 0 3.167 2.564 5.7344 5.727 5.7344zM626 324.891c3.163 0 5.726-2.567 5.726-5.734s-2.563-5.735-5.726-5.735c-3.162 0-5.726 2.568-5.726 5.735 0 3.167 2.564 5.734 5.726 5.734zM664.568 312.906l-6.174 6.183 6.174 6.184 6.175-6.184-6.175-6.183zM712.893 309.408h-19.326v19.354h19.326v-19.354zM587.4 390.567l-6.175 6.183 6.175 6.184 6.174-6.184-6.174-6.183zM664.508 402.593c3.162 0 5.726-2.567 5.726-5.734s-2.564-5.735-5.726-5.735c-3.163 0-5.726 2.568-5.726 5.735 0 3.167 2.563 5.734 5.726 5.734zM597.084 348.403h-19.326v19.353h19.326v-19.353zM626 375.498c9.566 0 17.321-7.766 17.321-17.347 0-9.58-7.755-17.347-17.321-17.347-9.566 0-17.321 7.767-17.321 17.347 0 9.581 7.755 17.347 17.321 17.347zM664.554 345.823l-12.247 12.266 12.247 12.266 12.248-12.266-12.248-12.266zM548.794 6.25511l-6.175 6.18359 6.175 6.1836 6.174-6.1836-6.174-6.18359zM597.084 2.78253h-19.326V22.1363h19.326V2.78253zM626 18.1222c3.163 0 5.726-2.5674 5.726-5.7345 0-3.16703-2.563-5.73444-5.726-5.73444-3.162 0-5.726 2.56741-5.726 5.73444 0 3.1671 2.564 5.7345 5.726 5.7345zM664.605 6.26181l-6.175 6.18359 6.175 6.1837 6.174-6.1837-6.174-6.18359zM712.893 2.78253h-19.326V22.1363h19.326V2.78253zM741.81 24c6.404 0 11.595-5.199 11.595-11.6123 0-6.41329-5.191-11.612309-11.595-11.612309-6.404 0-11.596 5.199019-11.596 11.612309C730.214 18.801 735.406 24 741.81 24z"
       id="path72" />
  </g>
</svg>
