<svg xmlns="http://www.w3.org/2000/svg" xmlns:xlink="http://www.w3.org/1999/xlink" viewBox="0 0 1440 445.03">
  <defs>
    <linearGradient id="a" x1="60.29" x2="60.29" y1="77.62" y2="374.6" gradientUnits="userSpaceOnUse">
      <stop offset="0" stop-color="#00284b"/>
      <stop offset=".2" stop-color="#042b4e"/>
      <stop offset=".39" stop-color="#103555"/>
      <stop offset=".6" stop-color="#254562"/>
      <stop offset=".8" stop-color="#415c73"/>
      <stop offset="1" stop-color="#65798a"/>
      <stop offset="1" stop-color="#66798a"/>
    </linearGradient>
    <linearGradient id="b" x1="1295.73" x2="1295.73" y1="77.62" y2="374.6" xlink:href="#a"/>
  </defs>
  <path fill="url(#b)" d="M1308.06 386.84a12.33 12.33 0 0 1-12.33 12.33 12.33 12.33 0 0 1-12.33-12.33 12.33 12.33 0 0 1 12.33-12.33 12.33 12.33 0 0 1 12.33 12.33zm56.9525.0004l13.0815-13.08147 13.0814 13.08147-13.0814 13.08148zM1203.09 376.56h20.56v20.56h-20.56zm-142.12 10.28a12.33 12.33 0 0 1-12.33 12.33 12.33 12.33 0 0 1-12.33-12.33 12.33 12.33 0 0 1 12.33-12.33 12.33 12.33 0 0 1 12.33 12.33zm56.9535-.00058l13.0815-13.08148 13.0814 13.08148-13.0814 13.08147zM956 376.56h20.56v20.56H956zm-142.12001 10.28a12.33 12.33 0 0 1-12.33 12.33 12.33 12.33 0 0 1-12.33-12.33 12.33 12.33 0 0 1 12.33-12.33 12.33 12.33 0 0 1 12.33 12.33zm56.95446-.002l13.08147-13.08147L896.9974 386.838l-13.08148 13.08148zM708.90997 376.56h20.56v20.56h-20.56zm-142.11 10.28a12.33 12.33 0 0 1-12.33 12.33 12.33 12.33 0 0 1-12.33-12.33 12.33 12.33 0 0 1 12.33-12.33 12.33 12.33 0 0 1 12.33 12.33zm56.95257.00036l13.08147-13.08147 13.08148 13.08147-13.08148 13.08148zM461.82999 376.56h20.56v20.56h-20.56zM319.71 386.84a12.33 12.33 0 0 1-12.33 12.33 12.33 12.33 0 0 1-12.33-12.33 12.33 12.33 0 0 1 12.33-12.33 12.33 12.33 0 0 1 12.33 12.33zm56.9535-.0006l13.08148-13.08148 13.08147 13.08148-13.08147 13.08147zM214.74001 376.56H235.3v20.56h-20.55999zM72.620001 386.84a12.33 12.33 0 0 1-12.33 12.33 12.33 12.33 0 0 1-12.33-12.33 12.33 12.33 0 0 1 12.33-12.33 12.33 12.33 0 0 1 12.33 12.33zm56.954489-.002l13.08147-13.08147 13.08148 13.08147-13.08148 13.08148zM1390.42 304.60999a12.33 12.33 0 0 1-12.33 12.33 12.33 12.33 0 0 1-12.33-12.33 12.33 12.33 0 0 1 12.33-12.33 12.33 12.33 0 0 1 12.33 12.33zm-104.97-10.28h20.56v20.56h-20.56zm-142.12 10.28a12.33 12.33 0 0 1-12.33 12.33 12.33 12.33 0 0 1-12.33-12.33 12.33 12.33 0 0 1 12.33-12.33 12.33 12.33 0 0 1 12.33 12.33zm56.9454.007l13.0815-13.08148 13.0814 13.08148-13.0814 13.08147zm-161.9154-10.287h20.56v20.56h-20.56zm-142.11002 10.28a12.33 12.33 0 0 1-12.33 12.33 12.33 12.33 0 0 1-12.33-12.33 12.33 12.33 0 0 1 12.33-12.33 12.33 12.33 0 0 1 12.33 12.33zm56.9435-.001l13.08147-13.08148 13.08148 13.08148-13.08148 13.08147zm-161.92346-10.279h20.56v20.56h-20.56zm-142.11 10.28a12.33 12.33 0 0 1-12.33 12.33 12.33 12.33 0 0 1-12.33-12.33 12.33 12.33 0 0 1 12.33-12.33 12.33 12.33 0 0 1 12.33 12.33zm56.94442-.002l13.08148-13.08147 13.08147 13.08147-13.08147 13.08148zM544.19 294.32999h20.56v20.56h-20.56zm-142.12001 10.28a12.33 12.33 0 0 1-12.33 12.33 12.33 12.33 0 0 1-12.33-12.33 12.33 12.33 0 0 1 12.33-12.33 12.33 12.33 0 0 1 12.33 12.33zm56.94544.007l13.08148-13.08147 13.08147 13.08147-13.08147 13.08148zm-161.91542-10.287h20.56v20.56h-20.56zm-142.12002 10.28a12.33 12.33 0 0 1-12.33 12.33 12.33 12.33 0 0 1-12.33-12.33 12.33 12.33 0 0 1 12.33-12.33 12.33 12.33 0 0 1 12.33 12.33zm56.95349-.001l13.08148-13.08147 13.08147 13.08147-13.08147 13.08148zm-161.923482-10.279h20.56v20.56h-20.56zM1367.8101 212.37h20.56v20.55999h-20.56zM1225.69 222.64999a12.33 12.33 0 0 1-12.33 12.33 12.33 12.33 0 0 1-12.33-12.33 12.33 12.33 0 0 1 12.33-12.33 12.33 12.33 0 0 1 12.33 12.33zm56.9553-.002l13.0815-13.08148 13.0815 13.08148-13.0815 13.08147zM1120.72 212.37h20.56v20.55999h-20.56zm-142.10997 10.27999a12.33 12.33 0 0 1-12.33 12.33 12.33 12.33 0 0 1-12.33-12.33 12.33 12.33 0 0 1 12.33-12.33 12.33 12.33 0 0 1 12.33 12.33zm56.94627-.003l13.0815-13.08147 13.0814 13.08147-13.0814 13.08148zM873.64001 212.37h20.56v20.55999h-20.56zM731.52 222.64999a12.33 12.33 0 0 1-12.33 12.33 12.33 12.33 0 0 1-12.33-12.33 12.33 12.33 0 0 1 12.33-12.33 12.33 12.33 0 0 1 12.33 12.33zm56.94728.006l13.08147-13.08147 13.08148 13.08147-13.08148 13.08148zM626.54999 212.37h20.56v20.55999h-20.56zm-142.11998 10.27999a12.33 12.33 0 0 1-12.33 12.33 12.33 12.33 0 0 1-12.33-12.33 12.33 12.33 0 0 1 12.33-12.33 12.33 12.33 0 0 1 12.33 12.33zm56.95531-.002l13.08147-13.08147 13.08148 13.08147-13.08148 13.08148zM379.45999 212.37h20.56v20.55999h-20.56zM237.35 222.64999a12.33 12.33 0 0 1-12.33 12.33 12.33 12.33 0 0 1-12.33-12.33 12.33 12.33 0 0 1 12.33-12.33 12.33 12.33 0 0 1 12.33 12.33zm56.94632-.003l13.08148-13.08148 13.08148 13.08148-13.08148 13.08147zM132.38 212.37h20.56v20.55999h-20.56zm-85.172689 10.27585l13.081475-13.08148 13.081476 13.08148-13.081476 13.08147zM1308.06 140.42a12.33 12.33 0 0 1-12.33 12.33 12.33 12.33 0 0 1-12.33-12.33 12.33 12.33 0 0 1 12.33-12.33 12.33 12.33 0 0 1 12.33 12.33zm56.9472-.005l13.0815-13.08148 13.0815 13.08148-13.0815 13.08148zM1203.09 130.14h20.56v20.56h-20.56zm-142.12 10.28a12.33 12.33 0 0 1-12.33 12.33 12.33 12.33 0 0 1-12.33-12.33 12.33 12.33 0 0 1 12.33-12.33 12.33 12.33 0 0 1 12.33 12.33zm56.9482.004l13.0815-13.08147 13.0815 13.08147-13.0815 13.08148zM956 130.14h20.56v20.56H956zm-142.12001 10.28a12.33 12.33 0 0 1-12.33 12.33 12.33 12.33 0 0 1-12.33-12.33 12.33 12.33 0 0 1 12.33-12.33 12.33 12.33 0 0 1 12.33 12.33zm56.9492.003l13.08148-13.08147 13.08147 13.08147-13.08147 13.08148zM708.90997 130.14h20.56v20.56h-20.56zm-142.11 10.28a12.33 12.33 0 0 1-12.33 12.33 12.33 12.33 0 0 1-12.33-12.33 12.33 12.33 0 0 1 12.33-12.33 12.33 12.33 0 0 1 12.33 12.33zm56.94731-.005l13.08148-13.08148 13.08148 13.08148-13.08148 13.08147zM461.82999 130.14h20.56v20.56h-20.56zM319.71 140.42a12.33 12.33 0 0 1-12.33 12.33 12.33 12.33 0 0 1-12.33-12.33 12.33 12.33 0 0 1 12.33-12.33 12.33 12.33 0 0 1 12.33 12.33zm56.94825.004l13.08147-13.08147L402.8212 140.424l-13.08148 13.08148zM214.74001 130.14H235.3v20.56h-20.55999zM72.620001 140.42a12.33 12.33 0 0 1-12.33 12.33 12.33 12.33 0 0 1-12.33-12.33 12.33 12.33 0 0 1 12.33-12.33 12.33 12.33 0 0 1 12.33 12.33zm56.949229.003l13.08148-13.08148 13.08147 13.08148-13.08147 13.08147zM1390.42 58.189999a12.33 12.33 0 0 1-12.33 12.33 12.33 12.33 0 0 1-12.33-12.33 12.33 12.33 0 0 1 12.33-12.33 12.33 12.33 0 0 1 12.33 12.33zM1285.45 47.91h20.56v20.559999h-20.56zm-142.12 10.279999a12.33 12.33 0 0 1-12.33 12.33 12.33 12.33 0 0 1-12.33-12.33 12.33 12.33 0 0 1 12.33-12.33 12.33 12.33 0 0 1 12.33 12.33zm56.9502.0015l13.0814-13.081476 13.0815 13.081476-13.0815 13.081475zM1038.36 47.91h20.56v20.559999h-20.56zM896.24998 58.189999a12.33 12.33 0 0 1-12.33 12.33 12.33 12.33 0 0 1-12.33-12.33 12.33 12.33 0 0 1 12.33-12.33 12.33 12.33 0 0 1 12.33 12.33zm56.94825.0034l13.08147-13.081475 13.08148 13.081475-13.08148 13.081476zM791.27002 47.91h20.56v20.559999h-20.56zm-142.11 10.279999a12.33 12.33 0 0 1-12.33 12.33 12.33 12.33 0 0 1-12.33-12.33 12.33 12.33 0 0 1 12.33-12.33 12.33 12.33 0 0 1 12.33 12.33zm56.94917.0024l13.08148-13.081476 13.08147 13.081476-13.08147 13.081475zM544.19 47.91h20.56v20.559999h-20.56zM402.06999 58.189999a12.33 12.33 0 0 1-12.33 12.33 12.33 12.33 0 0 1-12.33-12.33 12.33 12.33 0 0 1 12.33-12.33 12.33 12.33 0 0 1 12.33 12.33zm56.9502.0014l13.08147-13.081475 13.08148 13.081475L472.10166 71.2729zM297.10001 47.91h20.56v20.559999h-20.56zM154.97999 58.189999a12.33 12.33 0 0 1-12.33 12.33 12.33 12.33 0 0 1-12.33-12.33 12.33 12.33 0 0 1 12.33-12.33 12.33 12.33 0 0 1 12.33 12.33zm56.95825.0034L225.01971 45.1119l13.08148 13.081475-13.08148 13.081475zM50.009998 47.91h20.56v20.559999h-20.56z" data-name="Layer 2"/>
</svg>
