<svg width="270" height="271" viewBox="0 0 270 271" fill="none" xmlns="http://www.w3.org/2000/svg">
  <path d="M217 106C246.271 106 270 82.2711 270 53C270 23.7289 246.271 0 217 0C187.729 0 164 23.7289 164 53C164 82.2711 187.729 106 217 106Z" fill="#FAD250"/>
  <circle cx="216.834" cy="52.8341" r="32.8966" fill="url(#paint0_linear)"/>
  <path fill-rule="evenodd" clip-rule="evenodd" d="M264.683 52.8339C264.683 26.4073 243.26 4.98438 216.833 4.98438V12.9592C238.856 12.9593 256.708 30.8117 256.708 52.8339C256.708 52.8339 256.708 52.8339 256.708 52.8339H264.683Z" fill="#FEF0C4"/>
  <path d="M206.39 57.3002C205.889 57.8762 205.27 58.3348 204.534 58.6762C203.798 59.0068 202.95 59.1722 201.99 59.1722C201.116 59.1722 200.305 59.0282 199.558 58.7402C198.822 58.4522 198.182 58.0468 197.638 57.5242C197.094 56.9908 196.668 56.3562 196.358 55.6202C196.049 54.8842 195.894 54.0735 195.894 53.1882C195.894 52.2815 196.049 51.4602 196.358 50.7242C196.678 49.9882 197.116 49.3642 197.67 48.8522C198.225 48.3295 198.876 47.9295 199.622 47.6522C200.369 47.3748 201.174 47.2362 202.038 47.2362C202.838 47.2362 203.622 47.3802 204.39 47.6682C205.169 47.9455 205.798 48.3562 206.278 48.9002L204.422 50.7562C204.166 50.4042 203.83 50.1428 203.414 49.9722C202.998 49.8015 202.572 49.7162 202.134 49.7162C201.654 49.7162 201.212 49.8068 200.806 49.9882C200.412 50.1588 200.07 50.3988 199.782 50.7082C199.494 51.0175 199.27 51.3855 199.11 51.8122C198.95 52.2282 198.87 52.6868 198.87 53.1882C198.87 53.7002 198.95 54.1695 199.11 54.5962C199.27 55.0228 199.489 55.3908 199.766 55.7002C200.054 55.9988 200.396 56.2335 200.79 56.4042C201.185 56.5748 201.617 56.6602 202.086 56.6602C202.63 56.6602 203.105 56.5535 203.51 56.3402C203.916 56.1268 204.241 55.8495 204.486 55.5082L206.39 57.3002ZM218.139 53.1722C218.139 54.1642 217.952 55.0228 217.579 55.7482C217.216 56.4628 216.731 57.0548 216.123 57.5242C215.525 57.9828 214.848 58.3242 214.091 58.5482C213.333 58.7615 212.565 58.8682 211.787 58.8682H207.563V47.5402H211.659C212.459 47.5402 213.248 47.6362 214.027 47.8282C214.805 48.0095 215.499 48.3188 216.107 48.7562C216.715 49.1828 217.205 49.7588 217.579 50.4842C217.952 51.2095 218.139 52.1055 218.139 53.1722ZM215.291 53.1722C215.291 52.5322 215.184 52.0042 214.971 51.5882C214.768 51.1615 214.491 50.8255 214.139 50.5802C213.797 50.3242 213.403 50.1428 212.955 50.0362C212.517 49.9295 212.064 49.8762 211.595 49.8762H210.235V56.5002H211.531C212.021 56.5002 212.491 56.4468 212.939 56.3402C213.397 56.2228 213.797 56.0362 214.139 55.7802C214.491 55.5242 214.768 55.1828 214.971 54.7562C215.184 54.3295 215.291 53.8015 215.291 53.1722ZM219.953 58.8682V47.5402H227.569V49.8602H222.593V51.9882H227.297V54.1802H222.593V56.5322H227.857V58.8682H219.953ZM235.288 58.8682H232.552L228.264 47.5402H231.336L233.96 55.5722H234.024L236.632 47.5402H239.656L235.288 58.8682Z" fill="#D3AF38"/>
  <rect x="39" y="24" width="80" height="8" fill="#D3AF38"/>
  <rect x="60" y="52" width="80" height="8" fill="#D3AF38"/>
  <rect x="39" y="79" width="80" height="8" fill="#D3AF38"/>
  <path d="M53 271C82.2711 271 106 247.271 106 218C106 188.729 82.2711 165 53 165C23.7289 165 0 188.729 0 218C0 247.271 23.7289 271 53 271Z" fill="#FAD250"/>
  <circle cx="52.8341" cy="217.834" r="32.8966" fill="url(#paint1_linear)"/>
  <path fill-rule="evenodd" clip-rule="evenodd" d="M100.683 217.834C100.683 191.407 79.2601 169.984 52.8335 169.984V177.959C74.8556 177.959 92.7081 195.812 92.7081 217.834C92.7081 217.834 92.7081 217.834 92.7081 217.834H100.683Z" fill="#FEF0C4"/>
  <path d="M41.3931 222.3C40.8918 222.876 40.2731 223.335 39.5371 223.676C38.8011 224.007 37.9531 224.172 36.9931 224.172C36.1184 224.172 35.3078 224.028 34.5611 223.74C33.8251 223.452 33.1851 223.047 32.6411 222.524C32.0971 221.991 31.6704 221.356 31.3611 220.62C31.0518 219.884 30.8971 219.073 30.8971 218.188C30.8971 217.281 31.0518 216.46 31.3611 215.724C31.6811 214.988 32.1184 214.364 32.6731 213.852C33.2278 213.329 33.8784 212.929 34.6251 212.652C35.3718 212.375 36.1771 212.236 37.0411 212.236C37.8411 212.236 38.6251 212.38 39.3931 212.668C40.1718 212.945 40.8011 213.356 41.2811 213.9L39.4251 215.756C39.1691 215.404 38.8331 215.143 38.4171 214.972C38.0011 214.801 37.5744 214.716 37.1371 214.716C36.6571 214.716 36.2144 214.807 35.8091 214.988C35.4144 215.159 35.0731 215.399 34.7851 215.708C34.4971 216.017 34.2731 216.385 34.1131 216.812C33.9531 217.228 33.8731 217.687 33.8731 218.188C33.8731 218.7 33.9531 219.169 34.1131 219.596C34.2731 220.023 34.4918 220.391 34.7691 220.7C35.0571 220.999 35.3984 221.233 35.7931 221.404C36.1878 221.575 36.6198 221.66 37.0891 221.66C37.6331 221.66 38.1078 221.553 38.5131 221.34C38.9184 221.127 39.2438 220.849 39.4891 220.508L41.3931 222.3ZM53.1417 218.172C53.1417 219.164 52.9551 220.023 52.5817 220.748C52.2191 221.463 51.7337 222.055 51.1257 222.524C50.5284 222.983 49.8511 223.324 49.0937 223.548C48.3364 223.761 47.5684 223.868 46.7897 223.868H42.5657V212.54H46.6617C47.4617 212.54 48.2511 212.636 49.0297 212.828C49.8084 213.009 50.5017 213.319 51.1097 213.756C51.7177 214.183 52.2084 214.759 52.5817 215.484C52.9551 216.209 53.1417 217.105 53.1417 218.172ZM50.2937 218.172C50.2937 217.532 50.1871 217.004 49.9737 216.588C49.7711 216.161 49.4937 215.825 49.1417 215.58C48.8004 215.324 48.4057 215.143 47.9577 215.036C47.5204 214.929 47.0671 214.876 46.5977 214.876H45.2377V221.5H46.5337C47.0244 221.5 47.4937 221.447 47.9417 221.34C48.4004 221.223 48.8004 221.036 49.1417 220.78C49.4937 220.524 49.7711 220.183 49.9737 219.756C50.1871 219.329 50.2937 218.801 50.2937 218.172ZM54.9564 223.868V212.54H62.5724V214.86H57.5964V216.988H62.3004V219.18H57.5964V221.532H62.8604V223.868H54.9564ZM70.2911 223.868H67.5551L63.2671 212.54H66.3391L68.9631 220.572H69.0271L71.6351 212.54H74.6591L70.2911 223.868Z" fill="#D3AF38"/>
  <rect x="231" y="250" width="80" height="8" transform="rotate(-180 231 250)" fill="#D3AF38"/>
  <rect x="210" y="222" width="80" height="8" transform="rotate(-180 210 222)" fill="#D3AF38"/>
  <rect x="231" y="195" width="80" height="8" transform="rotate(-180 231 195)" fill="#D3AF38"/>
  <defs>
    <linearGradient id="paint0_linear" x1="216.834" y1="19.9375" x2="216.834" y2="85.7306" gradientUnits="userSpaceOnUse">
      <stop stop-color="#E6BE3E"/>
      <stop offset="1" stop-color="#E6BE3E" stop-opacity="0"/>
    </linearGradient>
    <linearGradient id="paint1_linear" x1="52.8341" y1="184.938" x2="52.8341" y2="250.731" gradientUnits="userSpaceOnUse">
      <stop stop-color="#E6BE3E"/>
      <stop offset="1" stop-color="#E6BE3E" stop-opacity="0"/>
    </linearGradient>
  </defs>
</svg>
