<svg id="divider" xmlns="http://www.w3.org/2000/svg" width="39" height="16" fill="none">
  <g fill="#00284B" clip-path="url(#clip0)">
    <path d="M34.0676 12.987c2.7243 0 4.9328-2.2327 4.9328-4.987 0-2.75425-2.2085-4.98701-4.9328-4.98701-2.7243 0-4.9328 2.23276-4.9328 4.98701 0 2.7543 2.2085 4.987 4.9328 4.987zM4.93281 12.987c2.72431 0 4.9328-2.2327 4.9328-4.987 0-2.75425-2.20849-4.98701-4.9328-4.98701C2.20849 3.01299 0 5.24575 0 8c0 2.7543 2.20849 4.987 4.93281 4.987zM19.5222-.00090327L11.6016 8.00677l7.9206 8.00773 7.9206-8.00773-7.9206-8.00767327z"/>
  </g>
  <defs>
    <clipPath id="clip0">
      <path fill="#fff" d="M0 0h39v16H0z"/>
    </clipPath>
  </defs>
</svg>
