<svg xmlns="http://www.w3.org/2000/svg" width="608" height="847" fill="none">
  <path fill="#00284b" d="M0 0h608v847H0V0z"/>
  <path fill="#ffbbdc" d="M420.5 472L233.00002 284.50002c62.5-62.49999 124.99999-124.99998 187.49998-187.499973C482.99999 159.50004 545.49998 222.00003 607.99998 284.50002L420.5 472z"/>
  <path fill="#289bdc" d="M233 659.5c-4.6168-121.59251 128.22416-219.3216 242.91004-179.12559 117.44844 31.54542 171.76426 187.27471 99.34039 284.99605-64.84669 102.92115-229.65962 108.75767-301.62423 10.68141C247.45621 743.24692 232.8956 701.45869 233 659.5z"/>
  <path fill="#021c2b" d="M233 472H0V97h233v375z"/>
  <path fill="#fad250" d="M233 847H0V472h233v375z"/>
</svg>
