<svg id="logomark_solidityCoverage" viewBox="0 0 56 56"
  xmlns="http://www.w3.org/2000/svg">
  <path d="M37.4271 27.048L28.9286 18.536L37.4271 10.08L45.9256 18.592L37.4271 27.048ZM37.4271 45.808L28.9286 37.352L37.4271 28.84L45.9256 37.352L37.4271 45.808ZM18.5166 27.048L10.0744 18.536L18.5166 10.08L27.0151 18.536L18.5166 27.048ZM18.5166 45.92L10.0744 37.408L18.5729 28.896L27.0151 37.408L18.5166 45.92ZM27.9719 0C12.5508 0 0 12.544 0 28C0 43.456 12.5508 56 27.9719 56C43.4492 56 56 43.456 56 28C56 12.544 43.4492 0 27.9719 0Z" />
</svg>
