<svg id="logomark_trufflePig" viewBox="0 0 58 70"
  xmlns="http://www.w3.org/2000/svg">
  <path d="M28.8304 11.4966C23.8784 11.5646 19.1977 12.8571 15.1275 15.102L0 0V40.7483C0 56.8027 12.8889 69.7959 28.8304 70H29.1696C45.1111 69.7959 57.9322 56.8027 57.9322 40.7483V0L42.8725 15.1701C38.8023 12.9252 34.1895 11.5646 29.2374 11.5646H28.8304V11.4966ZM29.1696 58.3673C29.0339 58.3673 28.8982 58.3673 28.7626 58.3673C22.6573 58.3673 17.7053 53.4014 17.7053 47.2789C17.7053 41.1565 22.6573 36.1905 28.7626 36.1905C28.8982 36.1905 29.0339 36.1905 29.1696 36.1905C35.0713 36.3946 39.8199 41.2925 39.8199 47.2789C39.8877 53.2653 35.1392 58.1633 29.1696 58.3673Z" />
</svg>
