<svg id="social_ghost_devPortal" xmlns="http://www.w3.org/2000/svg" viewBox="0 0 50 50">
  <title>
    Ghost
  </title>
  <path d="M33.48 12.66h2.55c.64264 0 1.16.51736 1.16 1.16v2.61c0 .64264-.51736 1.16-1.16 1.16h-2.55c-.64264 0-1.16-.51736-1.16-1.16v-2.61c0-.64264.51736-1.16 1.16-1.16zm-19.52 0h12.31c.64264 0 1.16.51736 1.16 1.16v2.61c0 .64264-.51736 1.16-1.16 1.16H13.96c-.64264 0-1.16-.51736-1.16-1.16v-2.61c0-.64264.51736-1.16 1.16-1.16zm0 9.880001h22.07c.64264 0 1.16.51736 1.16 1.16v2.61c0 .64264-.51736 1.16-1.16 1.16H13.96c-.64264 0-1.16-.51736-1.16-1.16v-2.61c0-.64264.51736-1.16 1.16-1.16zm14.650001 9.849998h7.43c.64264 0 1.16.51736 1.16 1.16v2.61c0 .64264-.51736 1.16-1.16 1.16h-7.43c-.64264 0-1.16-.51736-1.16-1.16v-2.61c0-.64264.51736-1.16 1.16-1.16zm-14.650001 0h7.43c.64264 0 1.16.51736 1.16 1.16v2.61c0 .64264-.51736 1.16-1.16 1.16h-7.43c-.64264 0-1.16-.51736-1.16-1.16v-2.61c0-.64264.51736-1.16 1.16-1.16zM25 0a25 25 0 1 0 25 25A25 25 0 0 0 25 0z" data-name="Layer 1-2"/>
</svg>
