<svg id="social_github_devPortal" xmlns="http://www.w3.org/2000/svg" viewBox="0 0 50 50">
  <title>
    GitHub
  </title>
  <path fill-rule="evenodd" d="M25 0C11.19 0 0 11.48 0 25.63A25.59 25.59 0 0 0 17.1 50c1.25.23 1.7-.56 1.7-1.24V44.4c-6.95 1.55-8.42-3.44-8.42-3.44-1.14-3-2.78-3.74-2.78-3.74-2.27-1.6.17-1.56.17-1.56a5.26 5.26 0 0 1 3.83 2.64c2.23 3.92 5.86 2.78 7.28 2.13A5.51 5.51 0 0 1 20.44 37c-5.55-.65-11.39-2.84-11.39-12.67a10.06 10.06 0 0 1 2.57-6.88 9.47 9.47 0 0 1 .25-6.78s2.1-.69 6.87 2.63a23.21 23.21 0 0 1 12.52 0c4.77-3.32 6.87-2.63 6.87-2.63a9.47 9.47 0 0 1 .25 6.78A10.06 10.06 0 0 1 41 24.29c0 9.85-5.85 12-11.42 12.65a6.2 6.2 0 0 1 1.7 4.75v7c0 .81.45 1.48 1.72 1.23a25.59 25.59 0 0 0 17-24.29C50 11.48 38.81 0 25 0z"/>
</svg>
