<svg id="social_medium" version="1.1" xmlns="http://www.w3.org/2000/svg" xmlns:xlink="http://www.w3.org/1999/xlink" viewBox="0 0 30 30">
  <title>social_medium</title>
  <path d="M15,1A14,14,0,1,0,29,15,14,14,0,0,0,15,1Z" style="fill:evenodd"/>
  <path d="M8.9,11.24a.63.63,0,0,0-.2-.52L7.2,8.92V8.65h4.64l3.59,7.86,3.15-7.86H23v.27l-1.28,1.22a.38.38,0,0,0-.14.36v9a.38.38,0,0,0,.14.36L23,21.08v.27H16.7v-.27L18,19.83c.12-.13.12-.17.12-.36V12.2l-3.59,9.12H14L9.85,12.2v6.11a.85.85,0,0,0,.23.7l1.69,2v.27H7v-.27l1.68-2a.81.81,0,0,0,.22-.7Z" style="fill:currentColor"/>
</svg>
