<svg id="social_twitter" version="1.1" xmlns="http://www.w3.org/2000/svg" xmlns:xlink="http://www.w3.org/1999/xlink" viewBox="0 0 30 30">
  <title>Twitter</title>
  <path style="fill-rule:evenodd" d="M15 29c7.7 0 14-6.3 14-14c0-7.7-6.3-14-14-14C7.3 1 1 7.3 1 15C1 22.7 7.3 29 15 29"/>
  <path style="fill:currentColor" d="M22 11.3c-0.5 0.2-1.1 0.4-1.7 0.5c0.6-0.4 1.1-0.9 1.3-1.6c-0.6 0.3-1.2 0.6-1.8 0.7 c-0.5-0.6-1.3-0.9-2.1-0.9c-1.6 0-2.9 1.3-2.9 2.9c0 0.2 0 0.4 0.1 0.7c-2.4-0.1-4.5-1.3-5.9-3c-0.2 0.4-0.4 0.9-0.4 1.4 c0 1 0.5 1.9 1.3 2.4c-0.5 0-0.9-0.1-1.3-0.4v0c0 1.4 1 2.6 2.3 2.8c-0.2 0.1-0.5 0.1-0.8 0.1c-0.2 0-0.4 0-0.5-0.1 c0.4 1.1 1.4 2 2.7 2c-1 0.8-2.2 1.2-3.6 1.2c-0.2 0-0.5 0-0.7 0c1.3 0.8 2.8 1.3 4.4 1.3c5.3 0 8.2-4.4 8.2-8.2 c0-0.1 0-0.2 0-0.4C21.2 12.4 21.6 11.9 22 11.3"/>
</svg>
