<svg
  id="social_discord"
  xmlns="http://www.w3.org/2000/svg" viewBox="0 0 50 50">
  <title>social_discord</title>
  <g id="Layer_1" data-name="Layer 1">
    <g id="Layer_1-2" data-name="Layer 1-2">
      <path d="M23,26.51a2.5,2.5,0,0,1-2.4,2.6,2.61,2.61,0,1,1,2.4-2.6Z" />
      <path d="M31.58,26.51a2.41,2.41,0,1,1-2.4-2.61A2.5,2.5,0,0,1,31.58,26.51Z" />
      <path d="M25,0A25,25,0,1,0,50,25,25,25,0,0,0,25,0Zm6.53,34.87s-.84-1-1.55-1.9a7.47,7.47,0,0,0,4.25-2.79,13.83,13.83,0,0,1-2.7,1.38,15.78,15.78,0,0,1-3.41,1,16.53,16.53,0,0,1-6.09,0,20.64,20.64,0,0,1-3.46-1,16,16,0,0,1-1.71-.8l-.21-.12-.1-.07-.64-.39A7.33,7.33,0,0,0,20,32.92c-.7.9-1.57,1.95-1.57,1.95-5.2-.16-7.17-3.57-7.17-3.57a31.55,31.55,0,0,1,3.38-13.71,11.58,11.58,0,0,1,6.61-2.46l.23.28a16.23,16.23,0,0,0-6.16,3.06c.11,0,.6-.31,1.37-.66A17.13,17.13,0,0,1,22,16.33a1.83,1.83,0,0,1,.4,0,19.7,19.7,0,0,1,4.75-.05,19.32,19.32,0,0,1,7.07,2.25,16,16,0,0,0-5.85-3l.33-.37a11.58,11.58,0,0,1,6.61,2.46A31.48,31.48,0,0,1,38.73,31.3S36.73,34.71,31.53,34.87Z" />
    </g>
  </g>
</svg>
