<svg id="social_twitter_devPortal" xmlns="http://www.w3.org/2000/svg" viewBox="0 0 49.99 50.01">
  <title>
    Twitter
  </title>
  <path d="M25 0a25 25 0 1 0 25 25A25 25 0 0 0 25 0zm12.54 20.31v.73c0 7.49-5.69 16.12-16.12 16.12a16 16 0 0 1-8.68-2.54 12 12 0 0 0 1.35.07 11.35 11.35 0 0 0 7-2.42 5.68 5.68 0 0 1-5.29-3.93 6.35 6.35 0 0 0 1.07.09 5.21 5.21 0 0 0 1.49-.2 5.66 5.66 0 0 1-4.54-5.55v-.06a5.83 5.83 0 0 0 2.57.7 5.66 5.66 0 0 1-1.76-7.57 16 16 0 0 0 11.68 5.92 5.47 5.47 0 0 1-.15-1.28 5.67 5.67 0 0 1 5.67-5.67A5.61 5.61 0 0 1 36 16.51a11.4 11.4 0 0 0 3.59-1.38 5.57 5.57 0 0 1-2.48 3.13 11.25 11.25 0 0 0 3.26-.89 11.81 11.81 0 0 1-2.83 2.94z"/>
</svg>
