<svg
  xmlns="http://www.w3.org/2000/svg" viewBox="0 0 600 600">
  <g id="Layer_5" data-name="Layer 5">
    <line x1="298.3" y1="101.57" x2="298.3" y2="299.49" style="fill:none;stroke:#c8d2dc;stroke-miterlimit:10;stroke-width:2px"/>
    <line x1="298.3" y1="101.57" x2="298.3" y2="299.49" style="fill:none;stroke:#c8d2dc;stroke-miterlimit:10;stroke-width:2px"/>
    <line x1="298.3" y1="299.49" x2="298.3" y2="101.57" style="fill:none;stroke:#c8d2dc;stroke-miterlimit:10;stroke-width:2px"/>
    <line x1="298.3" y1="299.49" x2="298.3" y2="101.57" style="fill:none;stroke:#c8d2dc;stroke-miterlimit:10;stroke-width:2px"/>
    <line x1="298.3" y1="299.49" x2="298.3" y2="101.57" style="fill:none;stroke:#c8d2dc;stroke-miterlimit:10;stroke-width:2px"/>
    <line x1="298.3" y1="299.49" x2="199.34" y2="128.09" style="fill:none;stroke:#c8d2dc;stroke-miterlimit:10;stroke-width:2px"/>
    <line x1="298.3" y1="299.49" x2="126.9" y2="200.53" style="fill:none;stroke:#c8d2dc;stroke-miterlimit:10;stroke-width:2px"/>
    <line x1="298.3" y1="299.49" x2="100.39" y2="299.49" style="fill:none;stroke:#c8d2dc;stroke-miterlimit:10;stroke-width:2px"/>
    <line x1="100.39" y1="299.49" x2="298.3" y2="299.49" style="fill:none;stroke:#c8d2dc;stroke-miterlimit:10;stroke-width:2px"/>
    <line x1="100.39" y1="299.49" x2="298.3" y2="299.49" style="fill:none;stroke:#c8d2dc;stroke-miterlimit:10;stroke-width:2px"/>
    <line x1="298.3" y1="299.49" x2="100.39" y2="299.49" style="fill:none;stroke:#c8d2dc;stroke-miterlimit:10;stroke-width:2px"/>
    <line x1="298.3" y1="299.49" x2="100.39" y2="299.49" style="fill:none;stroke:#c8d2dc;stroke-miterlimit:10;stroke-width:2px"/>
    <line x1="298.3" y1="299.49" x2="126.9" y2="398.45" style="fill:none;stroke:#c8d2dc;stroke-miterlimit:10;stroke-width:2px"/>
    <line x1="298.3" y1="299.49" x2="199.34" y2="470.89" style="fill:none;stroke:#c8d2dc;stroke-miterlimit:10;stroke-width:2px"/>
    <line x1="298.07" y1="299.49" x2="397.03" y2="470.89" style="fill:none;stroke:#c8d2dc;stroke-miterlimit:10;stroke-width:2px"/>
    <line x1="298.07" y1="299.49" x2="469.47" y2="398.45" style="fill:none;stroke:#c8d2dc;stroke-miterlimit:10;stroke-width:2px"/>
    <line x1="298.07" y1="299.49" x2="495.99" y2="299.49" style="fill:none;stroke:#c8d2dc;stroke-miterlimit:10;stroke-width:2px"/>
    <line x1="495.99" y1="299.49" x2="298.07" y2="299.49" style="fill:none;stroke:#c8d2dc;stroke-miterlimit:10;stroke-width:2px"/>
    <line x1="495.99" y1="299.49" x2="298.07" y2="299.49" style="fill:none;stroke:#c8d2dc;stroke-miterlimit:10;stroke-width:2px"/>
    <line x1="298.07" y1="299.49" x2="495.99" y2="299.49" style="fill:none;stroke:#c8d2dc;stroke-miterlimit:10;stroke-width:2px"/>
    <line x1="298.07" y1="299.49" x2="495.99" y2="299.49" style="fill:none;stroke:#c8d2dc;stroke-miterlimit:10;stroke-width:2px"/>
    <line x1="298.07" y1="299.49" x2="469.47" y2="200.53" style="fill:none;stroke:#c8d2dc;stroke-miterlimit:10;stroke-width:2px"/>
    <line x1="298.07" y1="299.49" x2="397.03" y2="128.09" style="fill:none;stroke:#c8d2dc;stroke-miterlimit:10;stroke-width:2px"/>
    <line x1="298.3" y1="299.49" x2="298.3" y2="497.41" style="fill:none;stroke:#c8d2dc;stroke-miterlimit:10;stroke-width:2px"/>
    <circle cx="199.34" cy="470.89" r="10.53" style="fill:#00284b"/>
    <circle cx="190.54" cy="457.71" r="6.49" style="fill:#289bdc"/>
    <path d="M188.82,470.89a10.53,10.53,0,0,1,21.05,0Z" style="fill:#289bdc"/>
    <circle cx="206.82" cy="299.77" r="10.53" style="fill:#00284b"/>
    <circle cx="198.01" cy="286.58" r="6.49" style="fill:#ffbbdc"/>
    <path d="M196.29,299.77a10.53,10.53,0,1,1,21.05,0Z" style="fill:#ffbbdc"/>
    <path d="M387.84,125.34a10.51,10.51,0,1,0,.59-3.48A10.52,10.52,0,0,0,387.84,125.34Z" style="fill:#ffbbdc"/>
    <path d="M387.84,124.44v1.48h1.74a2.59,2.59,0,0,0,2.59-2.58v-3.41a1.46,1.46,0,0,1,1.46-1.46h.26a10.6,10.6,0,0,0,14,2.32h0a2.93,2.93,0,0,0,1.46-2.88h-3.52a10.62,10.62,0,0,0-7-3.1h-.48a10.58,10.58,0,0,0-5.73,1.68l-.48.34a9.54,9.54,0,0,0-1.19,1A10.57,10.57,0,0,0,387.84,124.44Z" style="fill:#289bdc"/>
    <circle cx="100.39" cy="303.69" r="10.53" style="fill:#fad250"/>
    <path d="M105.31,288.8c0,3.59-3.84,7.84-7.64,4.75a6,6,0,0,1-2-3.13c-1-3.82,1.48-5.65,4.7-5.65C103.11,284.77,105.31,286.08,105.31,288.8Z" style="fill:#289bdc"/>
    <path d="M89.86,303.69a10.53,10.53,0,1,1,21,0Z" style="fill:#289bdc"/>
    <circle cx="298.3" cy="299.88" r="10.53" style="fill:#289bdc"/>
    <path d="M303.23,285c0,3.6-3.85,7.85-7.65,4.75a6,6,0,0,1-2-3.13c-1-3.82,1.49-5.65,4.7-5.65C301,281,303.23,282.27,303.23,285Z" style="fill:#00284b"/>
    <path d="M287.78,299.88a10.53,10.53,0,0,1,21.05,0Z" style="fill:#00284b"/>
    <polygon points="208.7 123.74 198.77 117.56 198.77 138.62 215.44 138.62 208.7 123.74" style="fill:#289bdc"/>
    <polygon points="189.55 123.74 199.49 117.56 199.49 138.62 182.81 138.62 189.55 123.74" style="fill:#289bdc"/>
    <circle cx="199.12" cy="128.09" r="10.53" style="fill:#00284b"/>
    <path d="M188.59,128.09a10.53,10.53,0,0,1,10.53-10.53c.29,0,.58,0,.86,0,6.59.53,6,10.49-.64,10.49Z" style="fill:#289bdc"/>
    <path d="M473.39,392.61l6.29,0a5.9,5.9,0,1,1,0,11.79h-6.33Z" style="fill:#289bdc"/>
    <circle cx="469.31" cy="398.84" r="10.18" style="fill:#fad250"/>
    <path d="M479.7,398.84c0-.49,0-1.38-.1-1.86a10.29,10.29,0,0,0-20.33-.21,15.65,15.65,0,0,0-.13,2.07h3.05a6.31,6.31,0,0,0,4.9-2.31l1.62-1.95,1.4,1.8a6.38,6.38,0,0,0,5,2.46Z" style="fill:#289bdc"/>
    <path d="M394.19,293.82l6.29,0a5.9,5.9,0,1,1,0,11.79h-6.33Z" style="fill:#f5416e"/>
    <circle cx="390.12" cy="300.05" r="10.18" style="fill:#fad250"/>
    <path d="M400.5,300.05c0-.49,0-1.38-.1-1.86a10.29,10.29,0,0,0-20.33-.21,15.65,15.65,0,0,0-.13,2.07H383a6.31,6.31,0,0,0,4.9-2.31l1.63-2,1.39,1.81a6.38,6.38,0,0,0,5,2.46Z" style="fill:#f5416e"/>
    <circle cx="397.03" cy="472.51" r="10.53" style="fill:#ffbbdc"/>
    <path d="M386.5,472.51a10.53,10.53,0,0,1,21.06,0" style="fill:#00284b"/>
    <rect x="386.37" y="468.98" width="21.33" height="3.82" style="fill:#289bdc"/>
    <circle cx="298.07" cy="208.56" r="10.53" style="fill:#ffbbdc"/>
    <path d="M287.54,208.56a10.53,10.53,0,0,1,21.06,0" style="fill:#00284b"/>
    <rect x="287.41" y="205.04" width="21.33" height="3.82" style="fill:#289bdc"/>
    <circle cx="126.14" cy="399.76" r="10.53" style="fill:#ffbbdc"/>
    <path d="M115.62,399.76a10.53,10.53,0,0,1,21,0" style="fill:#00284b"/>
    <rect x="115.48" y="396.24" width="21.33" height="3.82" style="fill:#289bdc"/>
    <circle cx="298.3" cy="100.36" r="10.53" style="fill:#00284b"/>
    <polygon points="287.77 100.66 287.77 85.84 293.03 90.58 298.29 85.84 303.55 90.58 308.81 85.84 308.81 100.66 287.77 100.66" style="fill:#fad250"/>
    <circle cx="298.3" cy="392.24" r="10.53" style="fill:#00284b"/>
    <polygon points="287.77 392.54 287.77 377.71 293.03 382.46 298.29 377.71 303.55 382.46 308.81 377.71 308.81 392.54 287.77 392.54" style="fill:#fad250"/>
    <circle cx="495.88" cy="301.4" r="10.53" style="fill:#00284b"/>
    <path d="M485.36,301.4a10.53,10.53,0,0,1,21.05,0" style="fill:#ffbbdc"/>
    <circle cx="485.9" cy="291.13" r="4.07" style="fill:#ffbbdc"/>
    <circle cx="506.07" cy="291.13" r="4.07" style="fill:#ffbbdc"/>
    <circle cx="127.27" cy="201.91" r="10.53" style="fill:#f5416e"/>
    <path d="M116.74,201.91a10.53,10.53,0,1,1,21,0Z" style="fill:#ffbbdc"/>
    <polygon points="116.74 188.65 123.37 195.28 116.74 201.91 116.74 188.65" style="fill:#ffbbdc"/>
    <polygon points="137.79 201.88 131.12 195.3 137.71 188.63 137.79 201.88" style="fill:#ffbbdc"/>
    <path d="M470.27,192.64a7,7,0,0,1,6.58-7,6.72,6.72,0,0,1,6.95,6.72v23s-8.85-12.79-12.15-18a8.85,8.85,0,0,1-1.38-4.74Z" style="fill:#00284b"/>
    <circle cx="470.06" cy="200.6" r="10.18" style="fill:#fad250"/>
    <path d="M480.45,200.6a20.64,20.64,0,0,0-.11-2.1,10.28,10.28,0,0,0-20.32-.21,19.49,19.49,0,0,0-.14,2.31h3.06a6.38,6.38,0,0,0,4.9-2.31l1.62-2,1.4,1.8a6.34,6.34,0,0,0,5,2.47Z" style="fill:#00284b"/>
    <path d="M286.55,493.16a6.53,6.53,0,1,0,0,13h14.68V493Z" style="fill:#00284b"/>
    <path d="M286.55,493.16a6.53,6.53,0,1,0,0,13h14.68V493Z" style="fill:#00284b"/>
    <path d="M292.47,507.91h15.45a8.66,8.66,0,1,0,0-17.31h-3.38l-1.88-5.08a8.65,8.65,0,1,0-16.24,6Z" style="fill:#00284b"/>
    <circle cx="298.36" cy="503.55" r="10.61" style="fill:#fad250"/>
    <rect x="287.95" y="491.66" width="22.21" height="9.09" style="fill:#00284b"/>
    <path d="M307.29,497.82a16.12,16.12,0,0,0-3.53-2.6,12.56,12.56,0,0,0-8.11-1.22,15.75,15.75,0,0,0-4.14,1.45,8.11,8.11,0,0,1,3.77-2.77,9.67,9.67,0,0,1,9.22,1.39A8.29,8.29,0,0,1,307.29,497.82Z" style="fill:#f5416e"/>
  </g>
</svg>
