<svg
  xmlns="http://www.w3.org/2000/svg" viewBox="0 0 600 600">
  <g id="Layer_5" data-name="Layer 5">
    <line x1="293.45" y1="137.16" x2="89.92" y2="464.67" style="fill:none;stroke:#c8d2dc;stroke-miterlimit:10;stroke-width:2px"/>
    <line x1="367.63" y1="245.69" x2="231.55" y2="464.67" style="fill:none;stroke:#c8d2dc;stroke-miterlimit:10;stroke-width:2px"/>
    <line x1="303.89" y1="137.16" x2="507.41" y2="464.67" style="fill:none;stroke:#c8d2dc;stroke-miterlimit:10;stroke-width:2px"/>
    <line x1="227.27" y1="243.52" x2="364.69" y2="464.67" style="fill:none;stroke:#c8d2dc;stroke-miterlimit:10;stroke-width:2px"/>
    <line x1="507.41" y1="469.23" x2="88.47" y2="469.23" style="fill:none;stroke:#c8d2dc;stroke-miterlimit:10;stroke-width:2px"/>
    <line x1="444.63" y1="357.16" x2="155.87" y2="357.16" style="fill:none;stroke:#c8d2dc;stroke-miterlimit:10;stroke-width:2px"/>
    <line x1="366.69" y1="245.1" x2="224.73" y2="245.1" style="fill:none;stroke:#c8d2dc;stroke-miterlimit:10;stroke-width:2px"/>
    <circle cx="228.68" cy="471.25" r="10.44" style="fill:#00284b"/>
    <circle cx="219.94" cy="458.17" r="6.44" style="fill:#289bdc"/>
    <path d="M218.23,471.25a10.45,10.45,0,0,1,20.89,0Z" style="fill:#289bdc"/>
    <circle cx="157.81" cy="357.67" r="10.44" style="fill:#fad250"/>
    <path d="M162.7,342.9c0,3.56-3.82,7.78-7.59,4.71a6,6,0,0,1-2-3.11c-1-3.79,1.47-5.6,4.66-5.6C160.51,338.9,162.7,340.2,162.7,342.9Z" style="fill:#289bdc"/>
    <path d="M147.37,357.67a10.44,10.44,0,1,1,20.88,0Z" style="fill:#289bdc"/>
    <circle cx="88.47" cy="466.71" r="10.44" style="fill:#ffbbdc"/>
    <path d="M78,466.71a10.44,10.44,0,0,1,20.88,0" style="fill:#00284b"/>
    <rect x="77.89" y="463.22" width="21.16" height="3.79" style="fill:#289bdc"/>
    <circle cx="298.51" cy="130.43" r="10.44" style="fill:#00284b"/>
    <polygon points="288.07 130.73 288.07 116.03 293.29 120.73 298.5 116.03 303.72 120.73 308.93 116.03 308.93 130.73 288.07 130.73" style="fill:#fad250"/>
    <path d="M372.66,236.74l6.25,0a5.85,5.85,0,0,1,0,11.7h-6.29Z" style="fill:#f5416e"/>
    <circle cx="368.62" cy="242.92" r="10.1" style="fill:#fad250"/>
    <path d="M378.93,242.92a16.26,16.26,0,0,0-.11-1.85,10.2,10.2,0,0,0-20.16-.2,15.46,15.46,0,0,0-.13,2h3a6.31,6.31,0,0,0,4.86-2.29l1.61-1.94,1.38,1.79a6.33,6.33,0,0,0,5,2.44Z" style="fill:#f5416e"/>
    <path d="M508.68,461.4a6.86,6.86,0,0,1,5.16-6.73,6.68,6.68,0,0,1,8.27,6.48V484s-8.78-12.68-12.06-17.86a8.74,8.74,0,0,1-1.37-4.71Z" style="fill:#00284b"/>
    <circle cx="508.47" cy="469.29" r="10.1" style="fill:#fad250"/>
    <path d="M518.78,469.29a20.39,20.39,0,0,0-.11-2.08,10.2,10.2,0,0,0-20.16-.21,19.29,19.29,0,0,0-.13,2.29h3a6.31,6.31,0,0,0,4.86-2.29l1.61-1.94,1.39,1.79a6.29,6.29,0,0,0,5,2.44Z" style="fill:#00284b"/>
    <circle cx="440.75" cy="355.23" r="10.44" style="fill:#00284b"/>
    <path d="M430.31,355.23a10.44,10.44,0,1,1,20.88,0" style="fill:#ffbbdc"/>
    <circle cx="430.85" cy="345.03" r="4.04" style="fill:#ffbbdc"/>
    <circle cx="450.86" cy="345.03" r="4.04" style="fill:#ffbbdc"/>
    <polygon points="234.24 238.74 224.38 232.62 224.38 253.5 240.92 253.5 234.24 238.74" style="fill:#289bdc"/>
    <polygon points="215.24 238.74 225.1 232.62 225.1 253.5 208.56 253.5 215.24 238.74" style="fill:#289bdc"/>
    <circle cx="224.73" cy="243.06" r="10.44" style="fill:#00284b"/>
    <path d="M214.29,243.06a10.43,10.43,0,0,1,10.44-10.44c.29,0,.57,0,.86,0,6.53.53,5.92,10.41-.64,10.41Z" style="fill:#289bdc"/>
    <path d="M286.28,346.5a6.47,6.47,0,0,0,0,12.94h14.57V346.36Z" style="fill:#00284b"/>
    <path d="M286.28,346.5a6.47,6.47,0,0,0,0,12.94h14.57V346.36Z" style="fill:#00284b"/>
    <path d="M292.15,361.12h15.33a8.59,8.59,0,1,0,0-17.17h-3.36l-1.85-5a8.59,8.59,0,0,0-16.12,5.94Z" style="fill:#00284b"/>
    <circle cx="298" cy="356.8" r="10.53" style="fill:#fad250"/>
    <rect x="287.67" y="345.01" width="22.03" height="9.02" style="fill:#00284b"/>
    <path d="M306.86,351.12a16.14,16.14,0,0,0-3.51-2.58,11.88,11.88,0,0,0-3.92-1.28,12.4,12.4,0,0,0-4.12.07,15.52,15.52,0,0,0-4.11,1.44,8,8,0,0,1,3.74-2.75,9.57,9.57,0,0,1,9.15,1.38A8.24,8.24,0,0,1,306.86,351.12Z" style="fill:#f5416e"/>
    <circle cx="364.7" cy="471.21" r="10.44" style="fill:#ffbbdc"/>
    <polygon points="354.26 471.51 354.26 456.8 359.48 461.51 364.69 456.8 369.91 461.51 375.12 456.8 375.12 471.51 354.26 471.51" style="fill:#f5416e"/>
  </g>
</svg>
