<svg
  xmlns="http://www.w3.org/2000/svg" viewBox="0 0 600 600">
  <g id="Layer_5" data-name="Layer 5">
    <line x1="130.96" y1="130.39" x2="130.96" y2="240.26" style="fill:none;stroke:#c8d2dc;stroke-miterlimit:10;stroke-width:2px"/>
    <line x1="130.96" y1="243.92" x2="130.96" y2="353.79" style="fill:none;stroke:#c8d2dc;stroke-miterlimit:10;stroke-width:2px"/>
    <line x1="130.96" y1="357.45" x2="130.96" y2="467.32" style="fill:none;stroke:#c8d2dc;stroke-miterlimit:10;stroke-width:2px"/>
    <line x1="244.79" y1="243.92" x2="244.79" y2="353.79" style="fill:none;stroke:#c8d2dc;stroke-miterlimit:10;stroke-width:2px"/>
    <line x1="244.79" y1="357.45" x2="244.79" y2="467.32" style="fill:none;stroke:#c8d2dc;stroke-miterlimit:10;stroke-width:2px"/>
    <line x1="242.92" y1="130.69" x2="133.05" y2="130.69" style="fill:none;stroke:#c8d2dc;stroke-miterlimit:10;stroke-width:2px"/>
    <line x1="242.92" y1="244.43" x2="133.05" y2="244.43" style="fill:none;stroke:#c8d2dc;stroke-miterlimit:10;stroke-width:2px"/>
    <line x1="242.92" y1="358.18" x2="133.05" y2="358.18" style="fill:none;stroke:#c8d2dc;stroke-miterlimit:10;stroke-width:2px"/>
    <line x1="242.92" y1="471.92" x2="133.05" y2="471.92" style="fill:none;stroke:#c8d2dc;stroke-miterlimit:10;stroke-width:2px"/>
    <line x1="245.01" y1="130.39" x2="245.01" y2="240.26" style="fill:none;stroke:#c8d2dc;stroke-miterlimit:10;stroke-width:2px"/>
    <line x1="358.96" y1="243.92" x2="358.96" y2="353.79" style="fill:none;stroke:#c8d2dc;stroke-miterlimit:10;stroke-width:2px"/>
    <line x1="358.96" y1="357.45" x2="358.96" y2="467.32" style="fill:none;stroke:#c8d2dc;stroke-miterlimit:10;stroke-width:2px"/>
    <line x1="357.09" y1="130.69" x2="247.23" y2="130.69" style="fill:none;stroke:#c8d2dc;stroke-miterlimit:10;stroke-width:2px"/>
    <line x1="357.09" y1="244.43" x2="247.23" y2="244.43" style="fill:none;stroke:#c8d2dc;stroke-miterlimit:10;stroke-width:2px"/>
    <line x1="357.09" y1="358.18" x2="247.23" y2="358.18" style="fill:none;stroke:#c8d2dc;stroke-miterlimit:10;stroke-width:2px"/>
    <line x1="357.09" y1="471.92" x2="247.23" y2="471.92" style="fill:none;stroke:#c8d2dc;stroke-miterlimit:10;stroke-width:2px"/>
    <line x1="359.18" y1="130.39" x2="359.18" y2="240.26" style="fill:none;stroke:#c8d2dc;stroke-miterlimit:10;stroke-width:2px"/>
    <line x1="359.31" y1="130.39" x2="359.31" y2="240.26" style="fill:none;stroke:#c8d2dc;stroke-miterlimit:10;stroke-width:2px"/>
    <line x1="359.31" y1="243.92" x2="359.31" y2="353.79" style="fill:none;stroke:#c8d2dc;stroke-miterlimit:10;stroke-width:2px"/>
    <line x1="359.31" y1="357.45" x2="359.31" y2="467.32" style="fill:none;stroke:#c8d2dc;stroke-miterlimit:10;stroke-width:2px"/>
    <line x1="473.14" y1="243.92" x2="473.14" y2="353.79" style="fill:none;stroke:#c8d2dc;stroke-miterlimit:10;stroke-width:2px"/>
    <line x1="473.14" y1="357.45" x2="473.14" y2="467.32" style="fill:none;stroke:#c8d2dc;stroke-miterlimit:10;stroke-width:2px"/>
    <line x1="471.27" y1="130.69" x2="361.4" y2="130.69" style="fill:none;stroke:#c8d2dc;stroke-miterlimit:10;stroke-width:2px"/>
    <line x1="471.27" y1="244.43" x2="361.4" y2="244.43" style="fill:none;stroke:#c8d2dc;stroke-miterlimit:10;stroke-width:2px"/>
    <line x1="471.27" y1="358.18" x2="361.4" y2="358.18" style="fill:none;stroke:#c8d2dc;stroke-miterlimit:10;stroke-width:2px"/>
    <line x1="471.27" y1="471.92" x2="361.4" y2="471.92" style="fill:none;stroke:#c8d2dc;stroke-miterlimit:10;stroke-width:2px"/>
    <line x1="473.35" y1="130.39" x2="473.35" y2="240.26" style="fill:none;stroke:#c8d2dc;stroke-miterlimit:10;stroke-width:2px"/>
    <path d="M348.32,130.63a10.54,10.54,0,1,0,.55-4.53A10.55,10.55,0,0,0,348.32,130.63Z" style="fill:#ffbbdc"/>
    <path d="M348.27,128.69v1.48H350a2.59,2.59,0,0,0,2.59-2.59v-3.4a1.46,1.46,0,0,1,1.46-1.46h.26a10.6,10.6,0,0,0,14,2.32h0a2.93,2.93,0,0,0,1.47-2.87H366.3a10.62,10.62,0,0,0-7-3.1h-.48a10.58,10.58,0,0,0-5.73,1.68l-.48.34a10.33,10.33,0,0,0-1.19,1A10.57,10.57,0,0,0,348.27,128.69Z" style="fill:#289bdc"/>
    <circle cx="245.01" cy="245.49" r="10.53" style="fill:#ffbbdc"/>
    <path d="M234.48,245.49a10.53,10.53,0,1,1,21.05,0" style="fill:#00284b"/>
    <rect x="234.34" y="241.96" width="21.33" height="3.82" style="fill:#289bdc"/>
    <circle cx="357.92" cy="473.96" r="10.53" style="fill:#00284b"/>
    <circle cx="349.11" cy="460.77" r="6.49" style="fill:#289bdc"/>
    <path d="M347.39,474a10.53,10.53,0,1,1,21.05,0Z" style="fill:#289bdc"/>
    <circle cx="245.01" cy="363.74" r="10.53" style="fill:#00284b"/>
    <circle cx="236.2" cy="350.55" r="6.49" style="fill:#ffbbdc"/>
    <path d="M234.48,363.74a10.53,10.53,0,1,1,21.05,0Z" style="fill:#ffbbdc"/>
    <circle cx="130.96" cy="363.36" r="10.53" style="fill:#fad250"/>
    <path d="M135.89,348.47c0,3.59-3.84,7.85-7.64,4.75a6,6,0,0,1-2-3.13c-1-3.82,1.48-5.65,4.69-5.65C133.69,344.44,135.89,345.75,135.89,348.47Z" style="fill:#289bdc"/>
    <path d="M120.44,363.36a10.53,10.53,0,1,1,21.05,0Z" style="fill:#289bdc"/>
    <circle cx="128.44" cy="469.38" r="10.53" style="fill:#ffbbdc"/>
    <path d="M117.92,469.38a10.53,10.53,0,0,1,21,0" style="fill:#00284b"/>
    <rect x="117.78" y="465.86" width="21.33" height="3.82" style="fill:#289bdc"/>
    <circle cx="245.01" cy="130.39" r="10.53" style="fill:#00284b"/>
    <polygon points="234.48 130.69 234.48 115.86 239.74 120.61 245 115.86 250.25 120.61 255.51 115.86 255.51 130.69 234.48 130.69" style="fill:#fad250"/>
    <path d="M471.34,353.18l6.29,0a5.9,5.9,0,1,1,0,11.8h-6.33Z" style="fill:#289bdc"/>
    <circle cx="467.27" cy="359.42" r="10.18" style="fill:#fad250"/>
    <path d="M477.65,359.42a16.48,16.48,0,0,0-.1-1.87,10.29,10.29,0,0,0-20.33-.21,15.91,15.91,0,0,0-.13,2.08h3.05a6.38,6.38,0,0,0,4.91-2.31l1.62-2,1.39,1.8a6.36,6.36,0,0,0,5,2.47Z" style="fill:#289bdc"/>
    <circle cx="473.09" cy="469.38" r="10.53" style="fill:#ffbbdc"/>
    <path d="M462.56,469.38a10.53,10.53,0,0,1,21.06,0" style="fill:#00284b"/>
    <rect x="462.43" y="465.86" width="21.33" height="3.82" style="fill:#289bdc"/>
    <circle cx="359.06" cy="361.16" r="10.53" style="fill:#00284b"/>
    <polygon points="348.53 361.46 348.53 346.64 353.79 351.38 359.05 346.64 364.31 351.38 369.57 346.64 369.57 361.46 348.53 361.46" style="fill:#fad250"/>
    <circle cx="130.61" cy="246.86" r="10.53" style="fill:#f5416e"/>
    <path d="M120.08,246.86a10.53,10.53,0,1,1,21,0Z" style="fill:#ffbbdc"/>
    <polygon points="120.08 233.61 126.7 240.23 120.08 246.86 120.08 233.61" style="fill:#ffbbdc"/>
    <polygon points="141.13 246.84 134.46 240.25 141.04 233.58 141.13 246.84" style="fill:#ffbbdc"/>
    <path d="M362.34,239.5l6.29,0a5.9,5.9,0,1,1,0,11.79h-6.33Z" style="fill:#f5416e"/>
    <circle cx="358.27" cy="245.74" r="10.18" style="fill:#fad250"/>
    <path d="M368.65,245.74a16.18,16.18,0,0,0-.1-1.86,10.29,10.29,0,0,0-20.33-.21,17.56,17.56,0,0,0-.13,2.07h3.05a6.38,6.38,0,0,0,4.91-2.31l1.62-2,1.39,1.8a6.37,6.37,0,0,0,5,2.47Z" style="fill:#f5416e"/>
    <path d="M471.52,120.43a6.89,6.89,0,0,1,5.19-6.78,6.73,6.73,0,0,1,8.34,6.53v23s-8.85-12.79-12.16-18a8.87,8.87,0,0,1-1.37-4.75Z" style="fill:#00284b"/>
    <circle cx="471.31" cy="128.39" r="10.18" style="fill:#fad250"/>
    <path d="M481.69,128.39a20.8,20.8,0,0,0-.1-2.1,10.28,10.28,0,0,0-20.32-.21,19.49,19.49,0,0,0-.14,2.31h3.06a6.38,6.38,0,0,0,4.9-2.31l1.62-2,1.4,1.81a6.36,6.36,0,0,0,5,2.46Z" style="fill:#00284b"/>
    <circle cx="471.09" cy="247.4" r="10.53" style="fill:#00284b"/>
    <path d="M460.56,247.4a10.53,10.53,0,0,1,21.06,0" style="fill:#ffbbdc"/>
    <circle cx="461.11" cy="237.12" r="4.07" style="fill:#ffbbdc"/>
    <circle cx="481.28" cy="237.12" r="4.07" style="fill:#ffbbdc"/>
    <polygon points="140.54 123.97 130.6 117.8 130.6 138.85 147.28 138.85 140.54 123.97" style="fill:#289bdc"/>
    <polygon points="121.39 123.97 131.32 117.8 131.32 138.85 114.65 138.85 121.39 123.97" style="fill:#289bdc"/>
    <circle cx="130.96" cy="128.32" r="10.53" style="fill:#00284b"/>
    <path d="M120.43,128.32A10.52,10.52,0,0,1,131,117.8c.29,0,.57,0,.86,0,6.58.54,6,10.49-.64,10.49Z" style="fill:#289bdc"/>
    <path d="M232.16,465.54a6.53,6.53,0,1,0,0,13h14.68V465.4Z" style="fill:#00284b"/>
    <path d="M232.16,465.54a6.53,6.53,0,1,0,0,13h14.68V465.4Z" style="fill:#00284b"/>
    <path d="M238.07,480.28h15.46a8.66,8.66,0,1,0,0-17.31h-3.39l-1.87-5.08a8.65,8.65,0,1,0-16.24,6Z" style="fill:#00284b"/>
    <circle cx="243.97" cy="475.93" r="10.61" style="fill:#fad250"/>
    <rect x="233.55" y="464.04" width="22.21" height="9.09" style="fill:#00284b"/>
    <path d="M252.9,470.2a16.55,16.55,0,0,0-3.54-2.61,12.63,12.63,0,0,0-8.1-1.21,15.81,15.81,0,0,0-4.15,1.45,8.09,8.09,0,0,1,3.77-2.77,9.69,9.69,0,0,1,9.23,1.39A8.24,8.24,0,0,1,252.9,470.2Z" style="fill:#f5416e"/>
  </g>
</svg>
