<svg id="colony_logo_vertical_white" version="1.1" xmlns="http://www.w3.org/2000/svg" xmlns:xlink="http://www.w3.org/1999/xlink" viewBox="0 0 122 112">
  <title>Colony</title>
  <circle cx="60.92" cy="10.3" r="9.63" style="fill:#fff"/>
  <circle cx="60.92" cy="67" r="9.63" style="fill:#fff"/>
  <circle cx="89.27" cy="38.65" r="9.63" style="fill:#fff"/>
  <circle cx="32.56" cy="38.65" r="9.63" style="fill:#fff"/>
  <rect x="50.03" y="27.76" width="21.79" height="21.79" transform="translate(-9.49 54.4) rotate(-45)" style="fill:#fff"/>
  <polygon points="78.25 21.32 78.25 4.83 94.74 21.32 78.25 21.32" style="fill:#fff"/>
  <polygon points="43.58 21.32 27.09 21.32 43.58 4.83 43.58 21.32" style="fill:#fff"/>
  <polygon points="43.58 55.98 43.58 72.47 27.09 55.98 43.58 55.98" style="fill:#fff"/>
  <polygon points="78.25 55.98 94.74 55.98 78.25 72.47 78.25 55.98" style="fill:#fff"/>
  <path d="M14,108.83a8.09,8.09,0,0,1-1.11,1,7,7,0,0,1-1.35.78,7.85,7.85,0,0,1-1.55.52,6.63,6.63,0,0,1-1.72.19A7.7,7.7,0,0,1,6.11,111a8,8,0,0,1-2-.79A7.58,7.58,0,0,1,2.46,109a7.9,7.9,0,0,1-1.28-1.59,7.63,7.63,0,0,1-.83-6.08,7.69,7.69,0,0,1,.83-1.88A8.7,8.7,0,0,1,2.5,97.83a8.59,8.59,0,0,1,1.65-1.22,8.86,8.86,0,0,1,2-.79,8.49,8.49,0,0,1,2.19-.28,8.11,8.11,0,0,1,1.7.18,10.05,10.05,0,0,1,1.52.51A7.75,7.75,0,0,1,12.9,97a10.27,10.27,0,0,1,1.17,1l-2.13,2.26A4.46,4.46,0,0,0,10.34,99a4.69,4.69,0,0,0-3.83-.08,5.09,5.09,0,0,0-1.51,1,5.37,5.37,0,0,0-1,1.54,5.12,5.12,0,0,0-.36,1.93A4.85,4.85,0,0,0,4,105.32a4.65,4.65,0,0,0,1,1.54,4.71,4.71,0,0,0,3.34,1.39,4.79,4.79,0,0,0,1-.11,3.94,3.94,0,0,0,1-.34,4.68,4.68,0,0,0,.88-.53,4.58,4.58,0,0,0,.74-.72Z" style="fill:#fff"/>
  <path d="M20.88,103.4a7.88,7.88,0,0,1,.29-2.1A7.69,7.69,0,0,1,22,99.42a8.5,8.5,0,0,1,1.28-1.59,8.66,8.66,0,0,1,1.66-1.22,8.77,8.77,0,0,1,4.19-1.07,8.77,8.77,0,0,1,4.17,1.07,9.38,9.38,0,0,1,1.58,1.22A7.6,7.6,0,0,1,37,101.3a7.47,7.47,0,0,1,0,4.19,8,8,0,0,1-.82,1.89A7.62,7.62,0,0,1,34.88,109a7.33,7.33,0,0,1-1.66,1.22,8.77,8.77,0,0,1-4.17,1.07,8.77,8.77,0,0,1-4.19-1.07A7.33,7.33,0,0,1,23.2,109a7.9,7.9,0,0,1-1.28-1.59,7.6,7.6,0,0,1-.83-1.89A7.32,7.32,0,0,1,20.88,103.4Zm3.49,0a4.83,4.83,0,0,0,.37,1.92,4.41,4.41,0,0,0,1,1.54,4.2,4.2,0,0,0,1.5,1,4.44,4.44,0,0,0,1.83.37,4.34,4.34,0,0,0,1.85-.37,4.29,4.29,0,0,0,1.5-1,5.11,5.11,0,0,0,1-5.39,5.24,5.24,0,0,0-1-1.54,4.71,4.71,0,0,0-6.68,0,4.87,4.87,0,0,0-1,1.54,5,5,0,0,0-.37,1.94Z" style="fill:#fff"/>
  <path d="M45.33,95.92h3.5v12h6.28v3H45.33Z" style="fill:#fff"/>
  <path d="M61.62,103.4a7.15,7.15,0,0,1,.29-2.1,7.69,7.69,0,0,1,.83-1.88A8.12,8.12,0,0,1,64,97.83,8.5,8.5,0,0,1,74,96.61a8.73,8.73,0,0,1,1.67,1.22,8.12,8.12,0,0,1,1.28,1.59,7.58,7.58,0,0,1,.83,6.07,7.44,7.44,0,0,1-.83,1.89,7.79,7.79,0,0,1-3,2.81,8,8,0,0,1-2,.79,8.48,8.48,0,0,1-4.36,0,8,8,0,0,1-2-.79,8,8,0,0,1-2.93-2.81,7.44,7.44,0,0,1-.83-1.89A7.3,7.3,0,0,1,61.62,103.4Zm3.48,0a5,5,0,0,0,.37,1.92,4.65,4.65,0,0,0,1,1.54,4.6,4.6,0,0,0,3.33,1.39,4.42,4.42,0,0,0,1.86-.37,4.17,4.17,0,0,0,1.49-1,4.65,4.65,0,0,0,1-1.54,5,5,0,0,0,.37-1.92,5.13,5.13,0,0,0-.37-1.93A4.53,4.53,0,0,0,71.66,99,4.82,4.82,0,0,0,68,99a4.92,4.92,0,0,0-1.5,1,5.37,5.37,0,0,0-1,1.54,5.12,5.12,0,0,0-.37,1.92Z" style="fill:#fff"/>
  <path d="M99.75,110.92h-3l-7.16-9v9H86.1v-15h3l7.15,9v-9h3.49Z" style="fill:#fff"/>
  <path d="M121.94,95.92l-5.79,9.32v5.68h-3.47v-5.67l-5.77-9.33H111l3.43,6.14h0l3.44-6.14Z" style="fill:#fff"/>
</svg>
