<svg xmlns="http://www.w3.org/2000/svg" viewBox="15 10 120 40">
  <title>Colony Docs</title>
  <path d="M71.8,25.33a6.08,6.08,0,0,1-.66.56,4.17,4.17,0,0,1-.8.46,5.12,5.12,0,0,1-.91.31,4.34,4.34,0,0,1-1,.11,5.07,5.07,0,0,1-1.29-.16A5.13,5.13,0,0,1,66,26.14a4.53,4.53,0,0,1-1.73-1.67,4.49,4.49,0,0,1,0-4.7,4.56,4.56,0,0,1,.75-.94,5.43,5.43,0,0,1,1-.73,5.18,5.18,0,0,1,2.45-.63,4.67,4.67,0,0,1,1,.11,4.32,4.32,0,0,1,.9.3,4.25,4.25,0,0,1,.8.46,4.82,4.82,0,0,1,.69.58l-1.26,1.34a2.55,2.55,0,0,0-1-.74,2.69,2.69,0,0,0-1.19-.26,2.81,2.81,0,0,0-1.08.21,2.88,2.88,0,0,0-.89.61,2.7,2.7,0,0,0-.59.91,3.06,3.06,0,0,0,0,2.28,2.8,2.8,0,0,0,.59.91,3,3,0,0,0,.89.6A2.64,2.64,0,0,0,68.4,25a2.82,2.82,0,0,0,1.19-.27,3.4,3.4,0,0,0,.52-.31,3,3,0,0,0,.44-.43Z" style="fill:#00284b"/>
  <path d="M74.32,22.12A4.56,4.56,0,0,1,75,19.77a4.56,4.56,0,0,1,.75-.94,5.43,5.43,0,0,1,1-.73,5.18,5.18,0,0,1,2.45-.63,5,5,0,0,1,1.29.17,5.1,5.1,0,0,1,1.16.46,5.5,5.5,0,0,1,1,.73,4.5,4.5,0,0,1,.76,5.64,5,5,0,0,1-.76,1,5,5,0,0,1-1,.72,5.13,5.13,0,0,1-1.16.47,5,5,0,0,1-1.29.16,5.07,5.07,0,0,1-1.29-.16,5.13,5.13,0,0,1-1.16-.47A4.53,4.53,0,0,1,75,24.47a4.56,4.56,0,0,1-.67-2.35Zm2.07,0a2.86,2.86,0,0,0,.22,1.14,2.8,2.8,0,0,0,.59.91,3,3,0,0,0,.89.6,2.64,2.64,0,0,0,1.08.22,2.67,2.67,0,0,0,1.1-.22,2.91,2.91,0,0,0,.89-.6,3,3,0,0,0,.59-.91,3,3,0,0,0-.59-3.19,2.77,2.77,0,0,0-.89-.61,2.93,2.93,0,0,0-2.18,0,2.88,2.88,0,0,0-.89.61,2.7,2.7,0,0,0-.59.91A2.86,2.86,0,0,0,76.39,22.13Z" style="fill:#00284b"/>
  <path d="M87.25,17.7h2.07v7.1H93v1.77H87.25Z" style="fill:#00284b"/>
  <path d="M95.35,22.12A4.68,4.68,0,0,1,96,19.77a5,5,0,0,1,.76-.94,5.43,5.43,0,0,1,1-.73,5.1,5.1,0,0,1,1.16-.46,5,5,0,0,1,1.29-.17,5,5,0,0,1,1.29.17,5.1,5.1,0,0,1,1.16.46,5.5,5.5,0,0,1,1,.73,5,5,0,0,1,.76.94,4.46,4.46,0,0,1,.48,3.59,4.24,4.24,0,0,1-.48,1.11,5.37,5.37,0,0,1-.76,1,5,5,0,0,1-1,.72,5.13,5.13,0,0,1-1.16.47,5,5,0,0,1-1.29.16,5,5,0,0,1-1.29-.16,5.13,5.13,0,0,1-1.16-.47,5,5,0,0,1-1-.72,5.37,5.37,0,0,1-.76-1,4.68,4.68,0,0,1-.66-2.35Zm2.06,0a3,3,0,0,0,.22,1.14,3,3,0,0,0,.6.91,2.91,2.91,0,0,0,.89.6,2.64,2.64,0,0,0,1.08.22,2.7,2.7,0,0,0,1.1-.22,2.86,2.86,0,0,0,.88-.6,3,3,0,0,0,.6-.91,3.06,3.06,0,0,0,0-2.28,2.88,2.88,0,0,0-.6-.91,2.72,2.72,0,0,0-.88-.61,2.87,2.87,0,0,0-1.1-.21,2.81,2.81,0,0,0-1.08.21,2.77,2.77,0,0,0-.89.61,2.88,2.88,0,0,0-.6.91A3,3,0,0,0,97.41,22.13Z" style="fill:#00284b"/>
  <path d="M116.37,26.57h-1.79l-4.24-5.32v5.32h-2.07V17.7h1.81l4.23,5.3V17.7h2.06Z" style="fill:#00284b"/>
  <path d="M128,17.7l-3.43,5.51v3.36h-2.07V23.22l-3.41-5.52h2.4l2,3.63h0l2-3.63Z" style="fill:#00284b"/>
  <path d="M63.88,34.69h3.6a5.93,5.93,0,0,1,1.88.28,4.55,4.55,0,0,1,1.51.85,4,4,0,0,1,1,1.39,4.75,4.75,0,0,1,.36,1.91,5,5,0,0,1-.31,1.81,3.82,3.82,0,0,1-.91,1.4,4.15,4.15,0,0,1-1.49.91,5.75,5.75,0,0,1-2,.32H63.88Zm3.57,7.1a2.8,2.8,0,0,0,2-.68,2.65,2.65,0,0,0,.69-2A3.23,3.23,0,0,0,70,38a2.13,2.13,0,0,0-.5-.85,2.26,2.26,0,0,0-.84-.54,3.6,3.6,0,0,0-1.2-.19H66v5.33Z" style="fill:#00284b"/>
  <path d="M75,39.11a4.64,4.64,0,0,1,.17-1.24,5,5,0,0,1,.49-1.11,4.29,4.29,0,0,1,.76-.94,4.67,4.67,0,0,1,1-.72,4.55,4.55,0,0,1,1.16-.47,5.24,5.24,0,0,1,2.57,0,4.78,4.78,0,0,1,1.17.47,4.67,4.67,0,0,1,1,.72,4.29,4.29,0,0,1,.76.94,4.58,4.58,0,0,1,.49,1.11,4.27,4.27,0,0,1,.17,1.24,4.22,4.22,0,0,1-.17,1.24A4.48,4.48,0,0,1,84,41.47a4.54,4.54,0,0,1-.76.94,4.67,4.67,0,0,1-1,.72,5.21,5.21,0,0,1-1.17.47,5,5,0,0,1-3.73-.47,4.67,4.67,0,0,1-1-.72,4.54,4.54,0,0,1-.76-.94,4.88,4.88,0,0,1-.49-1.12A4.58,4.58,0,0,1,75,39.11Zm2.06,0a2.86,2.86,0,0,0,.22,1.14,2.83,2.83,0,0,0,.6.91,2.74,2.74,0,0,0,2,.82,2.62,2.62,0,0,0,1.09-.22,2.59,2.59,0,0,0,.89-.6,2.8,2.8,0,0,0,.59-.91,3.06,3.06,0,0,0,0-2.28,2.8,2.8,0,0,0-.59-.91,2.59,2.59,0,0,0-.89-.6,2.62,2.62,0,0,0-1.09-.22,2.74,2.74,0,0,0-2,.82,2.83,2.83,0,0,0-.6.91A2.86,2.86,0,0,0,77,39.12Z" style="fill:#00284b"/>
  <path d="M95.69,42.32a5.13,5.13,0,0,1-.66.56,4.82,4.82,0,0,1-1.72.77,4.19,4.19,0,0,1-1,.12A5,5,0,0,1,91,43.6a5.13,5.13,0,0,1-1.16-.47,5,5,0,0,1-1-.72,4.84,4.84,0,0,1-.75-.94,4.15,4.15,0,0,1-.49-1.12,4.23,4.23,0,0,1-.18-1.24,4.28,4.28,0,0,1,.18-1.24,4.22,4.22,0,0,1,.49-1.11,4.56,4.56,0,0,1,.75-.94,5,5,0,0,1,1-.72A4.71,4.71,0,0,1,91,34.63a5,5,0,0,1,1.29-.16,4.68,4.68,0,0,1,1,.1,5,5,0,0,1,.9.3,4.41,4.41,0,0,1,.79.46,6.53,6.53,0,0,1,.7.58l-1.26,1.34a2.63,2.63,0,0,0-1-.74,2.69,2.69,0,0,0-1.19-.26,2.64,2.64,0,0,0-1.08.22,2.59,2.59,0,0,0-.89.6,3,3,0,0,0-.6.91,3.2,3.2,0,0,0,0,2.28,3,3,0,0,0,.6.91,2.59,2.59,0,0,0,.89.6,2.64,2.64,0,0,0,1.08.22,2.82,2.82,0,0,0,1.19-.27,2.75,2.75,0,0,0,.52-.31,3.42,3.42,0,0,0,.43-.42Z" style="fill:#00284b"/>
  <path d="M99,41.12l.65.28c.25.1.51.19.79.28s.56.16.84.22a4.11,4.11,0,0,0,.84.08,3.28,3.28,0,0,0,.76-.07,1.48,1.48,0,0,0,.49-.21.74.74,0,0,0,.27-.32.91.91,0,0,0,.08-.41.62.62,0,0,0-.14-.43,1.15,1.15,0,0,0-.41-.32,4.39,4.39,0,0,0-.66-.25l-.91-.26-.56-.16-.65-.21a5.25,5.25,0,0,1-.63-.31,2.93,2.93,0,0,1-.56-.42,2,2,0,0,1-.39-.56,1.66,1.66,0,0,1-.15-.72,3.29,3.29,0,0,1,.22-1.2,2.24,2.24,0,0,1,.66-.9,3.05,3.05,0,0,1,1.14-.57,6.06,6.06,0,0,1,1.64-.19,5.65,5.65,0,0,1,.93.07,7.88,7.88,0,0,1,.87.19,6.64,6.64,0,0,1,.79.26l.73.29L105.09,37l-.32-.14-.45-.16-.53-.16-.57-.15-.56-.1a5.13,5.13,0,0,0-.52,0,2.61,2.61,0,0,0-.69.08,1.14,1.14,0,0,0-.43.19.69.69,0,0,0-.21.28.74.74,0,0,0-.07.32.59.59,0,0,0,.15.4,1.24,1.24,0,0,0,.4.28,3.48,3.48,0,0,0,.6.21c.23.06.48.11.75.16a12.26,12.26,0,0,1,1.28.37,3.56,3.56,0,0,1,1,.52,2.16,2.16,0,0,1,.67.8,2.73,2.73,0,0,1,.23,1.18,2.27,2.27,0,0,1-.29,1.18,2.55,2.55,0,0,1-.81.86,3.61,3.61,0,0,1-1.21.53,6.09,6.09,0,0,1-1.52.18,7,7,0,0,1-1.15-.09,8.46,8.46,0,0,1-1-.2,6.66,6.66,0,0,1-.83-.29,5.12,5.12,0,0,1-.66-.31Z" style="fill:#00284b"/>
  <circle cx="36.13" cy="17.24" r="4.33" style="fill:#00284b"/>
  <circle cx="36.13" cy="42.76" r="4.33" style="fill:#00284b"/>
  <circle cx="48.88" cy="30" r="4.33" style="fill:#00284b"/>
  <circle cx="23.37" cy="30" r="4.33" style="fill:#00284b"/>
  <rect x="31.23" y="25.1" width="9.8" height="9.8" transform="translate(31.79 -16.76) rotate(45)" style="fill:#00284b"/>
  <polygon points="43.93 22.2 43.93 14.78 51.34 22.2 43.93 22.2" style="fill:#00284b"/>
  <polygon points="28.33 22.2 20.91 22.2 28.33 14.78 28.33 22.2" style="fill:#00284b"/>
  <polygon points="28.33 37.8 28.33 45.22 20.91 37.8 28.33 37.8" style="fill:#00284b"/>
  <polygon points="43.93 37.8 51.34 37.8 43.93 45.21 43.93 37.8" style="fill:#00284b"/>
</svg>
