<svg xmlns="http://www.w3.org/2000/svg" viewBox="0 0 272 272" version="1.1">
  <rect width="136" height="136" fill="#C8D2DC"/>
  <rect x="136" y="136" width="136" height="136" fill="#C8D2DC"/>
  <rect x="136" width="136" height="136" fill="#00284B"/>
  <rect y="136" width="136" height="136" fill="#00284B"/>
  <path d="m39.34 192.76h13.71v3.3h-9.93v5.82h9.36v3.18h-9.36v8.94h-3.78v-21.24zm22.246 0h3.27l9.15 21.24h-4.32l-1.98-4.86h-9.21l-1.92 4.86h-4.23l9.24-21.24zm4.8 13.14-3.27-8.64-3.33 8.64h6.6zm32.084 8.1h-12.81c-1.7 0-3.25-0.24-4.65-0.72-1.38-0.5-2.57-1.21-3.57-2.13-0.98-0.94-1.74-2.08-2.28-3.42-0.54-1.36-0.81-2.9-0.81-4.62 0-1.62 0.28-3.09 0.84-4.41 0.58-1.34 1.38-2.49 2.4-3.45s2.22-1.7 3.6-2.22c1.4-0.54 2.91-0.81 4.53-0.81s3.12 0.27 4.5 0.81c1.38 0.52 2.57 1.26 3.57 2.22 1.02 0.96 1.81 2.11 2.37 3.45 0.56 1.32 0.84 2.79 0.84 4.41 0 0.96-0.11 1.84-0.33 2.64s-0.51 1.53-0.87 2.19c-0.34 0.64-0.74 1.21-1.2 1.71-0.44 0.48-0.9 0.89-1.38 1.23v0.06h5.25v3.06zm-12.75-18.39c-1.02 0-1.98 0.19-2.88 0.57-0.88 0.38-1.64 0.9-2.28 1.56s-1.15 1.45-1.53 2.37c-0.36 0.92-0.54 1.92-0.54 3 0 1.14 0.17 2.18 0.51 3.12 0.36 0.92 0.85 1.71 1.47 2.37 0.64 0.66 1.4 1.18 2.28 1.56 0.88 0.36 1.85 0.54 2.91 0.54 1.04 0 2-0.18 2.88-0.54 0.9-0.38 1.67-0.9 2.31-1.56s1.14-1.45 1.5-2.37c0.36-0.94 0.54-1.98 0.54-3.12 0-1.08-0.17-2.08-0.51-3s-0.83-1.71-1.47-2.37c-0.62-0.66-1.37-1.18-2.25-1.56s-1.86-0.57-2.94-0.57z" fill="#C8D2DC"/>
  <path d="m175.34 56.76h13.71v3.3h-9.93v5.82h9.36v3.18h-9.36v8.94h-3.78v-21.24zm22.246 0h3.27l9.15 21.24h-4.32l-1.98-4.86h-9.21l-1.92 4.86h-4.23l9.24-21.24zm4.8 13.14-3.27-8.64-3.33 8.64h6.6zm32.084 8.1h-12.81c-1.7 0-3.25-0.24-4.65-0.72-1.38-0.5-2.57-1.21-3.57-2.13-0.98-0.94-1.74-2.08-2.28-3.42-0.54-1.36-0.81-2.9-0.81-4.62 0-1.62 0.28-3.09 0.84-4.41 0.58-1.34 1.38-2.49 2.4-3.45s2.22-1.7 3.6-2.22c1.4-0.54 2.91-0.81 4.53-0.81s3.12 0.27 4.5 0.81c1.38 0.52 2.57 1.26 3.57 2.22 1.02 0.96 1.81 2.11 2.37 3.45 0.56 1.32 0.84 2.79 0.84 4.41 0 0.96-0.11 1.84-0.33 2.64s-0.51 1.53-0.87 2.19c-0.34 0.64-0.74 1.21-1.2 1.71-0.44 0.48-0.9 0.89-1.38 1.23v0.06h5.25v3.06zm-12.75-18.39c-1.02 0-1.98 0.19-2.88 0.57-0.88 0.38-1.64 0.9-2.28 1.56s-1.15 1.45-1.53 2.37c-0.36 0.92-0.54 1.92-0.54 3 0 1.14 0.17 2.18 0.51 3.12 0.36 0.92 0.85 1.71 1.47 2.37 0.64 0.66 1.4 1.18 2.28 1.56 0.88 0.36 1.85 0.54 2.91 0.54 1.04 0 2-0.18 2.88-0.54 0.9-0.38 1.67-0.9 2.31-1.56s1.14-1.45 1.5-2.37c0.36-0.94 0.54-1.98 0.54-3.12 0-1.08-0.17-2.08-0.51-3s-0.83-1.71-1.47-2.37c-0.62-0.66-1.37-1.18-2.25-1.56s-1.86-0.57-2.94-0.57z" fill="#C8D2DC"/>
  <circle cx="68.5" cy="56.5" r="26.5" fill="#F0F5F7"/>
  <path d="m68.38 41.88 2.7683 11.732 11.732 2.7684-11.732 2.7683-2.7683 11.732-2.7684-11.732-11.732-2.7683 11.732-2.7684 2.7684-11.732z" fill="#00284B"/>
  <path d="m77.07 47.69-4.3886 8.6898 4.3886 8.6899-8.6898-4.3886-8.6899 4.3886 4.3886-8.6899-4.3886-8.6898 8.6899 4.3886 8.6898-4.3886z" fill="#00284B"/>
  <rect x="47" y="92" width="42" height="3" fill="#788CA0"/>
  <rect x="42" y="97" width="52" height="3" fill="#788CA0"/>
  <rect x="42" y="100" width="52" height="2" fill="#00284B"/>
  <rect x="37" y="102" width="62" height="5" fill="#00284B"/>
  <rect x="47" y="95" width="42" height="2" fill="#00284B"/>
  <circle cx="204.5" cy="192.5" r="26.5" fill="#F0F5F7"/>
  <path d="m204.38 177.88 2.768 11.731 11.732 2.769-11.732 2.768-2.768 11.732-2.769-11.732-11.731-2.768 11.731-2.769 2.769-11.731z" fill="#00284B"/>
  <path d="m213.07 183.69-4.389 8.69 4.389 8.69-8.69-4.389-8.69 4.389 4.388-8.69-4.388-8.69 8.69 4.388 8.69-4.388z" fill="#00284B"/>
  <rect x="183" y="228" width="42" height="3" fill="#788CA0"/>
  <rect x="178" y="233" width="52" height="3" fill="#788CA0"/>
  <rect x="178" y="236" width="52" height="2" fill="#00284B"/>
  <rect x="173" y="238" width="62" height="5" fill="#00284B"/>
  <rect x="183" y="231" width="42" height="2" fill="#00284B"/>
</svg>
