<svg xmlns="http://www.w3.org/2000/svg" viewBox="0 0 80 80" version="1.1">
  <defs>
    <linearGradient id="a" x1="39.875" x2="39.875" y1="15.047" y2="64.702" gradientUnits="userSpaceOnUse">
      <stop stop-color="#E6BE3E" offset="0"/>
      <stop stop-color="#E6BE3E" stop-opacity="0" offset="1"/>
    </linearGradient>
  </defs>
  <path d="m40 80c22.091 0 40-17.909 40-40s-17.909-40-40-40-40 17.909-40 40 17.909 40 40 40z" fill="#FAD250"/>
  <circle cx="39.875" cy="39.875" r="24.828" fill="url(#a)"/>
  <path d="m75.987 39.874c0-19.945-16.168-36.113-36.113-36.113h-3e-4v6.0188c16.62 5e-5 30.094 13.474 30.094 30.094h6.0192z" clip-rule="evenodd" fill="#FEF0C4" fill-rule="evenodd"/>
  <path d="m31.24 43.415c-0.3784 0.4347-0.8453 0.7808-1.4008 1.0384-0.5554 0.2496-1.1954 0.3744-1.92 0.3744-0.6601 0-1.2719-0.1087-1.8354-0.326-0.5555-0.2174-1.0385-0.5233-1.4491-0.9178-0.4106-0.4025-0.7326-0.8815-0.966-1.437-0.2335-0.5554-0.3502-1.1673-0.3502-1.8354 0-0.6843 0.1167-1.3042 0.3502-1.8597 0.2415-0.5554 0.5715-1.0264 0.9902-1.4128 0.4186-0.3945 0.9096-0.6963 1.4732-0.9057 0.5635-0.2093 1.1713-0.3139 1.8234-0.3139 0.6037 0 1.1954 0.1087 1.7751 0.326 0.5876 0.2093 1.0626 0.5193 1.4249 0.9298l-1.4008 1.4008c-0.1932-0.2657-0.4468-0.4629-0.7607-0.5917-0.314-0.1288-0.636-0.1932-0.9661-0.1932-0.3622 0-0.6963 0.0684-1.0022 0.2053-0.2979 0.1288-0.5555 0.3099-0.7729 0.5434-0.2173 0.2334-0.3864 0.5112-0.5071 0.8332-0.1208 0.3139-0.1812 0.6601-0.1812 1.0385 0 0.3864 0.0604 0.7406 0.1812 1.0626 0.1207 0.322 0.2857 0.5998 0.495 0.8332 0.2174 0.2254 0.475 0.4025 0.7729 0.5313 0.2978 0.1288 0.6239 0.1932 0.9781 0.1932 0.4106 0 0.7688-0.0805 1.0747-0.2415s0.5515-0.3703 0.7366-0.6279l1.437 1.3525zm8.8669-3.1155c0 0.7487-0.1409 1.3967-0.4227 1.9441-0.2737 0.5394-0.64 0.9862-1.0988 1.3404-0.4508 0.3462-0.962 0.6038-1.5336 0.7728-0.5716 0.1611-1.1512 0.2416-1.7389 0.2416h-3.1879v-8.5495h3.0913c0.6038 0 1.1995 0.0725 1.7872 0.2174 0.5877 0.1368 1.1109 0.3703 1.5698 0.7004 0.4589 0.322 0.8292 0.7567 1.1109 1.3041 0.2818 0.5474 0.4227 1.2237 0.4227 2.0287zm-2.1495 0c0-0.483-0.0805-0.8815-0.2415-1.1955-0.1529-0.322-0.3622-0.5756-0.6279-0.7607-0.2576-0.1932-0.5555-0.3301-0.8936-0.4106-0.33-0.0805-0.6722-0.1208-1.0264-0.1208h-1.0264v4.9993h0.9781c0.3703 0 0.7245-0.0403 1.0627-0.1208 0.3461-0.0885 0.648-0.2294 0.9056-0.4226 0.2657-0.1932 0.475-0.4508 0.6279-0.7728 0.161-0.3221 0.2415-0.7205 0.2415-1.1955zm3.519 4.2989v-8.5495h5.7479v1.751h-3.7554v1.606h3.5502v1.6543h-3.5502v1.7751h3.9728v1.7631h-5.9653zm11.573 0h-2.0649l-3.2362-8.5495h2.3185l1.9803 6.0619h0.0483l1.9683-6.0619h2.2823l-3.2966 8.5495z" fill="#B09026"/>
</svg>
