<svg id="developerPortal_white" title="Colony Developer Portal" version="1.1" viewBox="0 0 400 97" xmlns="http://www.w3.org/2000/svg">
  <path d="m 290.56244,63.395677 h 6.08487 v 20.941244 h 10.93875 v 5.23782 h -17.01361 z m -15.8727,22.02493 h -10.93875 l -1.65132,4.154134 h -6.43515 l 10.69856,-26.199132 h 5.71457 l 10.69856,26.199132 h -6.41513 z m -8.84708,-5.147512 h 6.75541 l -3.16253,-7.916934 -0.20016,-0.842867 -0.20016,0.842867 z M 239.25139,68.633496 h -7.29583 v -5.237819 h 20.66653 v 5.237819 h -7.29584 v 20.941245 h -6.07486 z m -25.32025,12.412228 h -3.8731 v 8.529017 h -6.08487 V 63.395677 h 11.43915 a 10.718574,10.74656 0 0 1 3.78303,0.642184 8.9371494,8.9604843 0 0 1 3.0024,1.806145 8.2465969,8.2681288 0 0 1 2.0016,2.799524 8.9171333,8.9404159 0 0 1 0.70056,3.602255 9.5076057,9.5324301 0 0 1 -0.34027,2.608876 8.4267411,8.4487433 0 0 1 -1.0008,2.227579 7.8362687,7.8567292 0 0 1 -1.54123,1.766008 8.7469972,8.7698356 0 0 1 -2.00161,1.294403 l 5.50441,9.43209 h -7.00561 z m 1.24099,-5.23782 a 3.6028822,3.6122893 0 0 0 1.40112,-0.260888 3.352682,3.3614359 0 0 0 1.14091,-0.722457 3.0024018,3.0102411 0 0 0 0.77062,-1.113789 3.8931143,3.9032792 0 0 0 0,-2.9099 3.282626,3.2911969 0 0 0 -0.77062,-1.153925 3.402722,3.4116065 0 0 0 -1.14091,-0.742527 3.6028822,3.6122893 0 0 0 -1.40112,-0.270922 h -5.10408 v 7.174408 z m -49.03923,0.642185 a 12.940352,12.974139 0 0 1 0.51041,-3.662459 13.680944,13.716665 0 0 1 1.49119,-3.281163 13.180544,13.214958 0 0 1 2.23179,-2.769422 14.011208,14.047791 0 0 1 2.87229,-2.137271 14.161328,14.198303 0 0 1 3.36269,-1.384711 15.212169,15.251888 0 0 1 7.54604,0 14.331465,14.368884 0 0 1 3.41273,1.374677 14.181345,14.218372 0 0 1 2.90232,2.13727 13.180544,13.214958 0 0 1 2.23179,2.769423 13.680944,13.716665 0 0 1 1.46117,3.291197 13.290632,13.325334 0 0 1 0,7.314885 13.680944,13.716665 0 0 1 -1.44116,3.281163 13.5008,13.536051 0 0 1 -2.23178,2.779456 13.811048,13.847109 0 0 1 -2.90232,2.137271 14.761809,14.800352 0 0 1 -3.43275,1.374677 14.911929,14.950864 0 0 1 -7.58607,0 14.581665,14.619738 0 0 1 -3.3727,-1.374677 13.751,13.786904 0 0 1 -6.54523,-8.19789 12.920336,12.954071 0 0 1 -0.51041,-3.652426 z m 6.07486,0 a 8.5868691,8.6092894 0 0 0 0.64051,3.361436 8.4667731,8.4888798 0 0 0 1.7514,2.689148 8.1565249,8.1778216 0 0 0 2.61209,1.786077 8.2365889,8.2580946 0 0 0 6.41513,0 8.1064849,8.1276509 0 0 0 2.60209,-1.776043 8.4467571,8.4688116 0 0 0 1.74139,-2.689148 8.9371494,8.9604843 0 0 0 0,-6.712837 8.4467571,8.4688116 0 0 0 -1.74139,-2.689149 8.1265009,8.1477192 0 0 0 -5.82466,-2.428261 8.0064048,8.0273095 0 0 0 -3.19256,0.652218 8.1565249,8.1778216 0 0 0 -2.61209,1.776043 8.4667731,8.4888798 0 0 0 -1.7514,2.689149 8.5768611,8.5992553 0 0 0 -0.64051,3.351401 z m -28.35268,5.097342 v 8.02731 h -6.08487 V 63.395677 h 11.26902 a 10.298238,10.325127 0 0 1 3.78302,0.682321 8.8270613,8.8501088 0 0 1 3.0024,1.896453 8.5768611,8.5992553 0 0 1 2.0016,2.879796 9.1873495,9.2113377 0 0 1 0.70057,3.642392 9.4775817,9.5023277 0 0 1 -0.69056,3.672495 8.416733,8.4387091 0 0 1 -1.93154,2.859728 8.7570052,8.7798697 0 0 1 -2.95236,1.856315 10.418334,10.445536 0 0 1 -3.75301,0.662254 z m 4.93395,-5.23782 a 3.292634,3.3012311 0 0 0 1.40112,-0.301023 3.41273,3.4216406 0 0 0 1.14091,-0.802732 3.7429942,3.7527672 0 0 0 0.77062,-1.204097 4.0032024,4.0136548 0 0 0 -0.77062,-4.224371 3.6729382,3.6825282 0 0 0 -1.14091,-0.842868 3.292634,3.3012311 0 0 0 -1.40112,-0.301024 h -4.93395 v 7.676115 z M 388.41071,31.105825 h -3.8731 v 8.529016 h -6.08486 V 13.465812 h 11.43915 a 10.718574,10.74656 0 0 1 3.78302,0.642185 8.7970373,8.8200064 0 0 1 3.00241,1.816179 8.1164929,8.1376851 0 0 1 2.0016,2.789489 8.9171333,8.9404159 0 0 1 0.70056,3.602255 9.5076057,9.5324301 0 0 1 -0.34027,2.608876 8.4267411,8.4487433 0 0 1 -1.00081,2.227578 7.8362687,7.8567292 0 0 1 -1.54123,1.766008 8.7469972,8.7698356 0 0 1 -2.0016,1.294404 l 5.5044,9.432089 h -7.0056 z m 1.23099,-5.23782 a 3.6028822,3.6122893 0 0 0 1.40112,-0.260888 3.352682,3.3614359 0 0 0 1.14091,-0.722457 3.0024018,3.0102411 0 0 0 0.77062,-1.11379 3.8931143,3.9032792 0 0 0 0,-2.909899 3.282626,3.2911969 0 0 0 -0.77062,-1.153926 3.402722,3.4116065 0 0 0 -1.14091,-0.742527 3.6028822,3.6122893 0 0 0 -1.40112,-0.270921 h -5.10409 v 7.174408 z M 350.28021,13.465812 h 18.41473 v 5.257887 h -12.30985 v 5.358229 h 10.55845 v 5.23782 h -10.55845 v 5.097342 h 12.47999 v 5.237819 H 350.28021 Z M 327.0216,31.617565 v 8.02731 h -6.08486 V 13.465812 h 11.26901 a 10.298238,10.325127 0 0 1 3.78303,0.682321 8.9271414,8.9504502 0 0 1 3.0024,1.896452 8.5768611,8.5992553 0 0 1 2.0016,2.879797 9.1873495,9.2113377 0 0 1 0.70056,3.642392 9.4775817,9.5023277 0 0 1 -0.69055,3.672494 8.416733,8.4387091 0 0 1 -1.99159,2.859729 8.7570052,8.7798697 0 0 1 -2.95237,1.856316 10.418334,10.445536 0 0 1 -3.753,0.662252 z m 4.93395,-5.237819 a 3.292634,3.3012311 0 0 0 1.40112,-0.301024 3.41273,3.4216406 0 0 0 1.14091,-0.802731 3.5828661,3.592221 0 0 0 0.77062,-1.194063 4.1032825,4.1139962 0 0 0 0,-3.01024 3.7129702,3.7226648 0 0 0 -0.77062,-1.234199 3.6729382,3.6825282 0 0 0 -1.14091,-0.842868 3.292634,3.3012311 0 0 0 -1.40112,-0.301024 h -4.93395 v 7.676115 z m -48.85908,0.140478 a 13.010408,13.044378 0 0 1 0.5104,-3.66246 13.680944,13.716665 0 0 1 1.44116,-3.281163 13.180544,13.214958 0 0 1 2.23178,-2.769422 13.781024,13.817006 0 0 1 2.88231,-2.137271 13.931144,13.967518 0 0 1 3.40272,-1.374677 15.212169,15.251888 0 0 1 7.58607,0 14.331465,14.368884 0 0 1 3.41273,1.374677 14.181345,14.218372 0 0 1 2.90232,2.137271 13.180544,13.214958 0 0 1 2.23179,2.769422 13.680944,13.716665 0 0 1 1.44115,3.281163 13.290632,13.325334 0 0 1 0,7.314886 13.751,13.786904 0 0 1 -6.57526,8.197889 15.242193,15.28199 0 0 1 -3.41273,1.384712 14.721777,14.760216 0 0 1 -11.00881,-1.384712 13.110488,13.144719 0 0 1 -2.8823,-2.13727 13.60088,13.636392 0 0 1 -3.67294,-6.020483 12.920336,12.954071 0 0 1 -0.49039,-3.692562 z m 6.07486,0 a 8.5768611,8.5992553 0 0 0 0.64051,3.351402 8.4667731,8.4888798 0 0 0 1.7514,2.689149 8.2065649,8.2279922 0 0 0 2.61209,1.776042 8.2365889,8.2580946 0 0 0 6.41513,0 7.8462767,7.8667633 0 0 0 2.60208,-1.776042 8.4667731,8.4888798 0 0 0 1.7514,-2.689149 9.0672534,9.090928 0 0 0 0,-6.712838 8.4667731,8.4888798 0 0 0 -1.70136,-2.669081 8.1965569,8.2179581 0 0 0 -9.0072,-1.776042 8.376701,8.3985726 0 0 0 -2.61209,1.776042 8.4667731,8.4888798 0 0 0 -1.7514,2.689149 8.5868691,8.6092894 0 0 0 -0.70056,3.361436 z M 259.46756,13.465812 h 6.08487 v 20.941244 h 10.93875 v 5.237819 h -17.01361 z m -28.94315,0 h 18.39472 v 5.257887 h -12.30985 v 5.358229 h 10.58847 v 5.23782 h -10.58847 v 5.097342 h 12.47998 v 5.237819 H 230.52441 Z M 216.263,13.445743 h 6.41513 l -10.80864,26.199132 h -5.4944 L 195.54643,13.445743 h 6.43515 l 7.10568,17.981174 h 0.0801 z m -46.43715,0.02007 h 18.39472 V 18.7237 h -12.30985 v 5.358229 h 10.55845 v 5.23782 h -10.55845 v 5.097342 h 12.47998 v 5.237819 h -18.56485 z m -33.77702,0 h 10.59848 a 17.554043,17.599877 0 0 1 5.52442,0.842868 12.680144,12.713252 0 0 1 4.43355,2.508533 11.659327,11.68977 0 0 1 2.93234,4.083895 13.891112,13.927382 0 0 1 1.07086,5.639184 15.122097,15.161581 0 0 1 -0.91073,5.338161 11.218975,11.248268 0 0 1 -2.69215,4.134065 12.149719,12.181442 0 0 1 -4.36349,2.679114 17.293834,17.338988 0 0 1 -5.93475,0.953243 h -10.65853 z m 10.4984,20.941244 a 8.1265009,8.1477192 0 0 0 5.92474,-2.006828 7.7461966,7.7664219 0 0 0 2.05164,-5.789697 10.38831,10.415434 0 0 0 -0.49039,-3.271129 6.5152119,6.5322231 0 0 0 -1.48118,-2.488465 6.635308,6.6526328 0 0 0 -2.492,-1.595428 10.008006,10.034137 0 0 0 -3.51281,-0.551878 h -4.43354 V 34.40706 Z M 70.446354,70.630289 h 21.006805 l -21.006805,21.05162 z m -44.155322,0 V 91.691943 L 5.2942352,70.630289 Z m 0,-44.270611 H 5.2942352 L 26.291032,5.3080585 Z m 44.155322,0 V 5.3080585 L 91.453159,26.359678 Z M 28.750943,48.494984 48.374712,28.819977 67.998481,48.494984 48.374712,68.16999 Z m -4.231328,2e-6 A 12.259807,12.291817 0 0 1 12.259807,60.786803 12.259807,12.291817 0 0 1 0,48.494986 12.259807,12.291817 0 0 1 12.259807,36.203168 12.259807,12.291817 0 0 1 24.519615,48.494986 Z m 72.227777,0 A 12.259807,12.291817 0 0 1 84.487585,60.786803 12.259807,12.291817 0 0 1 72.227777,48.494986 12.259807,12.291817 0 0 1 84.487585,36.203168 12.259807,12.291817 0 0 1 96.747392,48.494986 Z M 60.628502,84.708182 A 12.259807,12.291817 0 0 1 48.368695,96.999999 12.259807,12.291817 0 0 1 36.108888,84.708182 12.259807,12.291817 0 0 1 48.368695,72.416364 12.259807,12.291817 0 0 1 60.628502,84.708182 Z m 0,-72.416365 A 12.259807,12.291817 0 0 1 48.368695,24.583636 12.259807,12.291817 0 0 1 36.108888,12.291817 12.259807,12.291817 0 0 1 48.368695,0 12.259807,12.291817 0 0 1 60.628502,12.291817 Z" />
</svg>
