<svg version="1.1" xmlns="http://www.w3.org/2000/svg" xmlns:xlink="http://www.w3.org/1999/xlink" viewBox="0 0 1600 600">
  <title>Pattern</title>
	<path style="fill:#289BDC;" d="M289.4,555.5l32.1,32.1l32.1-32.1l-32.1-32.1L289.4,555.5z M331.3,555.5c0,5.4-4.4,9.8-9.8,9.8
		s-9.8-4.4-9.8-9.8c0-5.4,4.4-9.8,9.8-9.8C326.9,545.8,331.3,550.2,331.3,555.5z"/>
	<path style="fill:#FFFFFF;" d="M321.5,443.9c15.4,0,27.9-12.5,27.9-27.9s-12.5-27.9-27.9-27.9s-27.9,12.5-27.9,27.9S306.1,443.9,321.5,443.9z
		 M321.5,404.8l11.2,11.2l-11.2,11.2L310.3,416L321.5,404.8z"/>
	<path style="fill:#FFBBDC;" d="M277.9,319.5h-52.3v52.3h52.3V319.5z M260.9,354.8h-18.3v-18.3h18.3V354.8z"/>
	<path style="fill:#FAD250;" d="M251.7,514.2c15.4,0,27.9-12.5,27.9-27.9s-12.5-27.9-27.9-27.9s-27.9,12.5-27.9,27.9
		C223.8,501.7,236.3,514.2,251.7,514.2z M251.7,475.1l11.2,11.2l-11.2,11.2l-11.2-11.2L251.7,475.1z"/>
	<path style="fill:#FAD250;" d="M359.2,486.3l32.1,32.1l32.1-32.1l-32.1-32.1L359.2,486.3z M391.3,498.6L380,487.4l11.2-11.2l11.2,11.2
		L391.3,498.6z"/>
	<path style="fill:#289BDC;" d="M391.3,373.6c15.4,0,27.9-12.5,27.9-27.9s-12.5-27.9-27.9-27.9s-27.9,12.5-27.9,27.9
		C363.3,361.1,375.8,373.6,391.3,373.6z M391.3,335.9c5.4,0,9.8,4.4,9.8,9.8s-4.4,9.8-9.8,9.8s-9.8-4.4-9.8-9.8
		S385.9,335.9,391.3,335.9z"/>
	<path style="fill:#FAD250;" d="M391.3,234.2c15.4,0,27.9-12.5,27.9-27.9s-12.5-27.9-27.9-27.9s-27.9,12.5-27.9,27.9
		C363.3,221.7,375.8,234.2,391.3,234.2z M382.1,197.2h18.3v18.3h-18.3V197.2z"/>
	<path style="fill:#FFBBDC;" d="M432,581.6h52.3v-52.3H432V581.6z M458.1,545.7c5.4,0,9.8,4.4,9.8,9.8c0,5.4-4.4,9.8-9.8,9.8s-9.8-4.4-9.8-9.8
		C448.4,550,452.7,545.7,458.1,545.7z"/>
	<path style="fill:#289BDC;" d="M486,276.4c0-15.4-12.5-27.9-27.9-27.9s-27.9,12.5-27.9,27.9s12.5,27.9,27.9,27.9S486,291.8,486,276.4z
		 M449,267.3h18.3v18.3H449V267.3z"/>
	<path style="fill:#FFFFFF;" d="M555.8,276.4c0-15.4-12.5-27.9-27.9-27.9S500,261,500,276.4s12.5,27.9,27.9,27.9S555.8,291.8,555.8,276.4z
		 M527.9,286.2c-5.4,0-9.8-4.4-9.8-9.8s4.4-9.8,9.8-9.8s9.8,4.4,9.8,9.8C537.6,281.8,533.3,286.2,527.9,286.2z"/>
	<path style="fill:#FAD250;" d="M737.2,527.6c-15.4,0-27.9,12.5-27.9,27.9s12.5,27.9,27.9,27.9s27.9-12.5,27.9-27.9S752.6,527.6,737.2,527.6z
		 M746.4,564.7h-18.3v-18.3h18.3V564.7z"/>
	<path style="fill:#289BDC;" d="M554,460.2h-52.3v52.3H554V460.2z M537,495.5h-18.3v-18.3H537V495.5z"/>
	<path style="fill:#FAD250;" d="M705.1,276.4l32.1,32.1l32.1-32.1l-32.1-32.1L705.1,276.4z M737.1,287.6l-11.2-11.2l11.2-11.2l11.2,11.2
		L737.1,287.6z"/>
	<path style="fill:#FFFFFF;" d="M571.4,581.6h52.3v-52.3h-52.3V581.6z M588.4,546.3h18.3v18.3h-18.3V546.3z"/>
	<path style="fill:#FFBBDC;" d="M426,416l32.1,32.1l32.1-32.1l-32.1-32.1L426,416z M458,427.2L446.8,416l11.2-11.2l11.2,11.2L458,427.2z"/>
	<path style="fill:#FAD250;" d="M527.9,443.9c15.4,0,27.9-12.5,27.9-27.9s-12.5-27.9-27.9-27.9S500,400.6,500,416S512.5,443.9,527.9,443.9z
		 M527.9,404.8l11.2,11.2l-11.2,11.2L516.7,416L527.9,404.8z"/>
	<path style="fill:#FFBBDC;" d="M693.5,460.2h-52.3v52.3h52.3V460.2z M667.4,496.1c-5.4,0-9.8-4.4-9.8-9.8s4.4-9.8,9.8-9.8
		c5.4,0,9.8,4.4,9.8,9.8C677.1,491.7,672.8,496.1,667.4,496.1z"/>
	<path style="fill:#FFFFFF;" d="M635.2,345.7l32.1,32.1l32.1-32.1l-32.1-32.1L635.2,345.7z M676.5,354.8h-18.3v-18.3h18.3V354.8z"/>
	<path style="fill:#289BDC;" d="M667.3,388.1c-15.4,0-27.9,12.5-27.9,27.9s12.5,27.9,27.9,27.9s27.9-12.5,27.9-27.9S682.8,388.1,667.3,388.1z
		 M667.3,427.2L656.2,416l11.2-11.2l11.2,11.2L667.3,427.2z"/>
	<path style="fill:#FFFFFF;" d="M565.5,416l32.1,32.1l32.1-32.1l-32.1-32.1L565.5,416z M607.3,416c0,5.4-4.4,9.8-9.8,9.8
		c-5.4,0-9.8-4.4-9.8-9.8s4.4-9.8,9.8-9.8S607.3,410.6,607.3,416z"/>
	<path style="fill:#FFBBDC;" d="M571.4,371.8h52.3v-52.3h-52.3V371.8z M588.4,336.5h18.3v18.3h-18.3V336.5z"/>
	<path style="fill:#FFFFFF;" d="M705.1,486.3l32.1,32.1l32.1-32.1l-32.1-32.1L705.1,486.3z M737.1,498.6l-11.2-11.2l11.2-11.2l11.2,11.2
		L737.1,498.6z"/>
	<path style="fill:#FAD250;" d="M711,442.1h52.3v-52.3H711V442.1z M728,406.8h18.3v18.3H728V406.8z"/>
	<path style="fill:#FFBBDC;" d="M765.1,206.3c0-15.4-12.5-27.9-27.9-27.9s-27.9,12.5-27.9,27.9s12.5,27.9,27.9,27.9S765.1,221.7,765.1,206.3z
		 M728.1,197.2h18.3v18.3h-18.3V197.2z"/>
	<path style="fill:#FFBBDC;" d="M495.8,206.3l32.1,32.1l32.1-32.1l-32.1-32.1L495.8,206.3z M537,215.5h-18.3v-18.3H537V215.5z"/>
	<path style="fill:#FAD250;" d="M623.8,180.2h-52.3v52.3h52.3V180.2z M606.8,215.5h-18.3v-18.3h18.3V215.5z"/>
	<path style="fill:#289BDC;" d="M635.2,206.3l32.1,32.1l32.1-32.1l-32.1-32.1L635.2,206.3z M677.1,206.3c0,5.4-4.4,9.8-9.8,9.8
		s-9.8-4.4-9.8-9.8s4.4-9.8,9.8-9.8C672.8,196.6,677.1,201,677.1,206.3z"/>
	<path style="fill:#FAD250;" d="M693.5,111h-52.3v52.3h52.3V111z M667.4,146.9c-5.4,0-9.8-4.4-9.8-9.8s4.4-9.8,9.8-9.8c5.4,0,9.8,4.4,9.8,9.8
		S672.8,146.9,667.4,146.9z"/>
	<path style="fill:#289BDC;" d="M597.6,165.1c15.4,0,27.9-12.5,27.9-27.9s-12.5-27.9-27.9-27.9s-27.9,12.5-27.9,27.9S582.2,165.1,597.6,165.1z
		 M597.6,125.9l11.2,11.2l-11.2,11.2l-11.2-11.2L597.6,125.9z"/>
	<path style="fill:#FFFFFF;" d="M705.1,137.1l32.1,32.1l32.1-32.1l-32.1-32.1L705.1,137.1z M737.1,149.4l-11.2-11.2l11.2-11.2l11.2,11.2
		L737.1,149.4z"/>
	<rect x="435.5" y="183.7" transform="matrix(0.7071 -0.7071 0.7071 0.7071 -11.7159 384.3553)" style="fill:#FFFFFF;" width="45.3" height="45.3"/>
	<path style="fill:#FAD250;" d="M1260.6,206.3l32.1,32.1l32.1-32.1l-32.1-32.1L1260.6,206.3z M1302.4,206.3c0,5.4-4.4,9.8-9.8,9.8
		s-9.8-4.4-9.8-9.8c0-5.4,4.4-9.8,9.8-9.8S1302.4,200.9,1302.4,206.3z"/>
	<path style="fill:#FFFFFF;" d="M1121.1,206.3l32.1,32.1l32.1-32.1l-32.1-32.1L1121.1,206.3z M1153.2,217.5l-11.2-11.2l11.2-11.2l11.2,11.2
		L1153.2,217.5z"/>
	<path style="fill:#FFBBDC;" d="M1190.8,137.1l32.1,32.1l32.1-32.1l-32.1-32.1L1190.8,137.1z M1232,146.3h-18.3V128h18.3V146.3z"/>
	<path style="fill:#FAD250;" d="M1190.8,276.4l32.1,32.1l32.1-32.1l-32.1-32.1L1190.8,276.4z M1232.6,276.4c0,5.4-4.4,9.8-9.8,9.8
		s-9.8-4.4-9.8-9.8s4.4-9.8,9.8-9.8C1228.2,266.6,1232.6,271,1232.6,276.4z"/>
	<path style="fill:#FAD250;" d="M1195,416c0,15.4,12.5,27.9,27.9,27.9s27.9-12.5,27.9-27.9s-12.5-27.9-27.9-27.9S1195,400.6,1195,416z
		 M1222.9,404.8l11.2,11.2l-11.2,11.2l-11.2-11.2L1222.9,404.8z"/>
	<path style="fill:#289BDC;" d="M1250.8,206.3c0-15.4-12.5-27.9-27.9-27.9s-27.9,12.5-27.9,27.9s12.5,27.9,27.9,27.9
		S1250.8,221.7,1250.8,206.3z M1222.9,195.1l11.2,11.2l-11.2,11.2l-11.2-11.2L1222.9,195.1z"/>
	<path style="fill:#289BDC;" d="M1266.5,512.5h52.3v-52.3h-52.3V512.5z M1283.5,477.2h18.3v18.3h-18.3V477.2z"/>
	<path style="fill:#FFFFFF;" d="M1292.7,317.8c-15.4,0-27.9,12.5-27.9,27.9s12.5,27.9,27.9,27.9s27.9-12.5,27.9-27.9
		S1308.1,317.8,1292.7,317.8z M1292.7,356.9l-11.2-11.2l11.2-11.2l11.2,11.2L1292.7,356.9z"/>
	<path style="fill:#289BDC;" d="M1121.1,345.7l32.1,32.1l32.1-32.1l-32.1-32.1L1121.1,345.7z M1153.2,355.9l-11.2-11.2l11.2-11.2l11.2,11.2
		L1153.2,355.9z"/>
	<path style="fill:#FAD250;" d="M1196.8,581.6h52.3v-52.3h-52.3V581.6z M1213.8,547.7h18.3V566h-18.3V547.7z"/>
	<path style="fill:#FFBBDC;" d="M1125.3,486.3c0,15.4,12.5,27.9,27.9,27.9s27.9-12.5,27.9-27.9s-12.5-27.9-27.9-27.9
		S1125.3,470.9,1125.3,486.3z M1153.2,476.6c5.4,0,9.8,4.4,9.8,9.8s-4.4,9.8-9.8,9.8s-9.8-4.4-9.8-9.8
		C1143.4,481,1147.8,476.6,1153.2,476.6z"/>
	<ellipse transform="matrix(0.982 -0.1891 0.1891 0.982 -5.1295 220.5353)" style="fill:#289BDC;" cx="1153.2" cy="137.2" rx="27.9" ry="27.9"/>
	<path style="fill:#289BDC;" d="M1016.6,178.4c-15.4,0-27.9,12.5-27.9,27.9s12.5,27.9,27.9,27.9s27.9-12.5,27.9-27.9
		S1032.1,178.4,1016.6,178.4z M1016.6,216.1c-5.4,0-9.8-4.4-9.8-9.8c0-5.4,4.4-9.8,9.8-9.8c5.4,0,9.8,4.4,9.8,9.8
		C1026.4,211.7,1022,216.1,1016.6,216.1z"/>
	<path style="fill:#289BDC;" d="M1086.3,39.6c-15.4,0-27.9,12.5-27.9,27.9s12.5,27.9,27.9,27.9s27.9-12.5,27.9-27.9S1101.7,39.6,1086.3,39.6z
		 M1086.3,77.3c-5.4,0-9.8-4.4-9.8-9.8s4.4-9.8,9.8-9.8s9.8,4.4,9.8,9.8C1096.1,72.9,1091.7,77.3,1086.3,77.3z"/>
	<path style="fill:#FFBBDC;" d="M914.8,206.3l32.1,32.1l32.1-32.1l-32.1-32.1L914.8,206.3z M956.7,206.3c0,5.4-4.4,9.8-9.8,9.8
		c-5.4,0-9.8-4.4-9.8-9.8c0-5.4,4.4-9.8,9.8-9.8C952.2,196.5,956.7,200.9,956.7,206.3z"/>
	<path style="fill:#FFFFFF;" d="M1112.5,111h-52.3v52.3h52.3V111z M1086.3,146.9c-5.4,0-9.8-4.4-9.8-9.8s4.4-9.8,9.8-9.8s9.8,4.4,9.8,9.8
		S1091.7,146.9,1086.3,146.9z"/>
	<path style="fill:#FAD250;" d="M984.5,137.1l32.1,32.1l32.1-32.1l-32.1-32.1L984.5,137.1z M1025.7,146.3h-18.3V128h18.3V146.3z"/>
	<path style="fill:#FFBBDC;" d="M845,137.1l32.1,32.1l32.1-32.1l-32.2-32L845,137.1z M886.2,146.3h-18.3V128h18.3V146.3z"/>
	<path style="fill:#FFFFFF;" d="M903.2,180.2h-52.3v52.3h52.3V180.2z M886.2,216.9h-18.3v-18.3h18.3V216.9z"/>
	<path style="fill:#289BDC;" d="M807.2,165.1c15.4,0,27.9-12.5,27.9-27.9s-12.5-27.9-27.9-27.9s-27.9,12.5-27.9,27.9S791.8,165.1,807.2,165.1z
		 M807.2,127.4c5.4,0,9.8,4.4,9.8,9.8s-4.4,9.8-9.8,9.8s-9.8-4.4-9.8-9.8S801.8,127.4,807.2,127.4z"/>
	<path style="fill:#FFFFFF;" d="M1112.5,250.3h-52.3v52.3h52.3V250.3z M1086.3,286.3c-5.4,0-9.8-4.4-9.8-9.8s4.4-9.8,9.8-9.8s9.8,4.4,9.8,9.8
		C1096.1,281.9,1091.7,286.3,1086.3,286.3z"/>
	<path style="fill:#FAD250;" d="M1058.4,555.5c0,15.4,12.5,27.9,27.9,27.9s27.9-12.5,27.9-27.9s-12.5-27.9-27.9-27.9
		S1058.4,540.1,1058.4,555.5z M1077.1,546.4h18.3v18.3h-18.3V546.4z"/>
	<path style="fill:#289BDC;" d="M1016.6,583.4c15.4,0,27.9-12.5,27.9-27.9s-12.5-27.9-27.9-27.9s-27.9,12.5-27.9,27.9
		S1001.2,583.4,1016.6,583.4z M1016.6,545.8c5.4,0,9.8,4.4,9.8,9.8c0,5.4-4.4,9.8-9.8,9.8c-5.4,0-9.8-4.4-9.8-9.8
		C1006.9,550.1,1011.3,545.8,1016.6,545.8z"/>
	<path style="fill:#289BDC;" d="M807.2,304.3c15.4,0,27.9-12.5,27.9-27.9s-12.5-27.9-27.9-27.9s-27.9,12.5-27.9,27.9S791.8,304.3,807.2,304.3z
		 M798,267.2h18.3v18.3H798V267.2z"/>
	<path style="fill:#FFBBDC;" d="M990.4,371.8h52.3v-52.3h-52.3L990.4,371.8L990.4,371.8z M1007.4,336.5h18.3v18.3h-18.3L1007.4,336.5
		L1007.4,336.5z"/>
	<path style="fill:#289BDC;" d="M775.1,555.5l32.1,32.1l32.1-32.1l-32.1-32.1L775.1,555.5z M807.2,566.7L796,555.5l11.2-11.2l11.2,11.2
		L807.2,566.7z"/>
	<path style="fill:#FAD250;" d="M973,250.3h-52.3v52.3H973V250.3z M955.9,285.7h-18.3v-18.3h18.3V285.7z"/>
	<path style="fill:#289BDC;" d="M1054.2,416l32.1,32.1l32.1-32.1l-32.1-32.1L1054.2,416z M1086.3,427.2l-11.2-11.2l11.2-11.2l11.2,11.2
		L1086.3,427.2z"/>
	<path style="fill:#FFFFFF;" d="M1016.6,443.9c15.4,0,27.9-12.5,27.9-27.9s-12.5-27.9-27.9-27.9s-27.9,12.5-27.9,27.9
		S1001.2,443.9,1016.6,443.9z M1016.6,404.8l11.2,11.2l-11.2,11.2l-11.2-11.2L1016.6,404.8z"/>
	<path style="fill:#FAD250;" d="M850.9,371.8h52.3v-52.3h-52.3V371.8z M877,335.9c5.4,0,9.8,4.4,9.8,9.8s-4.4,9.8-9.8,9.8s-9.8-4.4-9.8-9.8
		S871.6,335.9,877,335.9z"/>
	<path style="fill:#FAD250;" d="M845,486.3l32.1,32.1l32.1-32.1l-32.2-32L845,486.3z M886.2,495.5h-18.3v-18.3h18.3V495.5z"/>
	<path style="fill:#FFFFFF;" d="M877.1,443.9c15.4,0,27.9-12.5,27.9-27.9s-12.5-27.9-27.9-27.9s-27.9,12.5-27.9,27.9S861.7,443.9,877.1,443.9z
		 M877.1,404.8l11.2,11.2l-11.2,11.2L865.9,416L877.1,404.8z"/>
	<path style="fill:#289BDC;" d="M914.8,416l32.1,32.1l32.1-32.1l-32.1-32.1L914.8,416z M956.7,416c0,5.4-4.4,9.8-9.8,9.8
		c-5.4,0-9.8-4.4-9.8-9.8s4.4-9.8,9.8-9.8C952.2,406.2,956.7,410.6,956.7,416z"/>
	<path style="fill:#FFBBDC;" d="M973,460.2h-52.3v52.3H973V460.2z M955.9,495.5h-18.3v-18.3h18.3V495.5z"/>
	<path style="fill:#FFBBDC;" d="M775.1,345.7l32.1,32.1l32.1-32.1l-32.1-32.1L775.1,345.7z M807.2,355.9L796,344.7l11.2-11.2l11.2,11.2
		L807.2,355.9z"/>
	<path style="fill:#289BDC;" d="M833.3,389.8h-52.3v52.3h52.3V389.8z M816.3,425.1h-18.3v-18.3h18.3V425.1z"/>
	<ellipse transform="matrix(0.8507 -0.5257 0.5257 0.8507 53.7485 601.8614)" style="fill:#FAD250;" cx="1086.3" cy="206.3" rx="27.9" ry="27.9"/>
	<ellipse transform="matrix(0.7071 -0.7071 0.7071 0.7071 -231.1265 133.3512)" style="fill:#FAD250;" cx="45.4" cy="345.7" rx="9.8" ry="9.8"/>
	<ellipse transform="matrix(0.7071 -0.7071 0.7071 0.7071 -311.036 221.7646)" style="fill:#FFFFFF;" cx="112.2" cy="486.3" rx="9.8" ry="9.8"/>
	<rect x="242.6" y="546.3" style="fill:#FFFFFF;" width="18.3" height="18.3"/>
	<rect x="103.1" y="267.3" style="fill:#289BDC;" width="18.3" height="18.3"/>
	<ellipse transform="matrix(0.9732 -0.2298 0.2298 0.9732 -56.794 65.2421)" style="fill:#FAD250;" cx="251.7" cy="276.4" rx="9.8" ry="9.8"/>
	<rect x="382.1" y="406.8" style="fill:#FFFFFF;" width="18.3" height="18.3"/>
	<ellipse transform="matrix(0.9732 -0.2298 0.2298 0.9732 -122.7785 56.6946)" style="fill:#289BDC;" cx="182" cy="555.5" rx="9.8" ry="9.8"/>
	<rect x="382.1" y="546.3" style="fill:#F5416E;" width="18.3" height="18.3"/>
	<rect x="174.1" y="408" transform="matrix(0.7071 -0.7071 0.7071 0.7071 -240.8293 250.5757)" style="fill:#FFBBDC;" width="15.9" height="15.9"/>
	<rect x="383.3" y="268.5" transform="matrix(0.7071 -0.7071 0.7071 0.7071 -80.8706 357.661)" style="fill:#FFFFFF;" width="15.9" height="15.9"/>
	<rect x="450.2" y="129.2" transform="matrix(0.7071 -0.7071 0.7071 0.7071 37.1947 364.0959)" style="fill:#F5416E;" width="15.9" height="15.9"/>
	<ellipse style="fill:#F5416E;" cx="321.5" cy="486.3" rx="9.8" ry="9.8"/>
	<rect x="312.4" y="336.5" style="fill:#FAD250;" width="18.3" height="18.3"/>
	<circle style="fill:#FFFFFF;" cx="251.7" cy="416" r="9.8"/>
	<rect x="518.8" y="546.3" style="fill:#FFFFFF;" width="18.3" height="18.3"/>
	<ellipse style="fill:#FFFFFF;" cx="458.1" cy="486.3" rx="9.8" ry="9.8"/>
	<rect x="589.7" y="478.4" transform="matrix(0.7071 -0.7071 0.7071 0.7071 -168.8585 565.0115)" style="fill:#FFFFFF;" width="15.9" height="15.9"/>
	<ellipse style="fill:#FAD250;" cx="597.6" cy="276.4" rx="9.8" ry="9.8"/>
	<ellipse style="fill:#F5416E;" cx="737.2" cy="345.7" rx="9.8" ry="9.8"/>
	<rect x="658.2" y="267.3" style="fill:#289BDC;" width="18.3" height="18.3"/>
	<rect x="518.8" y="336.5" style="fill:#F5416E;" width="18.3" height="18.3"/>
	<ellipse style="fill:#FFFFFF;" cx="667.3" cy="555.5" rx="9.8" ry="9.8"/>
	<rect x="518.8" y="128" style="fill:#FFBBDC;" width="18.3" height="18.3"/>
	<rect x="1491.1" y="198.4" transform="matrix(0.7071 -0.7071 0.7071 0.7071 293.176 1120.4294)" style="fill:#289BDC;" width="15.9" height="15.9"/>
	<circle style="fill:#FFBBDC;" cx="1499.1" cy="486.3" r="9.8"/>
	<rect x="1491.1" y="408" transform="matrix(0.7071 -0.7071 0.7071 0.7071 144.9137 1181.8417)" style="fill:#FFFFFF;" width="15.9" height="15.9"/>
	<circle style="fill:#FFBBDC;" cx="1362.5" cy="206.3" r="9.8"/>
	<rect x="1283.5" y="128" style="fill:#F5416E;" width="18.3" height="18.3"/>
	<circle style="fill:#FFFFFF;" cx="1432.2" cy="137.1" r="9.8"/>
	<circle style="fill:#FAD250;" cx="1432.2" cy="345.7" r="9.8"/>
	<rect x="1283.5" y="267.3" style="fill:#F5416E;" width="18.3" height="18.3"/>
	<rect x="1423" y="546.3" style="fill:#FFFFFF;" width="18.3" height="18.3"/>
	<ellipse transform="matrix(0.9951 -9.853997e-02 9.853997e-02 0.9951 -48.444 130.0811)" style="fill:#FFFFFF;" cx="1292.7" cy="555.5" rx="9.8" ry="9.8"/>
	<circle style="fill:#289BDC;" cx="1362.5" cy="555.5" r="9.8"/>
	<rect x="1144" y="406.8" style="fill:#FFFFFF;" width="18.3" height="18.3"/>
	<circle style="fill:#FFFFFF;" cx="1432.2" cy="276.4" r="9.8"/>
	<rect x="1144" y="267.3" style="fill:#FFFFFF;" width="18.3" height="18.3"/>
	<rect x="1354.5" y="408" transform="matrix(0.7071 -0.7071 0.7071 0.7071 104.9034 1085.2484)" style="fill:#FAD250;" width="15.9" height="15.9"/>
	<rect x="1145.2" y="547.5" transform="matrix(0.7071 -0.7071 0.7071 0.7071 -55.0068 978.1267)" style="fill:#FFFFFF;" width="15.9" height="15.9"/>
	<ellipse transform="matrix(0.9951 -9.853997e-02 9.853997e-02 0.9951 -28.1103 122.1918)" style="fill:#FFFFFF;" cx="1222.9" cy="345.7" rx="9.8" ry="9.8"/>
	<rect x="1213.8" y="477.2" style="fill:#FFFFFF;" width="18.3" height="18.3"/>
	<circle style="fill:#F5416E;" cx="1292.7" cy="416" r="9.8"/>
	<circle style="fill:#289BDC;" cx="1432.2" cy="486.3" r="9.8"/>
	<rect x="799.3" y="198.4" transform="matrix(0.7071 -0.7071 0.7071 0.7071 90.5331 631.2064)" style="fill:#FAD250;" width="15.9" height="15.9"/>
	<rect x="937.7" y="128" style="fill:#F5416E;" width="18.3" height="18.3"/>
	<rect x="1007.4" y="267.3" style="fill:#FFFFFF;" width="18.3" height="18.3"/>
	<ellipse transform="matrix(0.9239 -0.3827 0.3827 0.9239 -49.5918 442.0301)" style="fill:#FFFFFF;" cx="1086.3" cy="345.7" rx="9.8" ry="9.8"/>
	<rect x="938.9" y="337.7" transform="matrix(0.7071 -0.7071 0.7071 0.7071 32.9004 770.7684)" style="fill:#FFFFFF;" width="15.9" height="15.9"/>
	<ellipse style="fill:#FFBBDC;" cx="946.9" cy="555.5" rx="9.8" ry="9.8"/>
	<ellipse style="fill:#F5416E;" cx="807.2" cy="486.3" rx="9.8" ry="9.8"/>
	<rect x="867.9" y="546.3" style="fill:#FFFFFF;" width="18.3" height="18.3"/>
	<rect x="1007.4" y="477.2" style="fill:#FAD250;" width="18.3" height="18.3"/>
	<ellipse style="fill:#FFFFFF;" cx="877.1" cy="276.4" rx="9.8" ry="9.8"/>
	<path style="fill:#289BDC;" d="M486,67.5c0-15.4-12.5-27.9-27.9-27.9s-27.9,12.5-27.9,27.9s12.5,27.9,27.9,27.9S486,82.9,486,67.5z M449,58.4
		h18.3v18.3H449V58.4z"/>
	<path style="fill:#FAD250;" d="M839.3,67.5l-32.1-32.1l-32.1,32.1l32.1,32.1L839.3,67.5z M807.3,56.3l11.2,11.2l-11.2,11.2l-11.2-11.2
		L807.3,56.3z"/>
	<path style="fill:#FAD250;" d="M1249.1,41.3h-52.3v52.3h52.3V41.3z M1222.9,77.3c-5.4,0-9.8-4.4-9.8-9.8s4.4-9.8,9.8-9.8s9.8,4.4,9.8,9.8
		C1232.7,72.9,1228.3,77.3,1222.9,77.3z"/>
	<path style="fill:#289BDC;" d="M737.2,39.6c-15.4,0-27.9,12.5-27.9,27.9s12.5,27.9,27.9,27.9s27.9-12.5,27.9-27.9S752.6,39.6,737.2,39.6z
		 M746.4,76.7h-18.3V58.3h18.3V76.7z"/>
	<path style="fill:#289BDC;" d="M973,41.3h-52.3v52.3H973V41.3z M955.9,76.7h-18.3V58.3h18.3V76.7z"/>
	<ellipse style="fill:#FFFFFF;" cx="251.7" cy="67.5" rx="9.8" ry="9.8"/>
	<rect x="383.3" y="59.5" transform="matrix(0.7071 -0.7071 0.7071 0.7071 66.8828 296.4595)" style="fill:#FFBBDC;" width="15.9" height="15.9"/>
	<ellipse transform="matrix(0.7071 -0.7071 0.7071 0.7071 127.3068 442.3358)" style="fill:#FFFFFF;" cx="597.6" cy="67.5" rx="9.8" ry="9.8"/>
	<rect x="658.2" y="58.3" style="fill:#289BDC;" width="18.3" height="18.3"/>
	<rect x="1283.5" y="58.3" style="fill:#FFFFFF;" width="18.3" height="18.3"/>
	<circle style="fill:#FAD250;" cx="1432.2" cy="67.5" r="9.8"/>
	<rect x="1144" y="58.3" style="fill:#FFFFFF;" width="18.3" height="18.3"/>
	<rect x="1007.4" y="58.3" style="fill:#FFFFFF;" width="18.3" height="18.3"/>
	<ellipse transform="matrix(0.9239 -0.3827 0.3827 0.9239 40.9381 340.7956)" style="fill:#FFFFFF;" cx="877.1" cy="67.5" rx="9.8" ry="9.8"/>
	<ellipse transform="matrix(0.1602 -0.9871 0.9871 0.1602 432.2225 1480.6967)" style="fill:#FFFFFF;" cx="1086.3" cy="486.3" rx="9.8" ry="9.8"/>
</svg>
