<svg id="social_reddit" version="1.1" xmlns="http://www.w3.org/2000/svg" xmlns:xlink="http://www.w3.org/1999/xlink" viewBox="0 0 30 30">
  <title>Reddit</title>
  <path d="M21.31,8.53A.7.7,0,0,0,22,7.79a.65.65,0,1,0-1.29,0A.7.7,0,0,0,21.31,8.53Z" style="fill-rule:evenodd"/>
  <path d="M15,12.63c-3.68,0-6.66,2.23-6.66,5s3,5,6.66,5,6.66-2.24,6.66-5S18.68,12.63,15,12.63Zm-4.59,3.68A1.24,1.24,0,0,1,11.56,15a1.32,1.32,0,0,1,0,2.62A1.24,1.24,0,0,1,10.41,16.31Zm7.78,4A5,5,0,0,1,15,21.55a5,5,0,0,1-3.19-1.22.84.84,0,0,1-.11-1.09.62.62,0,0,1,1-.13A3.78,3.78,0,0,0,15,20a3.78,3.78,0,0,0,2.35-.89.62.62,0,0,1,.95.13A.84.84,0,0,1,18.19,20.33Zm.25-2.71a1.32,1.32,0,1,1,1.15-1.31A1.24,1.24,0,0,1,18.44,17.62Z" style="fill-rule:evenodd"/>
  <path d="M8.12,12.38A1.24,1.24,0,0,0,7,13.69a1.34,1.34,0,0,0,.72,1.22,6.71,6.71,0,0,1,1.47-1.78A1.16,1.16,0,0,0,8.12,12.38Z" style="fill-rule:evenodd"/>
  <path d="M21.88,12.38a1.16,1.16,0,0,0-1,.75,6.71,6.71,0,0,1,1.47,1.78A1.34,1.34,0,0,0,23,13.69,1.24,1.24,0,0,0,21.88,12.38Z" style="fill-rule:evenodd"/>
  <path d="M15,1A14,14,0,1,0,29,15,14,14,0,0,0,15,1Zm7.8,15.09A5.2,5.2,0,0,1,23,17.62c0,3.62-3.6,6.55-8,6.55s-8-2.93-8-6.55a5.2,5.2,0,0,1,.23-1.53,2.66,2.66,0,0,1-1.37-2.4,2.47,2.47,0,0,1,2.29-2.62,2.28,2.28,0,0,1,2,1.35A9,9,0,0,1,14.2,11.1l1.86-4.77a.66.66,0,0,1,.81-.43l2.92,1a1.71,1.71,0,0,1,1.52-1,1.85,1.85,0,0,1,1.72,2,1.86,1.86,0,0,1-1.72,2,1.77,1.77,0,0,1-1.63-1.31l-2.62-.87L15.7,11.09a9.09,9.09,0,0,1,4.18,1.33,2.25,2.25,0,0,1,2-1.35,2.47,2.47,0,0,1,2.29,2.62A2.66,2.66,0,0,1,22.8,16.09Z" style="fill-rule:evenodd"/>
</svg>
