<svg id="social_gitter" version="1.1" xmlns="http://www.w3.org/2000/svg" xmlns:xlink="http://www.w3.org/1999/xlink" viewBox="0 0 100 100">
  <title>Gitter</title>
  <rect width="100" height="100" fill-rule="evenodd"/>
  <path fill="#E2E2FF" fill-rule="nonzero" d="M4,4 L4,96 L96,96 L96,4 L4,4 Z M0,0 L100,0 L100,100 L0,100 L0,0 Z"/>
  <path fill="#F5F5FE" fill-rule="nonzero" d="M3,3 L3,97 L97,97 L97,3 L3,3 Z M0,0 L100,0 L100,100 L0,100 L0,0 Z"/>
  <path fill="#E2E2FF" fill-rule="nonzero" d="M1,1 L1,99 L99,99 L99,1 L1,1 Z M0,0 L100,0 L100,100 L0,100 L0,0 Z"/>
  <path fill="#F5F5FE" d="M30,20 L35.6,20 L35.6,57.6 L30,57.6 L30,20 Z M41.2,29.6 L46.8,29.6 L46.8,80 L41.2,80 L41.2,29.6 Z M53.2,29.6 L58.8,29.6 L58.8,80 L53.2,80 L53.2,29.6 Z M64.4,29.6 L70,29.6 L70,58.4 L64.4,58.4 L64.4,29.6 Z"/>
</svg>
