<svg id="social_github" version="1.1" xmlns="http://www.w3.org/2000/svg" xmlns:xlink="http://www.w3.org/1999/xlink" viewBox="0 0 30 30">
  <title>GitHub</title>
  <path d="M15,1A14.19,14.19,0,0,0,1,15.36,14.33,14.33,0,0,0,10.57,29a.72.72,0,0,0,1-.7c0-.34,0-1.24,0-2.44-3.89.87-4.71-1.92-4.71-1.92a3.78,3.78,0,0,0-1.56-2.1c-1.27-.89.1-.87.1-.87a2.94,2.94,0,0,1,2.14,1.47,3,3,0,0,0,4.08,1.2,3.06,3.06,0,0,1,.88-1.92c-3.1-.36-6.37-1.6-6.37-7.1a5.63,5.63,0,0,1,1.44-3.85A5.21,5.21,0,0,1,7.65,7s1.17-.38,3.85,1.47A13.56,13.56,0,0,1,15,7.94a13.7,13.7,0,0,1,3.51.48C21.18,6.57,22.35,7,22.35,7a5.21,5.21,0,0,1,.14,3.8,5.63,5.63,0,0,1,1.44,3.85c0,5.52-3.27,6.73-6.39,7.09a3.48,3.48,0,0,1,.95,2.66c0,1.91,0,3.46,0,3.93s.25.83,1,.69A14.32,14.32,0,0,0,29,15.36,14.19,14.19,0,0,0,15,1Z" style="fill-rule:evenodd"/>
</svg>
